<?xml version="1.0" encoding="utf-8"?>
<!-- Generator: Adobe Illustrator 24.0.0, SVG Export Plug-In . SVG Version: 6.00 Build 0)  -->
<svg version="1.1" id="Layer_1" xmlns="http://www.w3.org/2000/svg" xmlns:xlink="http://www.w3.org/1999/xlink" x="0px" y="0px"
	 viewBox="120 120 750 750" style="enable-background:new 0 0 1000 1000;" xml:space="preserve">
<style type="text/css">
	.st0{display:none;fill:#231F20;}
	.st1{fill:#26A0DA;}
	.st2{fill:#6813CF;}
</style>
<rect class="st0" width="1000" height="1000"/>
<g>
	<g>
		
			<image style="overflow:visible;enable-background:new    ;" width="3046" height="2617" xlink:href="AB39EF37.png"  transform="matrix(0.2393 0 0 0.2393 135.5174 186.96)">
		</image>
	</g>
	<g>
		<g>
			<g>
				<g>
					<g>
						<path class="st1" d="M213.7,456.7c-0.3,10.8-9.1,19.3-19.9,19s-19.3-9.1-19-19.9s9.1-19.3,19.9-19S214,445.9,213.7,456.7z"/>
						<path class="st1" d="M825.2,470.7c-0.3,10.8-9.1,19.3-19.9,19c-10.7-0.2-19.3-9.1-19-19.9s9.3-19.3,19.9-19
							C817,451,825.5,459.9,825.2,470.7z"/>
						<path class="st1" d="M343.1,377.2c-0.3,10.8-9.1,19.3-19.9,19s-19.3-9.1-19-19.9s9.1-19.3,19.9-19S343.4,366.4,343.1,377.2z"
							/>
						<path class="st1" d="M701.1,385.4c-0.3,10.8-9.3,19.3-19.9,19c-10.8-0.3-19.3-9.1-19-19.9s9.1-19.3,19.9-19
							C692.7,365.8,701.3,374.6,701.1,385.4z"/>
						<path class="st1" d="M534.3,261.1c-0.4,18.9-16.1,33.9-35.1,33.4c-18.9-0.4-33.8-16.1-33.4-35s16.1-33.9,35-33.4
							C519.8,226.6,534.7,242.2,534.3,261.1z"/>
						<g>
							<path class="st1" d="M700.3,714.6l8.6-20.5l12.3-29l24.4-58.1l12.3-29l48-108.8L664.1,575.8L681,383.9L577.4,560.3l-77-303.6
								l-87.4,290l-90-170.9l8,192.5l-136.7-113l43,110.9l10.9,29.6l21.8,59.2l10.8,29.6l10.7,29
								C426.9,690.8,565.1,692.1,700.3,714.6z"/>
						</g>
					</g>
					<g>
						<path class="st2" d="M706.2,722.4l-6.5,15.4c-135.2-22.5-273.4-23.8-408.8-1.3l-8.7-23.8l-14.2-0.3l0.7,1.7l10.8,29.6l10.7,29
							c135.4-22.6,273.6-21.3,408.8,1.3l8.6-20.5l12.3-29l0.7-1.7L706.2,722.4z"/>
					</g>
				</g>
			</g>
		</g>
	</g>
</g>
</svg>
