<?xml version="1.0" encoding="utf-8"?>
<!-- Generator: Adobe Illustrator 24.0.1, SVG Export Plug-In . SVG Version: 6.00 Build 0)  -->
<svg version="1.1" id="Layer_1" xmlns="http://www.w3.org/2000/svg" xmlns:xlink="http://www.w3.org/1999/xlink" x="0px" y="0px"
	 viewBox="67 -55 475 475" style="enable-background:new 0 0 638 397;" xml:space="preserve">
<style type="text/css">
	.st0{fill:none;stroke:#EF6C00;stroke-width:3;stroke-miterlimit:10;}
</style>
<title>Asset 1tttt</title>
<g id="Layer_2_1_">
	<image style="overflow:visible;" width="514" height="357" xlink:href="61780DFA.png"  transform="matrix(1 0 0 1 48 20)">
	</image>
	<g>
		<g>
			<g id="Objects_9_">
				<path class="st0" d="M423.6,357H185.2c-8,0-14.4-7.8-14.4-17.3s6.5-17.4,14.4-17.4h238.4c8,0,14.4,7.8,14.4,17.4
					S431.5,357,423.6,357z M541.6,192.5c0,5.1-4.2,9.2-9.3,9.2H341.7c-5.1,9.3-16.8,12.7-26.1,7.6c-9.3-5.1-12.7-16.8-7.6-26.1
					s16.8-12.7,26.1-7.6c3.2,1.8,5.8,4.4,7.6,7.6h89v-56h28.9v56h72.8C537.4,183.2,541.6,187.3,541.6,192.5L541.6,192.5z
					 M333.1,192.5c0-4.6-3.7-8.3-8.3-8.3s-8.3,3.7-8.3,8.3s3.7,8.3,8.3,8.3l0,0C329.4,200.7,333.1,197,333.1,192.5
					C333.1,192.4,333.1,192.4,333.1,192.5L333.1,192.5z M68.1,145.9c0-5.1,4.1-9.3,9.2-9.3c0,0,0,0,0,0h188.9
					c5.1-9.3,16.8-12.7,26.1-7.6c9.3,5.1,12.7,16.8,7.6,26.1c-5.1,9.3-16.8,12.7-26.1,7.6c-3.2-1.8-5.8-4.4-7.6-7.6H179v56h-28.8
					v-56H77.3C72.2,155.1,68.1,151,68.1,145.9L68.1,145.9z M274.9,145.9c0,4.6,3.7,8.3,8.2,8.3c4.6,0,8.3-3.7,8.3-8.2
					s-3.7-8.3-8.2-8.3c0,0,0,0,0,0C278.6,137.7,274.9,141.3,274.9,145.9L274.9,145.9z M430.7,220.3h28.9V259
					c0,20.9-17,37.8-37.9,37.9H188c-20.9,0-37.8-17-37.8-37.9v-10.8H77.3c-5.1-0.2-9.1-4.5-9-9.6c0.2-4.9,4.1-8.8,9-9h188.9
					c5.1-9.3,16.8-12.7,26.1-7.6c9.3,5.1,12.7,16.8,7.6,26.1c-5.1,9.3-16.8,12.7-26.1,7.6c-3.2-1.8-5.8-4.4-7.6-7.6H179V259
					c0.1,4.9,4.1,8.9,9,9h233.7c4.9-0.1,8.9-4.1,9-9L430.7,220.3z M274.9,239c0,4.6,3.7,8.3,8.3,8.3c4.6,0,8.3-3.7,8.3-8.3
					s-3.7-8.3-8.3-8.3l0,0C278.6,230.8,274.9,234.4,274.9,239z M179,118.1h-28.8V77.9C150.2,57,167.1,40,188,40h233.7
					c20.9,0,37.8,17,37.9,37.9v12.2h72.8c5.1,0.2,9.1,4.5,9,9.6c-0.2,4.9-4.1,8.8-9,9H341.7c-5.1,9.3-16.8,12.7-26.1,7.6
					c-9.3-5.1-12.7-16.8-7.6-26.1s16.8-12.7,26.1-7.6c3.2,1.8,5.8,4.4,7.6,7.6h89V77.9c-0.1-4.9-4.1-8.9-9-9H188
					c-4.9,0.1-8.9,4.1-9,9V118.1z M333.1,99.3c0-4.6-3.7-8.3-8.2-8.3s-8.3,3.7-8.3,8.2s3.7,8.3,8.2,8.3c0,0,0,0,0,0
					C329.4,107.6,333.1,103.9,333.1,99.3z"/>
			</g>
		</g>
	</g>
</g>
</svg>
