<svg id="Layer_1" data-name="Layer 1" xmlns="http://www.w3.org/2000/svg" xmlns:xlink="http://www.w3.org/1999/xlink" viewBox="0 -25 300 300"><defs><style>.cls-1,.cls-75,.cls-77,.cls-79,.cls-80,.cls-81,.cls-82,.cls-83,.cls-84{fill:none;}.cls-2{clip-path:url(#clip-path);}.cls-10,.cls-11,.cls-12,.cls-13,.cls-14,.cls-15,.cls-16,.cls-17,.cls-18,.cls-19,.cls-20,.cls-21,.cls-22,.cls-23,.cls-24,.cls-25,.cls-26,.cls-27,.cls-28,.cls-29,.cls-3,.cls-30,.cls-31,.cls-32,.cls-33,.cls-34,.cls-35,.cls-36,.cls-37,.cls-38,.cls-39,.cls-4,.cls-40,.cls-41,.cls-42,.cls-43,.cls-44,.cls-45,.cls-46,.cls-47,.cls-48,.cls-49,.cls-5,.cls-50,.cls-51,.cls-52,.cls-53,.cls-54,.cls-55,.cls-56,.cls-57,.cls-58,.cls-59,.cls-6,.cls-60,.cls-61,.cls-62,.cls-63,.cls-64,.cls-65,.cls-66,.cls-67,.cls-68,.cls-69,.cls-7,.cls-70,.cls-71,.cls-72,.cls-8,.cls-9{fill:#00adad;}.cls-3{opacity:0.44;}.cls-10,.cls-11,.cls-12,.cls-13,.cls-14,.cls-15,.cls-16,.cls-17,.cls-18,.cls-19,.cls-20,.cls-21,.cls-22,.cls-23,.cls-24,.cls-25,.cls-26,.cls-27,.cls-28,.cls-29,.cls-3,.cls-30,.cls-31,.cls-32,.cls-33,.cls-34,.cls-35,.cls-36,.cls-38,.cls-39,.cls-4,.cls-40,.cls-41,.cls-42,.cls-43,.cls-44,.cls-45,.cls-46,.cls-47,.cls-48,.cls-49,.cls-5,.cls-50,.cls-51,.cls-52,.cls-53,.cls-54,.cls-55,.cls-56,.cls-57,.cls-58,.cls-59,.cls-6,.cls-60,.cls-61,.cls-62,.cls-63,.cls-64,.cls-65,.cls-66,.cls-67,.cls-68,.cls-69,.cls-7,.cls-70,.cls-71,.cls-72,.cls-8,.cls-9{isolation:isolate;}.cls-4{opacity:0.06;}.cls-5{opacity:0.31;}.cls-6{opacity:0.33;}.cls-7{opacity:0.56;}.cls-8{opacity:0.29;}.cls-9{opacity:0.23;}.cls-10{opacity:0.59;}.cls-11{opacity:0.54;}.cls-12{opacity:0.69;}.cls-13{opacity:0.41;}.cls-14{opacity:0.34;}.cls-15{opacity:0.46;}.cls-16,.cls-74{opacity:0.2;}.cls-17{opacity:0.61;}.cls-18{opacity:0.02;}.cls-19{opacity:0.1;}.cls-20{opacity:0.19;}.cls-21{opacity:0.43;}.cls-22{opacity:0.35;}.cls-23{opacity:0.52;}.cls-24{opacity:0.04;}.cls-25{opacity:0.12;}.cls-26{opacity:0.15;}.cls-27{opacity:0.66;}.cls-28{opacity:0.36;}.cls-29{opacity:0.26;}.cls-30{opacity:0.05;}.cls-31{opacity:0.03;}.cls-32{opacity:0.14;}.cls-33{opacity:0.63;}.cls-34{opacity:0.24;}.cls-35{opacity:0.13;}.cls-36{opacity:0.17;}.cls-37{fill-opacity:0;}.cls-38{opacity:0.37;}.cls-39{opacity:0.53;}.cls-40{opacity:0.01;}.cls-41,.cls-78{opacity:0.3;}.cls-42{opacity:0.67;}.cls-43{opacity:0.51;}.cls-44{opacity:0.49;}.cls-45{opacity:0.11;}.cls-46{opacity:0.22;}.cls-47{opacity:0.65;}.cls-48{opacity:0.55;}.cls-49{opacity:0.58;}.cls-50{opacity:0.7;}.cls-51{opacity:0.45;}.cls-52{opacity:0.62;}.cls-53{opacity:0.6;}.cls-54,.cls-76{opacity:0.25;}.cls-55{opacity:0.16;}.cls-56{opacity:0.27;}.cls-57{opacity:0.08;}.cls-58{opacity:0.4;}.cls-59{opacity:0.64;}.cls-60{opacity:0.47;}.cls-61{opacity:0.32;}.cls-62{opacity:0.38;}.cls-63{opacity:0.68;}.cls-64{opacity:0.48;}.cls-65{opacity:0.5;}.cls-66{opacity:0.57;}.cls-67{opacity:0.07;}.cls-68{opacity:0.28;}.cls-69{opacity:0.42;}.cls-70{opacity:0.21;}.cls-71{opacity:0.39;}.cls-72{opacity:0.18;}.cls-73{fill:#d1d1d1;}.cls-75{stroke:#7ed1e2;stroke-width:7px;}.cls-75,.cls-77,.cls-79,.cls-80,.cls-81,.cls-82,.cls-83,.cls-84{stroke-linecap:round;stroke-linejoin:round;}.cls-77{stroke:#64cade;stroke-width:6px;}.cls-79,.cls-80{stroke:#00bad5;}.cls-79{stroke-width:5px;}.cls-80{stroke-width:4px;}.cls-81{stroke:#31c2d9;stroke-width:3.25px;}.cls-82{stroke:#63cade;stroke-width:2.5px;}.cls-83{stroke:#8fd6e5;stroke-width:1.65px;}.cls-84{stroke:#c3e7f0;stroke-width:0.65px;}</style><clipPath id="clip-path" transform="translate(0 0.01)"><path class="cls-1" d="M241.16,101.18c1.6-62.65-83-88.82-111.76-28.68A42,42,0,0,0,96.8,60.68C80.13,62,66.51,73.1,60.51,88c-58.59-7.7-72.94,80.83-.12,80.83h68.77v18h-9.65l19.27,33.36L158,186.87h-9.53v-18h0v-21.3h-9.6l19.26-33.36,19.26,33.36h-9.6V168.9h92.38C304.45,168.9,303.51,93.19,241.16,101.18Z"/></clipPath></defs><title>Asset 1cloudd</title><g id="Layer_2" data-name="Layer 2"><g id="Layer_1-2" data-name="Layer 1-2"><g class="cls-2"><polygon class="cls-3" points="122.17 134.45 122.04 134.01 127.6 131.75 126.91 132.76 126.7 132.61 124.39 133.55 125.13 133.41 125.22 133.87 122.17 134.45"/><path class="cls-4" d="M127.62,133.16a1.05,1.05,0,1,1-.28-1.46,1,1,0,0,1,.34,1.37Z" transform="translate(0 0.01)"/><path class="cls-5" d="M125.32,134.67a1.05,1.05,0,0,0-.39-2.07h0a1.05,1.05,0,0,0,.39,2.07Z" transform="translate(0 0.01)"/><polygon class="cls-6" points="52.89 135.88 59.09 94.72 74.84 98.71 74.72 99.17 59.47 95.3 53.68 133.74 75.02 99.91 75.41 100.15 52.89 135.88"/><path class="cls-7" d="M74.29,99.5a1.06,1.06,0,0,1,1.46-.33,1.05,1.05,0,0,1,.32,1.45,1.05,1.05,0,0,1-1.78-1.12Z" transform="translate(0 0.01)"/><path class="cls-8" d="M74.51,99.93a1.05,1.05,0,1,0-.76-1.28,1,1,0,0,0,.66,1.25Z" transform="translate(0 0.01)"/><polygon class="cls-9" points="52.93 134.94 53.09 134.69 75.02 99.91 75.41 100.15 53.65 134.67 76.33 141.54 75.53 100.19 76 100.18 76.81 142.18 76.5 142.08 52.93 134.94"/><path class="cls-10" d="M74.71,100.24a1.06,1.06,0,1,1,0,.21A.74.74,0,0,1,74.71,100.24Z" transform="translate(0 0.01)"/><path class="cls-4" d="M76.07,100.62a1,1,0,1,0-1.45.32,1.05,1.05,0,0,0,1.45-.32Z" transform="translate(0 0.01)"/><polygon class="cls-11" points="59.24 142.3 52.61 134.36 77.87 142.01 61.07 143.09 61.04 142.62 75.27 141.71 53.97 135.26 59.6 142 59.24 142.3"/><path class="cls-12" d="M61.17,143.89a1.05,1.05,0,0,1-1.12-1v0a1.08,1.08,0,0,1,1-1.12,1,1,0,0,1,1.1.88.49.49,0,0,1,0,.12,1.05,1.05,0,0,1-1,1.12Z" transform="translate(0 0.01)"/><path class="cls-13" d="M58.57,142.77A1,1,0,0,0,60,143l.08-.07a1.05,1.05,0,1,0-1.34-1.62,1,1,0,0,0-.21,1.4Z" transform="translate(0 0.01)"/><polygon class="cls-14" points="0 83.37 37.38 67.25 37.19 66.82 0 82.86 0 83.37"/><polygon class="cls-14" points="37.95 67.64 37.12 116.57 0 96.41 0 96.94 37.57 117.34 38.42 67.65 37.95 67.64"/><path class="cls-15" d="M37.13,67.66a1.05,1.05,0,1,1,1,1.07h0A1.05,1.05,0,0,1,37.13,67.66Z" transform="translate(0 0.01)"/><path class="cls-16" d="M37.65,68a1.05,1.05,0,1,0-1.38-.55,1.05,1.05,0,0,0,1.38.55Z" transform="translate(0 0.01)"/><polygon class="cls-17" points="0 96.41 0 96.94 36.83 116.94 0 134.44 0 134.96 37.86 116.97 0 96.41"/><polygon class="cls-18" points="37.1 117.53 37.11 116.95 37.98 65.95 58.87 94.07 58.5 94.35 38.42 67.33 37.59 116.38 58.41 95.55 58.74 95.88 37.1 117.53"/><path class="cls-19" d="M57.79,95a1.05,1.05,0,1,1,0,1.49A1.06,1.06,0,0,1,57.79,95Z" transform="translate(0 0.01)"/><path class="cls-20" d="M57.81,94.78A1,1,0,1,0,58,93.31a1.05,1.05,0,0,0-.21,1.47Z" transform="translate(0 0.01)"/><polygon class="cls-21" points="53.44 135.33 37.03 116.94 58.41 95.55 58.74 95.88 37.67 116.96 53.13 134.28 58.9 95.96 59.36 96.03 53.44 135.33"/><path class="cls-22" d="M58.08,95.88a1.05,1.05,0,1,1,.89,1.2,1.06,1.06,0,0,1-.89-1.2Z" transform="translate(0 0.01)"/><path class="cls-23" d="M59.28,96.49a1.05,1.05,0,1,0-1.49,0A1.06,1.06,0,0,0,59.28,96.49Z" transform="translate(0 0.01)"/><path class="cls-24" d="M123.41,196.83l-5.17-11.73.36-.16.29-.26,11.71,13.11Zm-4.55-11.49,4.87,11.06,5.68.76Z" transform="translate(0 0.01)"/><path class="cls-25" d="M117.51,185.47a1,1,0,0,1,.54-1.38,1.06,1.06,0,0,1,1.39.54,1,1,0,0,1-.54,1.38,1,1,0,0,1-1.34-.44A.47.47,0,0,1,117.51,185.47Z" transform="translate(0 0.01)"/><path class="cls-10" d="M119.51,184.17a1.06,1.06,0,1,0-.09,1.49h0A1.07,1.07,0,0,0,119.51,184.17Z" transform="translate(0 0.01)"/><polygon class="cls-26" points="130.02 197.86 129.83 197.65 118.55 185 118.89 184.69 130 197.13 143.7 179.45 119.08 184.14 118.99 183.68 144.83 178.76 130.02 197.86"/><path class="cls-27" d="M119.28,184.92a1,1,0,1,1,.11,0Z" transform="translate(0 0.01)"/><path class="cls-27" d="M119.51,184.17a1.06,1.06,0,1,0-.09,1.49h0A1.07,1.07,0,0,0,119.51,184.17Z" transform="translate(0 0.01)"/><polygon class="cls-28" points="105.1 218.76 123.67 196.88 129.49 197.66 106.58 218.76 107.27 218.76 130.53 197.33 123.61 196.4 123.48 196.38 104.48 218.76 105.1 218.76"/><polygon class="cls-29" points="130.18 197.65 129.82 197.35 143.47 179.75 143.84 180.04 132.74 194.35 146.99 179.7 145.22 179.47 145.28 179.01 147.97 179.36 130.18 197.65"/><path class="cls-9" d="M145.16,180.27a1,1,0,0,1-.79-1.17,1,1,0,0,1,2,.27,1,1,0,0,1-1.08.92Z" transform="translate(0 0.01)"/><path class="cls-30" d="M144.45,180.57a1.06,1.06,0,1,0-1.55-1.45l-.12.16a1.06,1.06,0,0,0,1.67,1.29Z" transform="translate(0 0.01)"/><polygon class="cls-31" points="3.12 57.87 0 60.07 0 60.64 3.39 58.25 3.12 57.87"/><path class="cls-32" d="M2.6,57.21a1.06,1.06,0,0,1,1.47.26,1,1,0,0,1-.18,1.4l-.08.06a1,1,0,0,1-1.4-.17l-.06-.08A1.06,1.06,0,0,1,2.6,57.21Z" transform="translate(0 0.01)"/><path class="cls-33" d="M2.81,58.27A1.06,1.06,0,1,0,2,57,1.07,1.07,0,0,0,2.81,58.27Z" transform="translate(0 0.01)"/><polygon class="cls-4" points="0 60.64 3.35 58.28 0 64.16 0 65.1 3.78 58.46 3.38 58.24 3.12 57.87 0 60.07 0 60.64"/><path class="cls-33" d="M2.6,57.21a1.06,1.06,0,0,1,1.47.26,1,1,0,0,1-.18,1.4l-.08.06a1,1,0,0,1-1.4-.17l-.06-.08A1.06,1.06,0,0,1,2.6,57.21Z" transform="translate(0 0.01)"/><path class="cls-34" d="M4.51,58.9a1,1,0,0,0-.3-1.38l-.09-.05a1.05,1.05,0,1,0-1,1.83A1,1,0,0,0,4.51,58.9Z" transform="translate(0 0.01)"/><polygon class="cls-35" points="0 65.1 3.78 58.46 3.37 58.23 0 64.16 0 65.1"/><polygon class="cls-35" points="0 82.86 0 83.37 38.91 66.59 5.09 57.51 4.97 57.96 37.49 66.7 0 82.86"/><path class="cls-3" d="M2.63,57.86a1.06,1.06,0,0,1,1.44-.39,1,1,0,0,1,.5,1.32l-.06.11a1,1,0,0,1-1.43.4,1.07,1.07,0,0,1-.46-1.43Z" transform="translate(0 0.01)"/><path class="cls-36" d="M5.36,56.72a1.05,1.05,0,0,0-1.29.74h0a1.05,1.05,0,1,0,1.33-.74Z" transform="translate(0 0.01)"/><polygon class="cls-26" points="107.27 218.76 129.7 198.09 127.15 218.76 127.62 218.76 130.24 197.52 130.32 196.89 106.58 218.76 107.27 218.76"/><path class="cls-37" d="M45.82,183.5l-.07-.42-.21-.36,22.8-13.49L74.61,179Zm22.37-13.64L46,183l27.87-4.32Z" transform="translate(0 0.01)"/><path class="cls-11" d="M46.24,183.8a1.06,1.06,0,1,1,.37-1.45h0A1.07,1.07,0,0,1,46.24,183.8Z" transform="translate(0 0.01)"/><path class="cls-38" d="M45.67,182.22a1.07,1.07,0,0,0-.88,1.21,1,1,0,1,0,.88-1.21Z" transform="translate(0 0.01)"/><polygon class="cls-16" points="130.78 198.17 131 197.76 154.11 210.15 147.35 180.01 130.87 196.94 130.54 196.61 147.61 179.06 154.78 211.04 130.78 198.17"/><path class="cls-39" d="M131.51,197.46a1.06,1.06,0,0,1-1.49,0,1,1,0,0,1,0-1.48,1,1,0,0,1,1.41-.07l.07.07a1,1,0,0,1,.08,1.41Z" transform="translate(0 0.01)"/><path class="cls-31" d="M131.43,197a1,1,0,1,0,.09.05Z" transform="translate(0 0.01)"/><polygon class="cls-5" points="127.62 218.76 130.2 197.86 154.11 210.68 148.61 218.76 149.17 218.76 154.64 210.73 154.78 210.51 130.12 197.29 129.82 197.13 127.15 218.76 127.62 218.76"/><polygon class="cls-31" points="154.31 211.06 154.22 210.64 147.47 180.56 147.93 180.46 154.58 210.13 165.5 199.02 147.99 180.42 148.33 180.1 166.14 199.03 154.31 211.06"/><path class="cls-40" d="M147.43,181a1,1,0,0,1,0-1.41.3.3,0,0,1,.08-.08,1.05,1.05,0,1,1,0,1.49Z" transform="translate(0 0.01)"/><path class="cls-41" d="M148.73,180.32a1,1,0,1,0-2,.45,1,1,0,0,0,1.25.8h0a1,1,0,0,0,.81-1.16A.29.29,0,0,0,148.73,180.32Z" transform="translate(0 0.01)"/><polygon class="cls-42" points="149.17 218.76 154.33 211.17 155.99 218.76 156.47 218.76 154.67 210.54 154.56 210.01 148.61 218.76 149.17 218.76"/><path class="cls-31" d="M121.34,134.78l9.32-11.14.28.23.31.15-4.11,8.4Zm9.09-10.13-7.53,9,3.9-1.58Z" transform="translate(0 0.01)"/><path class="cls-43" d="M130,123.15a1.05,1.05,0,0,1,1.49-.12h0a1.05,1.05,0,1,1-1.35,1.62h0a1.07,1.07,0,0,1-.16-1.5Z" transform="translate(0 0.01)"/><path class="cls-44" d="M132,124.43a1.06,1.06,0,0,0-.46-1.39,1,1,0,1,0,.49,1.41Z" transform="translate(0 0.01)"/><polygon class="cls-23" points="199.31 178.29 192.94 165.64 193.36 165.43 199.53 177.69 213.31 172.1 193.56 165.2 193.72 164.76 214.63 172.07 199.31 178.29"/><path class="cls-5" d="M192.23,166a1.05,1.05,0,1,1,1.42.47,1.07,1.07,0,0,1-1.42-.47Z" transform="translate(0 0.01)"/><path class="cls-33" d="M194,164a1.05,1.05,0,1,0,.64,1.34,1,1,0,0,0-.54-1.31Z" transform="translate(0 0.01)"/><path class="cls-27" d="M44.28,132.5v-.1l-6.77-14.46.35-.16.28-.25L54,135.24Zm-6.07-14.24,6.41,13.84,8,2.25Z" transform="translate(0 0.01)"/><path class="cls-45" d="M37.26,118.43A1.06,1.06,0,1,1,38.83,117a1.06,1.06,0,0,1-.07,1.49h0A1.06,1.06,0,0,1,37.26,118.43Z" transform="translate(0 0.01)"/><path class="cls-27" d="M38.74,117.45a1.05,1.05,0,0,0-1.4-.5,1,1,0,0,0,.89,1.9A1.07,1.07,0,0,0,38.74,117.45Z" transform="translate(0 0.01)"/><polygon class="cls-46" points="0 134.44 0 134.96 35.43 118.12 4.47 141.75 0 140.11 0 140.61 4.55 142.28 39.26 115.79 0 134.44"/><polygon class="cls-28" points="3.87 142.21 4.37 141.83 37.2 116.77 37.52 117.11 13.82 141.93 13.48 141.61 35.13 118.94 5.16 141.82 11.98 142.21 11.95 142.67 3.87 142.21"/><path class="cls-35" d="M14.45,142.45a1.05,1.05,0,0,1-1.75-1.17,1.31,1.31,0,0,1,.23-.24,1,1,0,0,1,1.41-.07l.07.07A1.06,1.06,0,0,1,14.45,142.45Z" transform="translate(0 0.01)"/><path class="cls-5" d="M11.85,143.47a1.05,1.05,0,1,0-1-1.11,1,1,0,0,0,.88,1.1Z" transform="translate(0 0.01)"/><polygon class="cls-39" points="93.98 168.1 76.94 142.82 77.32 142.56 94.12 167.47 120.55 151.23 77.5 142.29 77.6 141.84 121.79 151.01 93.98 168.1"/><path class="cls-39" d="M76.28,143.31a1.06,1.06,0,0,1,.27-1.47,1.06,1.06,0,1,1,1.2,1.74h0A1.06,1.06,0,0,1,76.28,143.31Z" transform="translate(0 0.01)"/><path class="cls-26" d="M77.81,141a1.05,1.05,0,1,0,.81,1.24A1,1,0,0,0,77.81,141Z" transform="translate(0 0.01)"/><path class="cls-47" d="M77.51,142.28l.08-.41-.07-.42,44.86-7.52-1,17.46Zm44.37-7.79-44,7.38,43.12,9Z" transform="translate(0 0.01)"/><path class="cls-48" d="M77.78,142.71a1,1,0,1,1,.1,0Z" transform="translate(0 0.01)"/><path class="cls-32" d="M77.81,141a1.05,1.05,0,1,0,.81,1.24A1,1,0,0,0,77.81,141Z" transform="translate(0 0.01)"/><polygon class="cls-49" points="94.74 168.54 95.01 168.15 117.86 183.69 120.89 151.56 95.02 167.46 94.78 167.06 121.44 150.68 118.25 184.51 94.74 168.54"/><path class="cls-39" d="M94.32,169.23a1.05,1.05,0,1,1,1.19-1.74h0a1.05,1.05,0,1,1-1.19,1.74Z" transform="translate(0 0.01)"/><path class="cls-50" d="M94.39,166.32a1,1,0,0,0-.34,1.44h0a1.05,1.05,0,0,0,1.79-1.1h0A1.07,1.07,0,0,0,94.39,166.32Z" transform="translate(0 0.01)"/><polygon class="cls-26" points="120.82 153.23 121.84 135.21 122.3 135.23 121.52 149.01 125.83 133.75 123.15 134.26 123.06 133.81 126.48 133.15 120.82 153.23"/><path class="cls-35" d="M123.35,135a1,1,0,1,1,.11,0Z" transform="translate(0 0.01)"/><path class="cls-23" d="M123.11,135.32a1,1,0,0,0-.88-1.1h-.12a1.05,1.05,0,1,0,1,1.11Z" transform="translate(0 0.01)"/><polygon class="cls-36" points="119.08 184.14 118.99 183.68 143.83 178.95 121.35 151.7 118.38 183.13 117.92 183.08 120.99 150.54 144.69 179.26 119.08 184.14"/><path class="cls-41" d="M119.28,184.92a1,1,0,1,1,.11,0Z" transform="translate(0 0.01)"/><path class="cls-51" d="M117.1,182.94a1.05,1.05,0,1,0,1.15-1,1.06,1.06,0,0,0-1.15,1Z" transform="translate(0 0.01)"/><polygon class="cls-15" points="217.53 209.93 182.33 184.24 182.6 183.87 216.17 208.36 203.65 184.7 182.65 183.75 182.67 183.28 203.93 184.24 204 184.36 217.53 209.93"/><path class="cls-26" d="M182.66,184.55a1.05,1.05,0,1,1,1.1-1,1,1,0,0,1-1,1Z" transform="translate(0 0.01)"/><path class="cls-52" d="M183.13,183.22a1,1,0,1,0-1.23,1.7,1,1,0,0,0,1.46-.23,1.05,1.05,0,0,0-.23-1.47Z" transform="translate(0 0.01)"/><polygon class="cls-53" points="217.22 210.34 204.05 185.46 204.47 185.25 216.48 207.95 213.67 182.83 204.82 184.51 204.73 184.05 214.07 182.27 217.22 210.34"/><path class="cls-54" d="M205,185.29a1,1,0,1,1,.1,0Z" transform="translate(0 0.01)"/><path class="cls-33" d="M205.21,184.9a1.05,1.05,0,1,0-.44,1.42,1,1,0,0,0,.49-1.33Z" transform="translate(0 0.01)"/><polygon class="cls-13" points="180.36 151.79 186.01 130.02 199.42 137.46 199.2 137.87 186.31 130.72 181.12 150.72 199.22 138.51 199.49 138.9 180.36 151.79"/><path class="cls-49" d="M198.72,137.85a1.05,1.05,0,1,1-.28,1.46,1,1,0,0,1,.19-1.4Z" transform="translate(0 0.01)"/><path class="cls-7" d="M198.75,138.54a1,1,0,1,0-.41-1.43,1.05,1.05,0,0,0,.41,1.43Z" transform="translate(0 0.01)"/><polygon class="cls-19" points="192.81 165.12 180.39 151.21 180.61 151.06 199.22 138.51 199.48 138.9 181.09 151.3 192.59 164.17 199.69 139.04 200.13 139.17 192.81 165.12"/><path class="cls-5" d="M198.88,138.86a1.05,1.05,0,1,1,.73,1.3A1.06,1.06,0,0,1,198.88,138.86Z" transform="translate(0 0.01)"/><path class="cls-20" d="M199.9,139.59a1.05,1.05,0,1,0-1.46-.28,1,1,0,0,0,1.37.34Z" transform="translate(0 0.01)"/><polygon class="cls-20" points="76.35 142.51 75.53 100.19 76 100.18 76.79 141.22 99.02 113.55 76.48 99.9 76.72 99.5 99.72 113.43 99.55 113.63 76.35 142.51"/><path class="cls-39" d="M74.71,100.24a1.06,1.06,0,1,1,0,.21A.74.74,0,0,1,74.71,100.24Z" transform="translate(0 0.01)"/><path class="cls-47" d="M77.19,98.82a1.05,1.05,0,0,0-1.09,1.8,1.07,1.07,0,0,0,1.41-.36,1,1,0,0,0-.25-1.39A.18.18,0,0,0,77.19,98.82Z" transform="translate(0 0.01)"/><polygon class="cls-22" points="76 142.19 98.56 114.12 98.92 114.41 77.14 141.53 121.61 134.07 99.95 114.33 100.26 113.99 122.64 134.37 76 142.19"/><path class="cls-55" d="M97.89,113.63a1,1,0,1,1,1.75,1.16,1,1,0,0,1-.13.16,1.05,1.05,0,0,1-1.64-1.32h0Z" transform="translate(0 0.01)"/><path class="cls-36" d="M100.85,113.4a1,1,0,0,0-1.41,0,.23.23,0,0,0-.07.07,1.05,1.05,0,0,0,1.55,1.42,1.06,1.06,0,0,0-.07-1.49Z" transform="translate(0 0.01)"/><path class="cls-52" d="M112.76,189.61,94.51,168.68l.27-.24.2-.3L118.42,184ZM95.4,169l17.38,20,4.9-4.81Z" transform="translate(0 0.01)"/><path class="cls-37" d="M94.32,169.23a1.05,1.05,0,1,1,1.19-1.74h0a1.05,1.05,0,1,1-1.19,1.74Z" transform="translate(0 0.01)"/><path class="cls-56" d="M95.51,167.87a1.05,1.05,0,1,0-.1,1.49,1.07,1.07,0,0,0,.1-1.49Z" transform="translate(0 0.01)"/><polygon class="cls-18" points="86.05 203.81 85.44 200.57 112.68 189.07 112.89 189.49 87.45 204.44 87.21 204.04 109.61 190.87 85.97 200.86 86.51 203.72 86.05 203.81"/><path class="cls-57" d="M87.91,205.11a1.06,1.06,0,1,1,.36-1.45h0A1.06,1.06,0,0,1,87.91,205.11Z" transform="translate(0 0.01)"/><path class="cls-45" d="M85.24,203.9a1,1,0,1,0,0-.1S85.23,203.87,85.24,203.9Z" transform="translate(0 0.01)"/><polygon class="cls-7" points="93.21 218.76 86.77 204.84 112.3 189.83 100.54 218.76 101.05 218.76 113.25 188.74 86.35 204.55 86.17 204.65 92.7 218.76 93.21 218.76"/><polygon class="cls-58" points="112.41 189.32 117.18 184.63 117.5 184.97 113.14 189.25 123.03 195.98 118.24 185.11 118.67 184.92 124.12 197.28 112.41 189.32"/><path class="cls-59" d="M117.51,185.47a1,1,0,0,1,.54-1.38,1.06,1.06,0,0,1,1.39.54,1,1,0,0,1-.54,1.38,1,1,0,0,1-1.34-.44A.47.47,0,0,1,117.51,185.47Z" transform="translate(0 0.01)"/><path class="cls-39" d="M118,185.57a1,1,0,0,0,.07-1.41l-.07-.07a1.05,1.05,0,0,0-1.49,1.48,1.06,1.06,0,0,0,1.49,0Z" transform="translate(0 0.01)"/><polygon class="cls-43" points="101.05 218.76 112.88 189.64 123.23 196.67 104.48 218.76 105.09 218.76 123.75 196.78 123.92 196.58 112.67 188.93 100.55 218.76 101.05 218.76"/><polygon class="cls-22" points="67.98 169.73 68.05 169.5 76.06 142.75 76.51 142.89 68.56 169.39 84.41 173.41 76.59 142.89 77.04 142.77 85.06 174.06 67.98 169.73"/><path class="cls-49" d="M75.26,142.55a1.05,1.05,0,1,1,.7,1.31,1,1,0,0,1-.73-1.21Z" transform="translate(0 0.01)"/><path class="cls-19" d="M77.85,142.61a1,1,0,1,0-2.09.16,1.12,1.12,0,0,0,.09.36,1.05,1.05,0,0,0,2-.52Z" transform="translate(0 0.01)"/><path class="cls-19" d="M84.59,174.09l-.08-.31-7.92-30.91.39-.1.34-.22,17,25.29Zm-7.46-31,7.75,30.25,8.84-5.65Z" transform="translate(0 0.01)"/><path class="cls-60" d="M76.28,143.31a1.06,1.06,0,0,1,.27-1.47,1.06,1.06,0,1,1,1.2,1.74h0A1.06,1.06,0,0,1,76.28,143.31Z" transform="translate(0 0.01)"/><path class="cls-30" d="M77.85,142.61a1,1,0,1,0-2.09.16,1.12,1.12,0,0,0,.09.36,1.05,1.05,0,0,0,2-.52Z" transform="translate(0 0.01)"/><polygon class="cls-29" points="73.49 178.16 67.75 169.19 85.41 173.67 75.22 178.64 75.02 178.23 84.06 173.8 68.78 169.93 73.88 177.91 73.49 178.16"/><path class="cls-34" d="M75.63,179.34a1,1,0,1,1,.48-1.41h0a1,1,0,0,1-.39,1.36Z" transform="translate(0 0.01)"/><path class="cls-46" d="M72.77,178.54a1,1,0,1,0,.32-1.45A1.05,1.05,0,0,0,72.77,178.54Z" transform="translate(0 0.01)"/><path class="cls-28" d="M85,199.92,73.9,178.76l11-5.4v.35l.93,26h-.47ZM74.51,179,85.4,199.69l-.89-25.6Z" transform="translate(0 0.01)"/><path class="cls-61" d="M86.71,199.61a1.05,1.05,0,1,1-1.1-1h0A1,1,0,0,1,86.71,199.61Z" transform="translate(0 0.01)"/><path class="cls-10" d="M84.28,200.26a1.05,1.05,0,1,0,.44-1.42,1.06,1.06,0,0,0-.44,1.42Z" transform="translate(0 0.01)"/><polygon class="cls-57" points="84.28 173.75 93.08 168.12 93.33 168.52 85.19 173.72 111.73 188.44 94.53 168.69 94.88 168.38 113.82 190.13 84.28 173.75"/><path class="cls-62" d="M93.94,169.25a1,1,0,0,1,1.57-1.38,1.05,1.05,0,1,1-1.59,1.38h0Z" transform="translate(0 0.01)"/><path class="cls-52" d="M93.73,169.22a1.05,1.05,0,0,0,.32-1.45,1.06,1.06,0,0,0-1.46-.32,1.05,1.05,0,0,0-.32,1.45A1.06,1.06,0,0,0,93.73,169.22Z" transform="translate(0 0.01)"/><polygon class="cls-63" points="85.43 199.72 84.49 173.33 113.31 189.31 86.71 200.54 86.53 200.11 112.24 189.26 84.98 174.14 85.9 199.71 85.43 199.72"/><path class="cls-3" d="M87.08,201.26a1.05,1.05,0,1,1-.82-1.94h0a1.05,1.05,0,0,1,.82,1.94Z" transform="translate(0 0.01)"/><path class="cls-20" d="M84.61,199.69a1.05,1.05,0,1,0,1-1.09h0A1,1,0,0,0,84.61,199.69Z" transform="translate(0 0.01)"/><polygon class="cls-34" points="213.64 182.74 213.72 173.08 214.19 173.09 214.11 182.36 234.5 186.32 214.66 172.84 214.92 172.45 236.64 187.22 213.64 182.74"/><path class="cls-38" d="M212.9,173.11a1.06,1.06,0,1,1,1.06,1.06h-.06A1.06,1.06,0,0,1,212.9,173.11Z" transform="translate(0 0.01)"/><path class="cls-10" d="M215.42,171.79a1.05,1.05,0,1,0-1.18,1.74h0a1.05,1.05,0,0,0,1.18-1.74Z" transform="translate(0 0.01)"/><polygon class="cls-55" points="216.68 209.71 213.75 183.57 214.22 183.52 217.02 208.58 235.14 186.92 214.81 182.97 214.9 182.51 236 186.62 216.68 209.71"/><path class="cls-37" d="M212.94,183.7a1.05,1.05,0,1,1,1.16.93,1,1,0,0,1-1.15-.83S212.94,183.74,212.94,183.7Z" transform="translate(0 0.01)"/><path class="cls-9" d="M215.1,181.7a1,1,0,1,0,.83,1.24,1,1,0,0,0-.83-1.24Z" transform="translate(0 0.01)"/><polygon class="cls-24" points="60.92 160.01 59.89 143.93 60.35 143.9 61.31 158.86 76.02 142.13 61.07 143.09 61.04 142.62 77.12 141.59 60.92 160.01"/><path class="cls-15" d="M61.17,143.89a1.05,1.05,0,0,1-1.12-1v0a1.08,1.08,0,0,1,1-1.12,1,1,0,0,1,1.1.88.49.49,0,0,1,0,.12,1.05,1.05,0,0,1-1,1.12Z" transform="translate(0 0.01)"/><path class="cls-53" d="M61.17,143.89a1.05,1.05,0,0,0-1.1-1h0a1,1,0,0,0-1,1s0,.08,0,.12a1.08,1.08,0,0,0,1.12,1,1.05,1.05,0,0,0,1-1.1Z" transform="translate(0 0.01)"/><path class="cls-9" d="M45.77,183.12l-.23-.4-.38-.25,16-23.43,7.49,10.61-.21.13Zm15.35-23.29L45.57,182.69l22.36-13.21Z" transform="translate(0 0.01)"/><path class="cls-53" d="M46.24,183.8a1.06,1.06,0,1,1,.37-1.45h0A1.07,1.07,0,0,1,46.24,183.8Z" transform="translate(0 0.01)"/><path class="cls-29" d="M44.51,182a1.06,1.06,0,0,0,.27,1.47,1.07,1.07,0,0,0,1.47-.28,1.06,1.06,0,0,0-.28-1.46,1,1,0,0,0-1.4.19Z" transform="translate(0 0.01)"/><path class="cls-20" d="M68.35,170l-7.53-10.67,14.91-17,.34.3.43.13Zm-6.94-10.6,6.77,9.6L76,142.82Z" transform="translate(0 0.01)"/><path class="cls-12" d="M75.26,142.55a1.05,1.05,0,1,1,.7,1.31,1,1,0,0,1-.73-1.21Z" transform="translate(0 0.01)"/><path class="cls-29" d="M76.66,143.33a1,1,0,0,0,0-1.41.23.23,0,0,0-.07-.07,1.05,1.05,0,0,0-1.39,1.58,1,1,0,0,0,1.41,0Z" transform="translate(0 0.01)"/><polygon class="cls-10" points="126.59 132.51 130.84 123.83 131.25 124.04 127.36 132 165.37 129.68 132.42 123.45 132.51 122.99 169.13 129.92 126.59 132.51"/><path class="cls-50" d="M130.08,123.5a1,1,0,0,1,1.32-.52l.11.06a1.05,1.05,0,1,1-1.4.48Z" transform="translate(0 0.01)"/><path class="cls-58" d="M132.71,122.18a1,1,0,1,0,.84,1.23A1.06,1.06,0,0,0,132.71,122.18Z" transform="translate(0 0.01)"/><path class="cls-64" d="M125.69,133.72l1.15-1.68H127l39.28-2.4v.5Zm1.41-1.25-.47.69L150.51,131Z" transform="translate(0 0.01)"/><path class="cls-46" d="M166.13,128.8a1.05,1.05,0,1,1-1,1.11,1,1,0,0,1,.88-1.1Z" transform="translate(0 0.01)"/><path class="cls-17" d="M166.29,130.93a1.07,1.07,0,0,0,1-1.14h0a1,1,0,1,0-1,1.14Z" transform="translate(0 0.01)"/><path class="cls-64" d="M120.8,151.53,126,133.22l40.26-3.58v.41l.17.37Zm5.54-17.87-4.81,17,44.4-20.54Z" transform="translate(0 0.01)"/><path class="cls-7" d="M166.11,128.83a1.05,1.05,0,0,1,1.14,1v0a1.07,1.07,0,0,1-1,1.14h0a1.05,1.05,0,1,1-.18-2.1h0Z" transform="translate(0 0.01)"/><path class="cls-35" d="M166.73,131.18a1,1,0,0,0,.56-1.3.36.36,0,0,0,0-.09,1.06,1.06,0,0,0-1.4-.52,1,1,0,0,0-.56,1.3s0,.07.05.1a1,1,0,0,0,1.3.55Z" transform="translate(0 0.01)"/><polygon class="cls-65" points="144.32 179.54 144.08 179.25 120.8 151.04 166.25 130.01 166.44 130.43 121.54 151.2 144.21 178.67 166.62 130.61 167.04 130.8 144.32 179.54"/><path class="cls-11" d="M165.85,129.27a1.06,1.06,0,0,1,1.4.52,1,1,0,0,1-.43,1.35l-.09,0a1,1,0,0,1-1.35-.42l0-.09a1,1,0,0,1,.41-1.35Z" transform="translate(0 0.01)"/><path class="cls-4" d="M167.76,131.18a1.05,1.05,0,1,0-1.4.51,1.05,1.05,0,0,0,1.4-.51Z" transform="translate(0 0.01)"/><path class="cls-60" d="M143.92,179.28l.13-.29,22.56-48.4.48.21-19.46,49Zm20.14-42.1L144.61,178.9l2.72.37Z" transform="translate(0 0.01)"/><path class="cls-66" d="M165.85,130.29a1.05,1.05,0,0,1,1.4-.5,1,1,0,0,1-.89,1.9,1,1,0,0,1-.56-1.3Z" transform="translate(0 0.01)"/><path class="cls-48" d="M167.84,131.15a1.07,1.07,0,1,0-1.39.61,1.07,1.07,0,0,0,1.39-.61Z" transform="translate(0 0.01)"/><polygon class="cls-41" points="146.92 180.32 166.66 130.64 167.1 130.81 148.04 178.75 180.44 151.21 167.59 130.77 167.98 130.52 181.05 151.3 180.89 151.43 146.92 180.32"/><path class="cls-42" d="M165.88,130.37a1.05,1.05,0,1,1,.63,1.37,1,1,0,0,1-.68-1.24C165.85,130.45,165.86,130.41,165.88,130.37Z" transform="translate(0 0.01)"/><path class="cls-56" d="M168.7,130.12a1.05,1.05,0,1,0-.33,1.45,1,1,0,0,0,.39-1.36Z" transform="translate(0 0.01)"/><polygon class="cls-3" points="180.83 151.84 166.82 129.55 185.17 130.11 185.16 130.57 167.68 130.04 180.65 150.67 185.69 131.28 186.14 131.4 180.83 151.84"/><path class="cls-59" d="M184.88,131.11a1,1,0,0,1,1.18-.78l.1,0a1,1,0,1,1-1.28.75Z" transform="translate(0 0.01)"/><path class="cls-54" d="M185.08,131.38a1.06,1.06,0,1,0-1-1.12v0A1,1,0,0,0,185.08,131.38Z" transform="translate(0 0.01)"/><polygon class="cls-60" points="165.77 199.4 177.06 218.76 177.59 218.76 165.87 198.64 154.98 209.72 155.31 210.04 165.77 199.4"/><polygon class="cls-60" points="155.4 210.96 155.14 211.35 166.05 218.76 166.88 218.76 155.4 210.96"/><path class="cls-47" d="M155.93,210.57a1.05,1.05,0,1,1,0-1.49A1.06,1.06,0,0,1,155.93,210.57Z" transform="translate(0 0.01)"/><path class="cls-55" d="M155.9,210.3a1.05,1.05,0,1,0,.28,1.46,1,1,0,0,0-.19-1.4Z" transform="translate(0 0.01)"/><polygon class="cls-24" points="166.88 218.76 155.4 210.96 155.14 211.35 166.05 218.76 166.88 218.76"/><polygon class="cls-24" points="156.47 218.76 154.89 211.52 154.43 211.62 155.99 218.76 156.47 218.76"/><path class="cls-11" d="M153.64,211.83a1,1,0,0,1,.7-1.23l.1,0a1.05,1.05,0,0,1,.45,2.06h0a1.05,1.05,0,0,1-1.25-.8Z" transform="translate(0 0.01)"/><path class="cls-52" d="M155.9,210.3a1.05,1.05,0,1,0,.28,1.46,1,1,0,0,0-.19-1.4Z" transform="translate(0 0.01)"/><polygon class="cls-57" points="181.46 183.99 183.5 218.76 183.97 218.76 181.86 182.94 166.37 198.16 166.7 198.49 181.46 183.99"/><polygon class="cls-57" points="177.59 218.76 166.53 199.77 166.12 200 177.06 218.76 177.59 218.76"/><path class="cls-39" d="M167.31,199a1.05,1.05,0,1,1,0-1.49A1.06,1.06,0,0,1,167.31,199Z" transform="translate(0 0.01)"/><path class="cls-46" d="M167.26,199.39a1,1,0,1,0-.38,1.44A1.06,1.06,0,0,0,167.26,199.39Z" transform="translate(0 0.01)"/><polygon class="cls-19" points="202.17 218.76 203.01 218.76 217.26 209.15 182.6 183.87 182.33 184.24 216.44 209.14 202.17 218.76"/><polygon class="cls-19" points="183.97 218.76 181.95 184.45 181.49 184.48 183.5 218.76 183.97 218.76"/><path class="cls-35" d="M181.89,184.92a1,1,0,1,1,1.24-1.69,1,1,0,0,1,.23,1.46A1,1,0,0,1,182,185Z" transform="translate(0 0.01)"/><path class="cls-8" d="M182.77,184.44a1.05,1.05,0,1,0-1,1.11,1.05,1.05,0,0,0,1-1.11Z" transform="translate(0 0.01)"/><polygon class="cls-45" points="203 218.76 216.15 209.9 215.89 209.51 202.17 218.76 203 218.76"/><polygon class="cls-45" points="216.65 218.76 217.04 210.15 216.57 210.13 216.18 218.76 216.65 218.76"/><path class="cls-67" d="M215.75,210.13a1.05,1.05,0,1,1,1,1.1,1.05,1.05,0,0,1-1-1.1Z" transform="translate(0 0.01)"/><path class="cls-63" d="M216.56,210.59a1,1,0,1,0-1.46-.28,1,1,0,0,0,1.37.34Z" transform="translate(0 0.01)"/><path class="cls-60" d="M182.68,183.55v-.31l-.1-.3,17-5.24,1.84,3.29Zm16.63-5.29-14.86,4.58,16.18-2.22Z" transform="translate(0 0.01)"/><path class="cls-48" d="M183,184.15a1,1,0,1,1-.6-2,1,1,0,0,1,1.3.69,1,1,0,0,1-.59,1.29Z" transform="translate(0 0.01)"/><path class="cls-44" d="M182.56,182.27a1,1,0,1,0,.1,0Z" transform="translate(0 0.01)"/><path class="cls-34" d="M182.65,183.73v-.64l18.49-2.53,3.17,4.15ZM200.9,181l-16.67,2.28,19.07.86Z" transform="translate(0 0.01)"/><path class="cls-52" d="M182.66,184.55a1.05,1.05,0,1,1,1.1-1,1,1,0,0,1-1,1Z" transform="translate(0 0.01)"/><path class="cls-49" d="M182.56,182.27a1,1,0,1,0,.1,0Z" transform="translate(0 0.01)"/><polygon class="cls-16" points="200.93 181.16 199.71 178.98 200.11 178.75 201.09 180.49 211.98 173.14 200.43 177.83 200.26 177.4 215.95 171.03 200.93 181.16"/><path class="cls-42" d="M200.79,178.56a1,1,0,0,1-1.37-.58,1.06,1.06,0,0,1,.59-1.37,1.05,1.05,0,0,1,1.36.58,1,1,0,0,1-.48,1.33Z" transform="translate(0 0.01)"/><path class="cls-37" d="M200.85,178.38a1,1,0,0,0-1.34-.45l-.09,0a1,1,0,1,0,1.43.4Z" transform="translate(0 0.01)"/><polygon class="cls-68" points="203 183.82 200.48 180.52 215.33 182.51 204.82 184.51 204.73 184.05 212.42 182.59 201.53 181.13 203.37 183.54 203 183.82"/><path class="cls-59" d="M205,185.29a1,1,0,1,1,.1,0Z" transform="translate(0 0.01)"/><path class="cls-6" d="M202.31,184.26a1.06,1.06,0,0,0,1.48.21A1.07,1.07,0,0,0,204,183a1,1,0,0,0-1.48-.2h0A1.06,1.06,0,0,0,202.31,184.26Z" transform="translate(0 0.01)"/><polygon class="cls-3" points="200.37 180.97 213.01 172.45 213.27 172.84 201.64 180.67 213.64 182.28 213.72 173.08 214.19 173.09 214.1 182.82 213.84 182.78 200.37 180.97"/><path class="cls-21" d="M212.9,173.11a1.06,1.06,0,1,1,1.06,1.06h-.06A1.06,1.06,0,0,1,212.9,173.11Z" transform="translate(0 0.01)"/><path class="cls-7" d="M213.68,173.53a1.05,1.05,0,1,0-1.46-.28,1,1,0,0,0,1.37.34Z" transform="translate(0 0.01)"/><path class="cls-33" d="M148.51,179.5l-.11-.45-.3-.35,32.92-28-1.44,20.83h-.16Zm32-27.72L148.4,179l30.73-7.88Z" transform="translate(0 0.01)"/><path class="cls-64" d="M149,179.64a1,1,0,0,1-1.22-1.59,1,1,0,0,1,1.34.11,1,1,0,0,1,0,1.41Z" transform="translate(0 0.01)"/><path class="cls-58" d="M148.24,178.24a1.05,1.05,0,0,0,.52,2,1,1,0,1,0-.16-2.09A1.12,1.12,0,0,0,148.24,178.24Z" transform="translate(0 0.01)"/><polygon class="cls-10" points="179.09 171.76 180.44 152.24 180.91 152.27 179.62 170.98 192.32 164.57 181.24 152.16 181.58 151.85 193.07 164.72 179.09 171.76"/><path class="cls-37" d="M180.66,152.73a1.05,1.05,0,0,1,1.56-1.41,1.06,1.06,0,0,1-.08,1.49h0a1,1,0,0,1-1.41,0Z" transform="translate(0 0.01)"/><path class="cls-47" d="M181.72,152.36a1.05,1.05,0,0,0-1-1.1,1.05,1.05,0,0,0-.12,2.1,1.05,1.05,0,0,0,1.12-1Z" transform="translate(0 0.01)"/><polygon class="cls-35" points="178.75 171.42 191.7 164.89 191.91 165.3 179.96 171.32 198.96 177.59 192.94 165.64 193.36 165.43 199.88 178.39 178.75 171.42"/><path class="cls-30" d="M192.23,166a1.05,1.05,0,1,1,1.42.47,1.07,1.07,0,0,1-1.42-.47Z" transform="translate(0 0.01)"/><path class="cls-35" d="M192.23,166a1.05,1.05,0,1,0-.95-1.88h0a1,1,0,0,0-.51,1.32l0,.09a1,1,0,0,0,1.32.52Z" transform="translate(0 0.01)"/><polygon class="cls-45" points="181.24 182.53 179.05 171.02 179.43 171.15 200.19 178 182.68 183.39 182.55 182.95 198.65 177.98 179.66 171.72 181.7 182.44 181.24 182.53"/><path class="cls-40" d="M183,184.15a1,1,0,1,1-.6-2,1,1,0,0,1,1.3.69,1,1,0,0,1-.59,1.29Z" transform="translate(0 0.01)"/><path class="cls-28" d="M180.43,182.62a1,1,0,1,0,0-.1S180.42,182.59,180.43,182.62Z" transform="translate(0 0.01)"/><polygon class="cls-4" points="13.97 142.68 13.95 142.22 34.5 141.26 37.04 117.61 13.82 141.93 13.48 141.61 37.65 116.3 34.92 141.71 13.97 142.68"/><path class="cls-61" d="M14.45,142.45a1.05,1.05,0,0,1-1.75-1.17,1.31,1.31,0,0,1,.23-.24,1,1,0,0,1,1.41-.07l.07.07A1.06,1.06,0,0,1,14.45,142.45Z" transform="translate(0 0.01)"/><path class="cls-69" d="M14,141.38a1.05,1.05,0,1,0,1.1,1,1.05,1.05,0,0,0-1.1-1Z" transform="translate(0 0.01)"/><polygon class="cls-52" points="17.03 150.23 12.58 142.28 12.95 142.26 35.69 141.2 18.7 150.71 18.48 150.3 33.73 141.76 13.35 142.71 17.43 150.01 17.03 150.23"/><path class="cls-60" d="M19.15,151.38a1.05,1.05,0,0,1-1.22-1.71.94.94,0,0,1,.22-.12,1,1,0,0,1,1.38.31l0,.09A1.07,1.07,0,0,1,19.15,151.38Z" transform="translate(0 0.01)"/><path class="cls-36" d="M16.28,150.57a1,1,0,1,0,1.83-1,1,1,0,0,0-1.42-.41A1.06,1.06,0,0,0,16.28,150.57Z" transform="translate(0 0.01)"/><polygon class="cls-58" points="34.41 142.08 37.01 117.92 37.47 117.97 35.01 140.88 44.17 132.26 37.55 117.96 37.98 117.76 44.73 132.37 44.61 132.48 34.41 142.08"/><path class="cls-70" d="M36.83,118.34a1.05,1.05,0,1,1,1.4.51A1.07,1.07,0,0,1,36.83,118.34Z" transform="translate(0 0.01)"/><path class="cls-69" d="M38.28,118.1a1.05,1.05,0,1,0-1.16.93A1,1,0,0,0,38.28,118.1Z" transform="translate(0 0.01)"/><polygon class="cls-44" points="43.98 182.82 17.36 150.93 17.6 150.79 34.86 141.13 34.94 141.43 44.79 182.41 44.34 182.52 34.55 141.84 18.08 151.06 44.34 182.52 43.98 182.82"/><path class="cls-55" d="M45.57,182.16a1,1,0,0,1-2,.36,1,1,0,0,1,.7-1.14,1.05,1.05,0,0,1,1.27.77Z" transform="translate(0 0.01)"/><path class="cls-69" d="M43.31,183.29a1,1,0,0,0,1.4.21l.08-.07a1.05,1.05,0,1,0-1.34-1.62,1,1,0,0,0-.21,1.4Z" transform="translate(0 0.01)"/><polygon class="cls-6" points="33.73 142.08 43.57 132.83 43.88 133.17 35.69 140.89 52.52 134.83 45.35 132.81 45.48 132.36 54.05 134.78 33.73 142.08"/><path class="cls-18" d="M45.18,133.6a1.05,1.05,0,1,1,1.3-.73,1,1,0,0,1-1.3.73Z" transform="translate(0 0.01)"/><path class="cls-57" d="M44.41,133.79a1.06,1.06,0,1,0-1.5,0h0A1.06,1.06,0,0,0,44.41,133.79Z" transform="translate(0 0.01)"/><polygon class="cls-55" points="33.55 141.65 52.27 134.93 52.43 135.37 35.87 141.32 59.53 142.66 53.75 135.73 54.11 135.43 60.58 143.18 33.55 141.65"/><path class="cls-39" d="M53.15,136.28a1.05,1.05,0,1,1,1.48.13A1.06,1.06,0,0,1,53.15,136.28Z" transform="translate(0 0.01)"/><path class="cls-68" d="M52.65,136.14a1.06,1.06,0,1,0-.71-2h0a1.06,1.06,0,0,0-.64,1.36A1.05,1.05,0,0,0,52.65,136.14Z" transform="translate(0 0.01)"/><polygon class="cls-71" points="33.88 141.2 59.07 142.63 59.05 143.1 35.54 141.76 60.85 158.97 59.89 143.93 60.35 143.9 61.38 159.89 33.88 141.2"/><path class="cls-13" d="M59.07,144a1,1,0,0,1,.88-1.1h.12a1.05,1.05,0,1,1,.14,2.1h0A1.07,1.07,0,0,1,59.07,144Z" transform="translate(0 0.01)"/><path class="cls-12" d="M58.94,143.9a1.05,1.05,0,1,0-1-1.11,1.05,1.05,0,0,0,1,1.11Z" transform="translate(0 0.01)"/><polygon class="cls-33" points="44.34 182.52 34.34 140.95 61.44 159.37 45.55 182.74 45.17 182.48 60.79 159.5 35.08 142.01 44.79 182.41 44.34 182.52"/><path class="cls-56" d="M45.57,182.16a1,1,0,0,1-2,.36,1,1,0,0,1,.7-1.14,1.05,1.05,0,0,1,1.27.77Z" transform="translate(0 0.01)"/><path class="cls-6" d="M44.51,182a1.06,1.06,0,0,0,.27,1.47,1.07,1.07,0,0,0,1.47-.28,1.06,1.06,0,0,0-.28-1.46,1,1,0,0,0-1.4.19Z" transform="translate(0 0.01)"/><polygon class="cls-51" points="192.25 165.37 199.69 139.04 200.13 139.17 193.14 163.92 215.39 143.61 201.05 138.69 201.2 138.25 216.28 143.43 192.25 165.37"/><path class="cls-30" d="M198.88,138.86a1.05,1.05,0,1,1,.73,1.3A1.06,1.06,0,0,1,198.88,138.86Z" transform="translate(0 0.01)"/><path class="cls-56" d="M201.51,137.48a1,1,0,0,0-1.33.65,1,1,0,1,0,1.34-.65Z" transform="translate(0 0.01)"/><polygon class="cls-29" points="192.25 164.74 214.94 144.02 215.25 144.37 193.14 164.55 213.75 171.76 215.53 144.5 216 144.53 214.18 172.41 192.25 164.74"/><path class="cls-15" d="M214.34,143.44a1.06,1.06,0,1,1-.06,1.49A1.06,1.06,0,0,1,214.34,143.44Z" transform="translate(0 0.01)"/><path class="cls-32" d="M216.81,144.63a1.05,1.05,0,0,0-1-1.1,1.05,1.05,0,0,0-.12,2.1,1.05,1.05,0,0,0,1.12-1Z" transform="translate(0 0.01)"/><polygon class="cls-43" points="213.71 172.42 215.53 144.5 216 144.53 214.22 171.75 254.46 157.96 216.69 144.08 216.85 143.65 255.85 157.97 213.71 172.42"/><path class="cls-54" d="M214.71,144.49a1.05,1.05,0,1,1,1,1.12,1.05,1.05,0,0,1-1-1.12Z" transform="translate(0 0.01)"/><path class="cls-72" d="M217.18,142.88a1.05,1.05,0,0,0-.71,2,1.05,1.05,0,0,0,.72-2Z" transform="translate(0 0.01)"/><path class="cls-67" d="M148.45,179.86v-.41l-.1-.4,31.33-8-4.34,11.82ZM179,171.69l-30.21,7.74,26.3,2.91Z" transform="translate(0 0.01)"/><path class="cls-39" d="M148.76,180.28a1.05,1.05,0,1,1,.74-1.29v0A1.05,1.05,0,0,1,148.76,180.28Z" transform="translate(0 0.01)"/><path class="cls-9" d="M148.64,178.59a1.05,1.05,0,1,0,.93,1.16A1.05,1.05,0,0,0,148.64,178.59Z" transform="translate(0 0.01)"/><polygon class="cls-53" points="165.87 199.41 147.99 180.42 148.33 180.1 165.77 198.63 174.85 182.8 148.45 179.88 148.5 179.41 175.61 182.41 165.87 199.41"/><path class="cls-46" d="M147.43,181a1,1,0,0,1,0-1.41.3.3,0,0,1,.08-.08,1.05,1.05,0,1,1,0,1.49Z" transform="translate(0 0.01)"/><path class="cls-45" d="M148.64,178.59a1.05,1.05,0,1,0,.93,1.16A1.05,1.05,0,0,0,148.64,178.59Z" transform="translate(0 0.01)"/><polygon class="cls-51" points="174.91 182.8 178.79 172.23 179.23 172.39 175.55 182.41 181.37 183.19 179.31 172.39 179.77 172.31 181.95 183.74 174.91 182.8"/><path class="cls-15" d="M178.51,172.59a1,1,0,1,1,1.24.83A1.06,1.06,0,0,1,178.51,172.59Z" transform="translate(0 0.01)"/><path class="cls-40" d="M180,172.71a1.06,1.06,0,1,0-2-.75,1.05,1.05,0,0,0,.61,1.36h0a1,1,0,0,0,1.31-.52A.42.42,0,0,0,180,172.71Z" transform="translate(0 0.01)"/><path class="cls-25" d="M166.69,198.47l-.26-.26-.32-.19,9-15.68h.16l6.9.92Zm8.66-15.63-8.49,14.82,14.29-14Z" transform="translate(0 0.01)"/><path class="cls-11" d="M167.31,199a1.05,1.05,0,1,1,0-1.49A1.06,1.06,0,0,1,167.31,199Z" transform="translate(0 0.01)"/><path class="cls-39" d="M165.43,197.57a1.05,1.05,0,1,0,1.43-.39h0a1,1,0,0,0-1.38.3A.41.41,0,0,0,165.43,197.57Z" transform="translate(0 0.01)"/><polygon class="cls-10" points="214.01 172.31 213.89 171.86 255.39 157.64 255.35 162.2 254.88 162.2 254.91 158.29 217.79 171.02 254.08 163.18 254.18 163.64 214.01 172.31"/><path class="cls-70" d="M253.85,162.38a1,1,0,1,1-.1,0Z" transform="translate(0 0.01)"/><path class="cls-58" d="M254.06,162.12a1.05,1.05,0,1,0,1.1-1h0a1,1,0,0,0-1.06.94Z" transform="translate(0 0.01)"/><polygon class="cls-45" points="213.38 171.97 254.08 163.18 254.18 163.64 214.55 172.2 235.53 186.46 254.29 163.82 254.65 164.11 235.62 187.08 213.38 171.97"/><path class="cls-72" d="M253.85,162.38a1,1,0,1,1-.1,0Z" transform="translate(0 0.01)"/><path class="cls-45" d="M255.24,164.66a1.05,1.05,0,1,0-1.48.14,1,1,0,0,0,1.41-.06A.27.27,0,0,0,255.24,164.66Z" transform="translate(0 0.01)"/><polygon class="cls-64" points="5.43 11.8 0 10.69 0 11.35 5.3 12.44 5.43 11.8"/><polygon class="cls-64" points="7.48 13.6 6.87 13.81 16.83 42.21 0 12.19 0 13.51 18.08 45.77 18.67 45.5 7.48 13.6"/><path class="cls-31" d="M5.82,14.25a1.46,1.46,0,0,1,.9-1.86h0a1.46,1.46,0,1,1-.9,1.86Z" transform="translate(0 0.01)"/><path class="cls-61" d="M5,13.52A1.46,1.46,0,1,0,3.86,11.8,1.47,1.47,0,0,0,5,13.52Z" transform="translate(0 0.01)"/><polygon class="cls-62" points="68.02 134.61 67.68 134.05 30.1 71.89 30.65 71.55 67.89 133.16 93.5 67.7 31.06 70.79 31.02 70.14 94.47 67.01 94.29 67.48 68.02 134.61"/><path class="cls-18" d="M29.16,72.52A1.46,1.46,0,0,1,31.66,71a1.46,1.46,0,0,1-2.5,1.51Z" transform="translate(0 0.01)"/><path class="cls-69" d="M31,69a1.46,1.46,0,1,0,1.53,1.39A1.46,1.46,0,0,0,31,69Z" transform="translate(0 0.01)"/><path class="cls-5" d="M69.09,133l-.43-.36-.51-.2L93.93,66.6l12.58,21.76Zm25-64.93L69,132.15,105.7,88.29Z" transform="translate(0 0.01)"/><path class="cls-68" d="M70,133.69a1.46,1.46,0,1,1-.18-2.06,1.46,1.46,0,0,1,.18,2.06Z" transform="translate(0 0.01)"/><path class="cls-34" d="M67.12,132a1.46,1.46,0,1,0,1.89-.83h0A1.46,1.46,0,0,0,67.12,132Z" transform="translate(0 0.01)"/><polygon class="cls-6" points="216.5 112.66 202.54 56.68 224.82 53.41 224.92 54.06 203.34 57.22 216.38 109.51 225.69 54.85 226.33 54.95 216.5 112.66"/><path class="cls-7" d="M224.56,54.71a1.46,1.46,0,1,1,1.19,1.69,1.47,1.47,0,0,1-1.19-1.69Z" transform="translate(0 0.01)"/><path class="cls-8" d="M225,55.17a1.46,1.46,0,1,0-.22-2.91l-.21,0a1.46,1.46,0,1,0,.22,2.91Z" transform="translate(0 0.01)"/><polygon class="cls-9" points="216.05 111.44 216.12 111.03 225.69 54.85 226.33 54.95 216.83 110.72 249.52 107.45 226.5 54.93 227.09 54.67 250.47 108.01 250.03 108.05 216.05 111.44"/><path class="cls-10" d="M225.51,55.44a1.46,1.46,0,1,1,1.92.75h0A1.46,1.46,0,0,1,225.51,55.44Z" transform="translate(0 0.01)"/><path class="cls-4" d="M227.43,55.2a1.46,1.46,0,1,0-1.68,1.2h0A1.45,1.45,0,0,0,227.43,55.2Z" transform="translate(0 0.01)"/><polygon class="cls-11" points="228.04 117.51 215.33 110.87 251.74 107.23 230.8 117.54 230.52 116.96 248.25 108.23 217.54 111.29 228.34 116.93 228.04 117.51"/><path class="cls-12" d="M231.37,118.51a1.46,1.46,0,1,1,.66-2,1.46,1.46,0,0,1-.66,2Z" transform="translate(0 0.01)"/><path class="cls-13" d="M227.45,118.47a1.46,1.46,0,1,0-.62-2,1.45,1.45,0,0,0,.62,2Z" transform="translate(0 0.01)"/><polygon class="cls-65" points="28.86 70.9 64.98 33.64 65.44 34.09 30.46 70.17 93.34 67.07 66.79 34.15 67.3 33.74 94.64 67.65 28.86 70.9"/><path class="cls-47" d="M64.11,32.89a1.45,1.45,0,0,1,2,0h0a1.45,1.45,0,0,1,0,2h0a1.47,1.47,0,0,1-2.07,0,1.44,1.44,0,0,1,0-2.05Z" transform="translate(0 0.01)"/><path class="cls-35" d="M68.22,33a1.45,1.45,0,0,0-2-.23h0a1.46,1.46,0,0,0-.24,2.06l0,0a1.47,1.47,0,0,0,2.32-1.81Z" transform="translate(0 0.01)"/><polygon class="cls-29" points="95.28 69.47 65.36 32.37 78.68 35.12 78.55 35.75 66.99 33.37 92.7 65.24 80.23 37.11 80.83 36.85 95.28 69.47"/><path class="cls-53" d="M79.22,37.62a1.46,1.46,0,1,1,1.93.75,1.46,1.46,0,0,1-1.93-.75Z" transform="translate(0 0.01)"/><path class="cls-42" d="M78.24,36.83a1.46,1.46,0,1,0,.82-2.8L78.83,34a1.43,1.43,0,0,0-1.71,1.1v0a1.46,1.46,0,0,0,1.12,1.72Z" transform="translate(0 0.01)"/><polygon class="cls-14" points="105.4 88.59 159.68 32.61 160.14 33.06 106.79 88.09 186.04 96.32 161.08 33.25 161.68 33.02 187.03 97.08 105.4 88.59"/><path class="cls-15" d="M160.05,33.72a1.46,1.46,0,1,1,2.71-1.07,1.44,1.44,0,0,1-.81,1.88h0A1.46,1.46,0,0,1,160.05,33.72Z" transform="translate(0 0.01)"/><path class="cls-16" d="M160.9,33.89a1.45,1.45,0,0,0,0-2.05h0a1.46,1.46,0,1,0,0,2.07Z" transform="translate(0 0.01)"/><polygon class="cls-17" points="140.27 145.92 105.48 87.95 106.13 88.02 187.2 96.45 142.43 146.13 141.95 145.69 185.87 96.96 106.7 88.73 140.83 145.58 140.27 145.92"/><path class="cls-34" d="M143.32,146.82a1.46,1.46,0,1,1-.11-2.06h0A1.48,1.48,0,0,1,143.32,146.82Z" transform="translate(0 0.01)"/><path class="cls-67" d="M139.26,146.43a1.46,1.46,0,1,0,.5-2h0A1.46,1.46,0,0,0,139.26,146.43Z" transform="translate(0 0.01)"/><polygon class="cls-18" points="186.53 97.57 186.23 96.82 160.22 31.08 201.92 55.96 201.59 56.52 161.52 32.61 186.54 95.84 202.12 58.11 202.71 58.35 186.53 97.57"/><path class="cls-19" d="M201,57.73a1.46,1.46,0,1,1,2.7,1.1,1.45,1.45,0,0,1-1.9.8h0A1.47,1.47,0,0,1,201,57.73Z" transform="translate(0 0.01)"/><path class="cls-20" d="M200.94,57.44a1.46,1.46,0,1,0-.5-2h0A1.46,1.46,0,0,0,200.94,57.44Z" transform="translate(0 0.01)"/><polygon class="cls-21" points="216.92 111.67 186.12 96.86 202.12 58.11 202.71 58.35 186.95 96.54 215.96 110.49 202.97 58.37 203.59 58.21 216.92 111.67"/><path class="cls-22" d="M201.88,58.7a1.46,1.46,0,1,1,2.84-.69,1.46,1.46,0,0,1-2.84.69Z" transform="translate(0 0.01)"/><path class="cls-23" d="M203.73,58.84a1.46,1.46,0,1,0-1.91.79h0A1.47,1.47,0,0,0,203.73,58.84Z" transform="translate(0 0.01)"/><path class="cls-41" d="M29.51,71.18,25.06,51,64.78,33.13l.24.54.42.41ZM25.8,51.35l4,18.51,35-36Z" transform="translate(0 0.01)"/><path class="cls-68" d="M64.25,32.12a1.45,1.45,0,0,1,1.92.73h0a1.45,1.45,0,0,1-.73,1.92h0A1.46,1.46,0,0,1,63.51,34h0A1.47,1.47,0,0,1,64.25,32.12Z" transform="translate(0 0.01)"/><path class="cls-63" d="M66.21,34.92a1.45,1.45,0,0,0,0-2.05h0a1.45,1.45,0,0,0-2,0h0a1.45,1.45,0,0,0,0,2h0A1.47,1.47,0,0,0,66.21,34.92Z" transform="translate(0 0.01)"/><polygon class="cls-31" points="93.07 69.42 101.39 39.9 110.89 38.2 111 38.83 101.9 40.46 94.9 65.3 111.3 39.27 111.84 39.61 93.07 69.42"/><path class="cls-32" d="M110.29,38.71a1.46,1.46,0,1,1,.47,2h0A1.46,1.46,0,0,1,110.29,38.71Z" transform="translate(0 0.01)"/><path class="cls-33" d="M111.13,40a1.46,1.46,0,1,0-1.7-1.18A1.46,1.46,0,0,0,111.13,40Z" transform="translate(0 0.01)"/><path class="cls-4" d="M106.29,89.32l-12.68-22,.1-.17,17.58-27.91.54.33.62.08Zm-11.93-22,11.53,20,5.91-47.67Z" transform="translate(0 0.01)"/><path class="cls-33" d="M110.29,38.71a1.46,1.46,0,1,1,.47,2h0A1.46,1.46,0,0,1,110.29,38.71Z" transform="translate(0 0.01)"/><path class="cls-34" d="M113.57,39.88a1.49,1.49,0,1,0,0,.21A.76.76,0,0,0,113.57,39.88Z" transform="translate(0 0.01)"/><polygon class="cls-35" points="105.66 89.26 111.82 39.6 112.46 39.68 106.53 87.42 160 32.29 113.72 38.41 113.64 37.77 161.75 31.4 105.66 89.26"/><path class="cls-3" d="M110.68,39.52A1.46,1.46,0,1,1,112,41.15a1.46,1.46,0,0,1-1.27-1.63Z" transform="translate(0 0.01)"/><path class="cls-36" d="M113.56,36.62a1.46,1.46,0,1,0,1.64,1.25h0A1.46,1.46,0,0,0,113.56,36.62Z" transform="translate(0 0.01)"/><polygon class="cls-21" points="94.35 68.97 80.23 37.11 80.83 36.85 93.63 65.74 93.04 40.75 81.16 36.49 81.38 35.88 93.67 40.3 94.35 68.97"/><path class="cls-60" d="M79.22,37.62a1.46,1.46,0,1,1,1.93.75,1.46,1.46,0,0,1-1.93-.75Z" transform="translate(0 0.01)"/><path class="cls-30" d="M81.83,34.82a1.45,1.45,0,1,0,.88,1.87,1.45,1.45,0,0,0-.88-1.87Z" transform="translate(0 0.01)"/><polygon class="cls-4" points="93.71 69.52 93.06 41.92 93.71 41.9 94.26 65.2 101.21 40.52 94.75 40.79 94.72 40.14 102.08 39.84 93.71 69.52"/><path class="cls-71" d="M91.93,42a1.46,1.46,0,1,1,1.49,1.43A1.46,1.46,0,0,1,91.93,42Z" transform="translate(0 0.01)"/><path class="cls-12" d="M94.75,39a1.46,1.46,0,1,0,1.52,1.4A1.48,1.48,0,0,0,94.75,39Z" transform="translate(0 0.01)"/><path class="cls-37" d="M232.78,177.39l-.31-.51-.47-.35,22-29.39,13.24,9.22ZM254.17,148,232.7,176.69l33.38-20.36Z" transform="translate(0 0.01)"/><path class="cls-11" d="M233.51,177.54a1.46,1.46,0,1,1-2.44-1.6l.11-.15a1.46,1.46,0,0,1,2.33,1.75Z" transform="translate(0 0.01)"/><path class="cls-38" d="M231.92,175.83a1.46,1.46,0,0,0-.49,2,1.46,1.46,0,0,0,2.5-1.52h0a1.45,1.45,0,0,0-2-.48Z" transform="translate(0 0.01)"/><polygon class="cls-37" points="110.63 158.98 67.46 133.97 106.35 87.53 112.2 157.99 111.56 158.04 105.84 89.15 68.45 133.8 110.95 158.42 110.63 158.98"/><path class="cls-26" d="M111.51,157.39a1.46,1.46,0,1,1-2,.53,1.46,1.46,0,0,1,2-.53Z" transform="translate(0 0.01)"/><path class="cls-68" d="M110.42,158a1.45,1.45,0,1,0,1.33-1.58,1.45,1.45,0,0,0-1.33,1.58Z" transform="translate(0 0.01)"/><polygon class="cls-71" points="93.31 160.01 93.22 159.91 66.03 132.39 110.95 158.42 110.63 158.98 69.88 135.37 93.58 159.35 110.6 159.09 110.61 159.74 93.31 160.01"/><path class="cls-39" d="M111.51,157.39a1.46,1.46,0,1,1-2,.53,1.46,1.46,0,0,1,2-.53Z" transform="translate(0 0.01)"/><path class="cls-26" d="M110.51,160.86a1.46,1.46,0,1,0-1.48-1.44,1.46,1.46,0,0,0,1.48,1.44Z" transform="translate(0 0.01)"/><polygon class="cls-44" points="113.39 159.15 113.14 158.55 140.79 146.79 106.53 89.7 112.2 157.99 111.56 158.04 105.66 86.98 141.73 147.09 113.39 159.15"/><path class="cls-38" d="M113.32,157.81a1.45,1.45,0,1,1-1.57-1.34A1.46,1.46,0,0,1,113.32,157.81Z" transform="translate(0 0.01)"/><path class="cls-68" d="M112.76,157.47a1.46,1.46,0,1,0,1.91.78h0a1.44,1.44,0,0,0-1.9-.77Z" transform="translate(0 0.01)"/><path class="cls-27" d="M203.69,112.91l-.11-.1-16.25-15,.36-.39.23-.47,29.65,14.26Zm-15.34-15,15.56,14.32,11.38-1.35Z" transform="translate(0 0.01)"/><path class="cls-45" d="M187.21,98.63a1.46,1.46,0,1,1,2-.68,1.45,1.45,0,0,1-1.92.72Z" transform="translate(0 0.01)"/><path class="cls-27" d="M188.59,96.6a1.46,1.46,0,1,0,.09,2.06h0A1.47,1.47,0,0,0,188.59,96.6Z" transform="translate(0 0.01)"/><polygon class="cls-34" points="0 0.27 0 0.96 0.49 1.13 0 3.53 0 6.74 1.24 0.71 0 0.27"/><polygon class="cls-25" points="0 10.69 0 11.35 7.31 12.85 1.78 2.01 1.21 2.3 6.13 11.95 0 10.69"/><polygon class="cls-25" points="0 6.74 0.91 2.34 0.27 2.22 0 3.53 0 6.74"/><path class="cls-61" d="M2.83,1.55a1.46,1.46,0,0,0-2-.66l0,0A1.45,1.45,0,0,0,.16,2.85l0,.06a1.46,1.46,0,0,0,2,.66l0,0a1.46,1.46,0,0,0,.66-2Z" transform="translate(0 0.01)"/><polygon class="cls-46" points="142.66 147.2 142.63 146.56 157.65 145.93 184.71 99.21 142.43 146.13 141.95 145.69 188.36 94.19 158.03 146.56 142.66 147.2"/><path class="cls-7" d="M143.32,146.82a1.46,1.46,0,1,1-.11-2.06h0A1.48,1.48,0,0,1,143.32,146.82Z" transform="translate(0 0.01)"/><path class="cls-71" d="M142.66,145.41a1.46,1.46,0,1,0,1.51,1.41v0A1.46,1.46,0,0,0,142.66,145.41Z" transform="translate(0 0.01)"/><polygon class="cls-28" points="157.12 146.84 157.56 146.08 186.25 96.54 186.84 96.82 169.71 141.19 169.1 140.96 184.75 100.43 158.56 145.65 167.49 142.52 167.71 143.13 157.12 146.84"/><path class="cls-35" d="M170.79,141.52a1.46,1.46,0,1,1-.84-1.89,1.47,1.47,0,0,1,.84,1.89Z" transform="translate(0 0.01)"/><path class="cls-5" d="M168,144.21a1.46,1.46,0,1,0-1-2.75h0a1.46,1.46,0,0,0,1,2.75Z" transform="translate(0 0.01)"/><polygon class="cls-68" points="0 12.19 0 13.51 17.96 45.56 0 64.26 0 65.2 18.59 45.84 18.76 45.66 0 12.19"/><polygon class="cls-39" points="300.31 98.42 300.31 97.77 251.29 107.15 251.41 107.78 300.31 98.42"/><polygon class="cls-39" points="300.31 111.47 286.07 131.17 251.33 108.22 250.97 108.76 286.23 132.05 300.31 112.58 300.31 111.47"/><path class="cls-39" d="M250.4,109.73a1.46,1.46,0,1,1,2-.44l0,0A1.46,1.46,0,0,1,250.4,109.73Z" transform="translate(0 0.01)"/><path class="cls-26" d="M251.15,106a1.46,1.46,0,1,0,1.7,1.17v0a1.45,1.45,0,0,0-1.7-1.15Z" transform="translate(0 0.01)"/><polygon class="cls-47" points="300.31 97.77 251.62 107.09 300.31 76.56 300.31 75.8 250.99 106.72 251.3 107.21 251.41 107.78 300.31 98.42 300.31 97.77"/><path class="cls-48" d="M252,108.17a1.46,1.46,0,1,1,.45-2h0A1.46,1.46,0,0,1,252,108.17Z" transform="translate(0 0.01)"/><path class="cls-32" d="M251.15,106a1.46,1.46,0,1,0,1.7,1.17v0a1.45,1.45,0,0,0-1.7-1.15Z" transform="translate(0 0.01)"/><polygon class="cls-49" points="300.31 111.47 286.7 130.3 287.23 130.68 300.31 112.58 300.31 111.47"/><polygon class="cls-49" points="300.31 134.2 287.57 131.57 287.44 132.21 300.31 134.86 300.31 134.2"/><path class="cls-39" d="M287.28,133.32a1.46,1.46,0,1,1,1.72-1.14A1.46,1.46,0,0,1,287.28,133.32Z" transform="translate(0 0.01)"/><path class="cls-50" d="M285.82,129.56a1.46,1.46,0,1,0,2-.3l0,0A1.47,1.47,0,0,0,285.82,129.56Z" transform="translate(0 0.01)"/><polygon class="cls-31" points="6.54 12.77 1.21 2.3 1.78 2.01 6.89 12.03 20.61 9.23 2.03 1.74 2.27 1.14 22.85 9.43 6.54 12.77"/><path class="cls-68" d="M.23,2.87A1.45,1.45,0,0,1,.81.9l.06,0a1.47,1.47,0,0,1,2,.6l0,0a1.47,1.47,0,0,1-.6,2l0,0a1.47,1.47,0,0,1-2-.6Z" transform="translate(0 0.01)"/><path class="cls-67" d="M2.76.1A1.46,1.46,0,0,0,.87.9h0A1.44,1.44,0,0,0,1.66,2.8h0A1.46,1.46,0,0,0,2.81.12Z" transform="translate(0 0.01)"/><polygon class="cls-41" points="18.55 47.11 6.29 12.16 20.31 9.29 20.44 9.93 7.15 12.64 18.18 44.11 21.28 10.68 21.92 10.74 18.55 47.11"/><path class="cls-53" d="M20,8.18A1.46,1.46,0,1,1,18.87,9.9,1.46,1.46,0,0,1,20,8.18Z" transform="translate(0 0.01)"/><path class="cls-40" d="M23,10.9a1.45,1.45,0,0,0-1.29-1.58h0a1.45,1.45,0,0,0-1.59,1.3h0a1.47,1.47,0,0,0,1.32,1.59h.05A1.44,1.44,0,0,0,23,10.9Z" transform="translate(0 0.01)"/><path class="cls-64" d="M25.82,51.88,18,45.74v-.17l3.24-34.9h.89ZM18.7,45.45l6.34,5L21.72,12.9Z" transform="translate(0 0.01)"/><path class="cls-19" d="M20.14,10.63a1.45,1.45,0,0,1,1.58-1.31h0A1.44,1.44,0,0,1,23,10.88v0a1.45,1.45,0,0,1-2.9-.22Z" transform="translate(0 0.01)"/><path class="cls-46" d="M23.31,10.64a1.46,1.46,0,0,0-2.91.26h0a1.46,1.46,0,0,0,2.91-.26Z" transform="translate(0 0.01)"/><polygon class="cls-24" points="25.15 51.66 21.53 10.74 22.17 10.68 25.71 50.7 65.44 32.85 22.8 10.27 23.11 9.69 66.91 32.89 25.15 51.66"/><path class="cls-34" d="M20.4,10.9a1.46,1.46,0,0,1,1.33-1.58h0a1.46,1.46,0,1,1,.25,2.9h0A1.46,1.46,0,0,1,20.4,10.9Z" transform="translate(0 0.01)"/><path class="cls-57" d="M23.7,8.71a1.45,1.45,0,0,0-2,.58l0,0a1.44,1.44,0,0,0,.55,2l.05,0a1.47,1.47,0,0,0,2-.59v0a1.47,1.47,0,0,0-.59-2Z" transform="translate(0 0.01)"/><polygon class="cls-20" points="250.05 108.67 226.5 54.93 227.09 54.67 249.93 106.78 263.67 59.54 227.56 54.06 227.66 53.42 264.5 59.02 264.4 59.37 250.05 108.67"/><path class="cls-39" d="M225.51,55.44a1.46,1.46,0,1,1,1.92.75h0A1.46,1.46,0,0,1,225.51,55.44Z" transform="translate(0 0.01)"/><path class="cls-47" d="M227.9,52.3A1.46,1.46,0,1,0,229.12,54h0a1.46,1.46,0,0,0-1.21-1.66Z" transform="translate(0 0.01)"/><polygon class="cls-22" points="300.31 71.96 265.5 59.44 265.28 60.05 300.31 72.65 300.31 71.96"/><polygon class="cls-22" points="300.31 75.8 250.54 107 264.01 60.7 263.39 60.52 249.44 108.45 300.31 76.56 300.31 75.8"/><path class="cls-55" d="M262.27,60.26a1.46,1.46,0,1,1,1,1.81,1.47,1.47,0,0,1-1-1.81Z" transform="translate(0 0.01)"/><path class="cls-36" d="M266,58.39a1.46,1.46,0,1,0,.88,1.87h0a1.46,1.46,0,0,0-.87-1.86Z" transform="translate(0 0.01)"/><polygon class="cls-52" points="300.31 138.28 288.53 132.43 300.31 134.86 300.31 134.2 287.57 131.57 287.47 132.06 287.25 132.52 300.31 139 300.31 138.28"/><path class="cls-37" d="M287.28,133.32a1.46,1.46,0,1,1,1.72-1.14A1.46,1.46,0,0,1,287.28,133.32Z" transform="translate(0 0.01)"/><path class="cls-56" d="M288.1,130.94a1.46,1.46,0,1,0,.66,2h0a1.44,1.44,0,0,0-.65-1.94Z" transform="translate(0 0.01)"/><polygon class="cls-18" points="300.31 171.22 300.31 170.3 292.57 178.17 295.08 181.98 295.62 181.63 293.39 178.25 300.31 171.22"/><polygon class="cls-18" points="300.31 176.84 296.68 181.66 297.2 182.05 300.31 177.92 300.31 176.84"/><path class="cls-57" d="M298.15,182.66a1.46,1.46,0,0,1-2,.34,1.46,1.46,0,1,1,1.7-2.38l.05,0A1.46,1.46,0,0,1,298.15,182.66Z" transform="translate(0 0.01)"/><path class="cls-45" d="M294.09,182.53a1.45,1.45,0,1,0,.42-2h0A1.46,1.46,0,0,0,294.09,182.53Z" transform="translate(0 0.01)"/><polygon class="cls-7" points="300.31 186.39 296.54 182.92 300.31 177.91 300.31 176.84 295.85 182.77 295.68 183 300.31 187.27 300.31 186.39"/><polygon class="cls-22" points="253.81 147.97 253.78 147.63 249.81 109.14 250.46 109.07 254.38 147.23 276.81 143.94 250.57 109.03 251.08 108.64 277.98 144.43 253.81 147.97"/><path class="cls-49" d="M248.69,109.31a1.46,1.46,0,1,1,1.6,1.3h0A1.46,1.46,0,0,1,248.69,109.31Z" transform="translate(0 0.01)"/><path class="cls-19" d="M252,108a1.47,1.47,0,1,0,.11.15Z" transform="translate(0 0.01)"/><path class="cls-19" d="M277.41,144.72l-.27-.35L250.56,109l.45-.33.31-.47,35.28,23.3Zm-26-35.68,26,34.61,8.3-11.94Z" transform="translate(0 0.01)"/><path class="cls-60" d="M250.4,109.73a1.46,1.46,0,1,1,2-.44l0,0A1.46,1.46,0,0,1,250.4,109.73Z" transform="translate(0 0.01)"/><path class="cls-30" d="M252,108a1.47,1.47,0,1,0,.11.15Z" transform="translate(0 0.01)"/><polygon class="cls-29" points="265.35 155.83 253.24 147.4 278.22 143.74 267.83 155.53 267.35 155.1 276.57 144.63 254.95 147.8 265.72 155.3 265.35 155.83"/><path class="cls-34" d="M268.73,156.21a1.46,1.46,0,1,1-.13-2.06h0A1.47,1.47,0,0,1,268.73,156.21Z" transform="translate(0 0.01)"/><path class="cls-46" d="M264.64,156.7a1.46,1.46,0,1,0-.33-2l0,0A1.46,1.46,0,0,0,264.64,156.7Z" transform="translate(0 0.01)"/><path class="cls-28" d="M291.71,177.56l-25.5-21.18,11.3-12.8.21.46,15,32.76-.59.26ZM267.13,156.3l25,20.74-14.82-32.28Z" transform="translate(0 0.01)"/><path class="cls-61" d="M293.7,176.26a1.46,1.46,0,1,1-1.94-.72,1.46,1.46,0,0,1,1.94.72Z" transform="translate(0 0.01)"/><path class="cls-10" d="M290.92,178.38a1.46,1.46,0,1,0,1.87-2.24,1.45,1.45,0,0,0-2.05.18h0A1.46,1.46,0,0,0,290.92,178.38Z" transform="translate(0 0.01)"/><polygon class="cls-57" points="300.31 138.28 287.54 131.94 287.25 132.52 300.31 139 300.31 138.28"/><polygon class="cls-57" points="300.31 146.45 277.97 143.92 285.62 132.93 285.1 132.56 276.82 144.45 300.31 147.1 300.31 146.45"/><path class="cls-62" d="M286.81,133.55a1.46,1.46,0,1,1,1.29-2.62,1.45,1.45,0,0,1,.66,1.95h0a1.45,1.45,0,0,1-1.94.67Z" transform="translate(0 0.01)"/><path class="cls-52" d="M286.51,133.63a1.46,1.46,0,1,0-2,.33l0,0A1.46,1.46,0,0,0,286.51,133.63Z" transform="translate(0 0.01)"/><polygon class="cls-63" points="300.31 147.1 300.31 146.45 276.87 143.8 292.11 177.08 292.7 176.81 277.93 144.57 300.31 147.1"/><polygon class="cls-63" points="300.31 170.3 293.72 176.99 294.18 177.45 300.31 171.22 300.31 170.3"/><path class="cls-3" d="M295,178.18a1.46,1.46,0,1,1,0-2.07,1.45,1.45,0,0,1,0,2.07Z" transform="translate(0 0.01)"/><path class="cls-20" d="M291,177.48a1.46,1.46,0,1,0,.72-1.94,1.46,1.46,0,0,0-.72,1.94Z" transform="translate(0 0.01)"/><polygon class="cls-24" points="239.61 139.28 229.74 119.25 230.32 118.96 239.5 137.6 249.44 108.36 230.8 117.54 230.52 116.96 250.55 107.09 239.61 139.28"/><path class="cls-15" d="M231.37,118.51a1.46,1.46,0,1,1,.66-2,1.46,1.46,0,0,1-.66,2Z" transform="translate(0 0.01)"/><path class="cls-53" d="M231.37,118.51a1.46,1.46,0,1,0,0,.06Z" transform="translate(0 0.01)"/><path class="cls-9" d="M232.51,176.92l-.51-.38-.62-.13,7.94-38.51,15.23,9.6-.21.28Zm7.25-38L232,176.45l21.59-28.81Z" transform="translate(0 0.01)"/><path class="cls-53" d="M233.51,177.54a1.46,1.46,0,1,1-2.44-1.6l.11-.15a1.46,1.46,0,0,1,2.33,1.75Z" transform="translate(0 0.01)"/><path class="cls-29" d="M230.3,176.11A1.46,1.46,0,1,0,232,175h0a1.43,1.43,0,0,0-1.71,1.1Z" transform="translate(0 0.01)"/><path class="cls-20" d="M254.51,148.21l-15.33-9.65,10.08-29.64.59.2.62-.06ZM240,138.29,253.73,147l-3.89-37.74Z" transform="translate(0 0.01)"/><path class="cls-12" d="M248.69,109.31a1.46,1.46,0,1,1,1.6,1.3h0A1.46,1.46,0,0,1,248.69,109.31Z" transform="translate(0 0.01)"/><path class="cls-29" d="M250.9,109.56a1.46,1.46,0,1,0-1.85.91h0A1.46,1.46,0,0,0,250.9,109.56Z" transform="translate(0 0.01)"/><polygon class="cls-50" points="21.25 124.21 1.61 114.24 22.73 95.01 22.95 123.16 22.3 123.16 22.09 96.47 2.74 114.09 21.55 123.63 21.25 124.21"/><path class="cls-29" d="M24.08,123a1.46,1.46,0,1,1-1.47-1.45A1.46,1.46,0,0,1,24.08,123Z" transform="translate(0 0.01)"/><path class="cls-39" d="M20.67,125.17a1.43,1.43,0,1,0-.06,0Z" transform="translate(0 0.01)"/><polygon class="cls-52" points="69.23 135.38 22.04 95.85 22.1 95.65 28.96 71.77 29.59 71.95 22.78 95.63 66.67 132.39 30.1 71.89 30.65 71.55 69.23 135.38"/><path class="cls-29" d="M29.16,72.52A1.46,1.46,0,0,1,31.66,71a1.46,1.46,0,0,1-2.5,1.51Z" transform="translate(0 0.01)"/><path class="cls-44" d="M30.65,72.32a1.46,1.46,0,1,0-1.81,1h0a1.44,1.44,0,0,0,1.79-1Z" transform="translate(0 0.01)"/><polygon class="cls-63" points="55.47 137.57 22.31 124.77 22.31 124.55 22.08 94.83 56.25 136.49 55.75 136.9 22.74 96.65 22.96 124.32 55.71 136.97 55.47 137.57"/><path class="cls-26" d="M57.08,135.7a1.46,1.46,0,1,1-2.06-.15l.06-.05A1.45,1.45,0,0,1,57.08,135.7Z" transform="translate(0 0.01)"/><path class="cls-52" d="M55,138.59a1.46,1.46,0,0,0,1.89-.84h0a1.46,1.46,0,1,0-1.89.84Z" transform="translate(0 0.01)"/><polygon class="cls-46" points="58.3 137.61 58.08 137 67.31 133.77 24.85 98.21 56.25 136.49 55.75 136.9 22.16 95.95 22.61 95.49 68.59 134 58.3 137.61"/><path class="cls-68" d="M58.74,138.65a1.46,1.46,0,1,1,.89-1.86h0A1.47,1.47,0,0,1,58.74,138.65Z" transform="translate(0 0.01)"/><path class="cls-42" d="M54.83,137.55A1.46,1.46,0,1,0,55,135.5h0A1.46,1.46,0,0,0,54.83,137.55Z" transform="translate(0 0.01)"/><polygon class="cls-5" points="0 85.21 0 85.88 14.46 82.35 2.39 112.76 2.99 113 15.52 81.43 0 85.21"/><path class="cls-9" d="M4.07,113.34a1.46,1.46,0,0,1-2.72-1.07h0a1.46,1.46,0,1,1,2.71,1.07Z" transform="translate(0 0.01)"/><polygon class="cls-37" points="0 64.26 0 65.2 17.95 46.5 14.69 81.63 0 85.21 0 85.88 15.29 82.15 18.77 44.72 0 64.26"/><path class="cls-35" d="M3.42,113.46,3,113l-.59-.23L15,81.11,22.81,95.8l-.19.17ZM15,82.64,3,113,22,95.66Z" transform="translate(0 0.01)"/><path class="cls-42" d="M4.24,114.25a1.46,1.46,0,1,1,.09-2.06A1.46,1.46,0,0,1,4.24,114.25Z" transform="translate(0 0.01)"/><path class="cls-32" d="M1.36,112.26a1.44,1.44,0,0,0,.81,1.88h0a1.46,1.46,0,0,0,1.08-2.71h0A1.46,1.46,0,0,0,1.36,112.26Z" transform="translate(0 0.01)"/><polygon class="cls-44" points="14.42 84.59 17.91 46.96 18.55 47.02 15.57 79.19 25.05 51.29 19.25 46.72 19.65 46.21 25.81 51.06 14.42 84.59"/><path class="cls-23" d="M18.6,47.64a1.46,1.46,0,1,1,2-.24h0a1.46,1.46,0,0,1-2,.25Z" transform="translate(0 0.01)"/><path class="cls-64" d="M19.68,47.18a1.46,1.46,0,1,0-1.59,1.32,1.47,1.47,0,0,0,1.59-1.32Z" transform="translate(0 0.01)"/><polygon class="cls-46" points="14.34 82.8 24.68 52.38 25.29 52.59 15.64 80.97 29.3 70.4 25.41 52.6 26.04 52.46 30.02 70.66 29.86 70.79 14.34 82.8"/><path class="cls-34" d="M24.31,52.9a1.46,1.46,0,0,1,2.82-.76l0,.14A1.45,1.45,0,0,1,26.11,54h-.06a1.47,1.47,0,0,1-1.74-1.14Z" transform="translate(0 0.01)"/><path class="cls-8" d="M26.34,53a1.46,1.46,0,1,0-1.85.91h0A1.46,1.46,0,0,0,26.34,53Z" transform="translate(0 0.01)"/><polygon class="cls-48" points="21.47 94.67 14.58 81.8 30.24 69.67 23.1 94.5 22.48 94.32 29.07 71.39 15.41 81.98 22.04 94.37 21.47 94.67"/><path class="cls-45" d="M24.21,94.73a1.46,1.46,0,1,1-1-1.81,1.47,1.47,0,0,1,1,1.81Z" transform="translate(0 0.01)"/><path class="cls-51" d="M20.43,95.13a1.46,1.46,0,0,0,2.63-1.26L23,93.75a1.46,1.46,0,0,0-2.57,1.38Z" transform="translate(0 0.01)"/><polygon class="cls-4" points="170.3 142.07 170.02 141.48 195.82 129.33 186.49 97.71 169.71 141.19 169.1 140.96 186.58 95.7 196.59 129.68 170.3 142.07"/><path class="cls-61" d="M170.79,141.52a1.46,1.46,0,1,1-.84-1.89,1.47,1.47,0,0,1,.84,1.89Z" transform="translate(0 0.01)"/><path class="cls-69" d="M169.6,140.41a1.46,1.46,0,1,0,1.94.7h0A1.46,1.46,0,0,0,169.6,140.41Z" transform="translate(0 0.01)"/><polygon class="cls-52" points="178.22 150.11 168.3 142.3 168.77 142.07 197.31 128.63 180.62 149.82 180.12 149.43 195.1 130.38 169.52 142.44 178.62 149.6 178.22 150.11"/><path class="cls-60" d="M181.56,150.46a1.46,1.46,0,1,1-.3-2l.05,0A1.47,1.47,0,0,1,181.56,150.46Z" transform="translate(0 0.01)"/><path class="cls-36" d="M177.51,150.94a1.46,1.46,0,0,0,2-2.16l-.16-.13a1.46,1.46,0,0,0-1.8,2.29Z" transform="translate(0 0.01)"/><polygon class="cls-58" points="196.14 130.44 186.62 98.12 187.24 97.94 196.27 128.57 203.41 112.66 187.34 97.88 187.77 97.4 204.19 112.51 204.1 112.72 196.14 130.44"/><path class="cls-70" d="M186.62,98.75a1.46,1.46,0,1,1,2.06-.09h0A1.47,1.47,0,0,1,186.62,98.75Z" transform="translate(0 0.01)"/><path class="cls-69" d="M188.34,97.67a1.46,1.46,0,1,0-1,1.82,1.46,1.46,0,0,0,1-1.82Z" transform="translate(0 0.01)"/><polygon class="cls-44" points="230.06 177.49 179.02 150.82 179.26 150.51 196.22 128.97 196.47 129.31 230.88 176.54 230.36 176.92 196.2 130.04 180.01 150.61 230.36 176.92 230.06 177.49"/><path class="cls-55" d="M231.75,175.8a1.46,1.46,0,1,1-2-.29l0,0A1.46,1.46,0,0,1,231.75,175.8Z" transform="translate(0 0.01)"/><path class="cls-69" d="M229.51,178.45a1.46,1.46,0,1,0-.61-2,1.46,1.46,0,0,0,.61,2Z" transform="translate(0 0.01)"/><polygon class="cls-6" points="195.28 130.79 202.94 113.72 203.53 113.98 197.14 128.22 215.47 111.52 205.22 112.74 205.14 112.1 217.4 110.64 195.28 130.79"/><path class="cls-18" d="M205.42,113.85a1.46,1.46,0,1,1,1.28-1.62h0A1.46,1.46,0,0,1,205.42,113.85Z" transform="translate(0 0.01)"/><path class="cls-57" d="M204.51,114.5a1.46,1.46,0,1,0-1.93.73h0A1.47,1.47,0,0,0,204.51,114.5Z" transform="translate(0 0.01)"/><polygon class="cls-55" points="194.81 130.33 215.19 111.77 215.63 112.25 197.6 128.67 228.61 117.81 217.51 112.01 217.81 111.44 230.23 117.92 194.81 130.33"/><path class="cls-39" d="M217.05,113a1.46,1.46,0,1,1,2-.62,1.47,1.47,0,0,1-2,.63Z" transform="translate(0 0.01)"/><path class="cls-68" d="M216.34,113.13a1.46,1.46,0,1,0-2.06-.1h0A1.46,1.46,0,0,0,216.34,113.13Z" transform="translate(0 0.01)"/><polygon class="cls-71" points="195 129.59 228 118.02 228.22 118.63 197.41 129.42 238.97 137.99 229.74 119.25 230.32 118.96 240.14 138.89 195 129.59"/><path class="cls-13" d="M228.75,119.8a1.46,1.46,0,1,1,1.95.67h0a1.44,1.44,0,0,1-1.94-.66Z" transform="translate(0 0.01)"/><path class="cls-12" d="M228.51,119.71a1.46,1.46,0,0,0-.94-2.76h0a1.46,1.46,0,1,0,1,2.75Z" transform="translate(0 0.01)"/><polygon class="cls-33" points="230.36 176.92 195.45 129.02 239.94 138.19 232.03 176.55 231.4 176.42 239.17 138.69 196.96 129.99 230.88 176.54 230.36 176.92"/><path class="cls-56" d="M231.75,175.8a1.46,1.46,0,1,1-2-.29l0,0A1.46,1.46,0,0,1,231.75,175.8Z" transform="translate(0 0.01)"/><path class="cls-6" d="M230.3,176.11A1.46,1.46,0,1,0,232,175h0a1.43,1.43,0,0,0-1.71,1.1Z" transform="translate(0 0.01)"/></g><path class="cls-73" d="M138.8,222.27l-21-36.36h10.34v-16H60.37c-22,0-38.38-8.11-46-22.83C7.51,134,8.86,117.25,17.79,104.5,27,91.27,42.34,84.91,59.85,87c6.5-15.53,20.56-26,36.87-27.29a43.13,43.13,0,0,1,32.37,11.15c12.91-25.72,38.53-38.1,65.64-31.58a62.89,62.89,0,0,1,33.73,21A60.86,60.86,0,0,1,242.18,100c25.9-3,38.2,8.65,43.25,15.91,7.63,10.94,8.68,26.07,2.63,37.67-5.4,10.34-15.55,16.27-27.85,16.27H166.78V146.57h8.87l-17.53-30.36-17.53,30.36h8.92v39.34h10.33Zm-17.53-34.36,17.53,30.36,17.53-30.36h-8.82V148.57H137.12l21-36.36,21,36.36H168.78V167.9h91.43c11.7,0,21-5.4,26.08-15.2a35.22,35.22,0,0,0-2.5-35.6c-8.4-12.06-23.51-17.36-42.51-14.93l-1.15.15v-1.17c.86-33.58-22.43-54.31-45.9-59.95-26.57-6.39-51.68,6.06-64,31.73l-.6,1.25-1-1a41.17,41.17,0,0,0-31.75-11.5C81.08,63,67.51,73.22,61.42,88.44l-.29.72-.77-.1c-17.07-2.25-32,3.8-40.94,16.58-8.5,12.15-9.81,28.05-3.32,40.51,7.3,14,23,21.75,44.27,21.75h69.77v20Z" transform="translate(0 0.01)"/><g class="cls-74"><path class="cls-75" d="M138.8,222.27l-21-36.36h10.34v-16H60.37c-22,0-38.38-8.11-46-22.83C7.51,134,8.86,117.25,17.79,104.5,27,91.27,42.34,84.91,59.85,87c6.5-15.53,20.56-26,36.87-27.29a43.13,43.13,0,0,1,32.37,11.15c12.91-25.72,38.53-38.1,65.64-31.58a62.89,62.89,0,0,1,33.73,21A60.86,60.86,0,0,1,242.18,100c25.9-3,38.2,8.65,43.25,15.91,7.63,10.94,8.68,26.07,2.63,37.67-5.4,10.34-15.55,16.27-27.85,16.27H166.78V146.57h8.87l-17.53-30.36-17.53,30.36h8.92v39.34h10.33Zm-17.53-34.36,17.53,30.36,17.53-30.36h-8.82V148.57H137.12l21-36.36,21,36.36H168.78V167.9h91.43c11.7,0,21-5.4,26.08-15.2a35.22,35.22,0,0,0-2.5-35.6c-8.4-12.06-23.51-17.36-42.51-14.93l-1.15.15v-1.17c.86-33.58-22.43-54.31-45.9-59.95-26.57-6.39-51.68,6.06-64,31.73l-.6,1.25-1-1a41.17,41.17,0,0,0-31.75-11.5C81.08,63,67.51,73.22,61.42,88.44l-.29.72-.77-.1c-17.07-2.25-32,3.8-40.94,16.58-8.5,12.15-9.81,28.05-3.32,40.51,7.3,14,23,21.75,44.27,21.75h69.77v20Z" transform="translate(0 0.01)"/></g><g class="cls-76"><path class="cls-77" d="M138.8,222.27l-21-36.36h10.34v-16H60.37c-22,0-38.38-8.11-46-22.83C7.51,134,8.86,117.25,17.79,104.5,27,91.27,42.34,84.91,59.85,87c6.5-15.53,20.56-26,36.87-27.29a43.13,43.13,0,0,1,32.37,11.15c12.91-25.72,38.53-38.1,65.64-31.58a62.89,62.89,0,0,1,33.73,21A60.86,60.86,0,0,1,242.18,100c25.9-3,38.2,8.65,43.25,15.91,7.63,10.94,8.68,26.07,2.63,37.67-5.4,10.34-15.55,16.27-27.85,16.27H166.78V146.57h8.87l-17.53-30.36-17.53,30.36h8.92v39.34h10.33Zm-17.53-34.36,17.53,30.36,17.53-30.36h-8.82V148.57H137.12l21-36.36,21,36.36H168.78V167.9h91.43c11.7,0,21-5.4,26.08-15.2a35.22,35.22,0,0,0-2.5-35.6c-8.4-12.06-23.51-17.36-42.51-14.93l-1.15.15v-1.17c.86-33.58-22.43-54.31-45.9-59.95-26.57-6.39-51.68,6.06-64,31.73l-.6,1.25-1-1a41.17,41.17,0,0,0-31.75-11.5C81.08,63,67.51,73.22,61.42,88.44l-.29.72-.77-.1c-17.07-2.25-32,3.8-40.94,16.58-8.5,12.15-9.81,28.05-3.32,40.51,7.3,14,23,21.75,44.27,21.75h69.77v20Z" transform="translate(0 0.01)"/></g><g class="cls-78"><path class="cls-79" d="M138.8,222.27l-21-36.36h10.34v-16H60.37c-22,0-38.38-8.11-46-22.83C7.51,134,8.86,117.25,17.79,104.5,27,91.27,42.34,84.91,59.85,87c6.5-15.53,20.56-26,36.87-27.29a43.13,43.13,0,0,1,32.37,11.15c12.91-25.72,38.53-38.1,65.64-31.58a62.89,62.89,0,0,1,33.73,21A60.86,60.86,0,0,1,242.18,100c25.9-3,38.2,8.65,43.25,15.91,7.63,10.94,8.68,26.07,2.63,37.67-5.4,10.34-15.55,16.27-27.85,16.27H166.78V146.57h8.87l-17.53-30.36-17.53,30.36h8.92v39.34h10.33Zm-17.53-34.36,17.53,30.36,17.53-30.36h-8.82V148.57H137.12l21-36.36,21,36.36H168.78V167.9h91.43c11.7,0,21-5.4,26.08-15.2a35.22,35.22,0,0,0-2.5-35.6c-8.4-12.06-23.51-17.36-42.51-14.93l-1.15.15v-1.17c.86-33.58-22.43-54.31-45.9-59.95-26.57-6.39-51.68,6.06-64,31.73l-.6,1.25-1-1a41.17,41.17,0,0,0-31.75-11.5C81.08,63,67.51,73.22,61.42,88.44l-.29.72-.77-.1c-17.07-2.25-32,3.8-40.94,16.58-8.5,12.15-9.81,28.05-3.32,40.51,7.3,14,23,21.75,44.27,21.75h69.77v20Z" transform="translate(0 0.01)"/></g><path class="cls-80" d="M138.8,222.27l-21-36.36h10.34v-16H60.37c-22,0-38.38-8.11-46-22.83C7.51,134,8.86,117.25,17.79,104.5,27,91.27,42.34,84.91,59.85,87c6.5-15.53,20.56-26,36.87-27.29a43.13,43.13,0,0,1,32.37,11.15c12.91-25.72,38.53-38.1,65.64-31.58a62.89,62.89,0,0,1,33.73,21A60.86,60.86,0,0,1,242.18,100c25.9-3,38.2,8.65,43.25,15.91,7.63,10.94,8.68,26.07,2.63,37.67-5.4,10.34-15.55,16.27-27.85,16.27H166.78V146.57h8.87l-17.53-30.36-17.53,30.36h8.92v39.34h10.33Zm-17.53-34.36,17.53,30.36,17.53-30.36h-8.82V148.57H137.12l21-36.36,21,36.36H168.78V167.9h91.43c11.7,0,21-5.4,26.08-15.2a35.22,35.22,0,0,0-2.5-35.6c-8.4-12.06-23.51-17.36-42.51-14.93l-1.15.15v-1.17c.86-33.58-22.43-54.31-45.9-59.95-26.57-6.39-51.68,6.06-64,31.73l-.6,1.25-1-1a41.17,41.17,0,0,0-31.75-11.5C81.08,63,67.51,73.22,61.42,88.44l-.29.72-.77-.1c-17.07-2.25-32,3.8-40.94,16.58-8.5,12.15-9.81,28.05-3.32,40.51,7.3,14,23,21.75,44.27,21.75h69.77v20Z" transform="translate(0 0.01)"/><path class="cls-81" d="M138.8,222.27l-21-36.36h10.34v-16H60.37c-22,0-38.38-8.11-46-22.83C7.51,134,8.86,117.25,17.79,104.5,27,91.27,42.34,84.91,59.85,87c6.5-15.53,20.56-26,36.87-27.29a43.13,43.13,0,0,1,32.37,11.15c12.91-25.72,38.53-38.1,65.64-31.58a62.89,62.89,0,0,1,33.73,21A60.86,60.86,0,0,1,242.18,100c25.9-3,38.2,8.65,43.25,15.91,7.63,10.94,8.68,26.07,2.63,37.67-5.4,10.34-15.55,16.27-27.85,16.27H166.78V146.57h8.87l-17.53-30.36-17.53,30.36h8.92v39.34h10.33Zm-17.53-34.36,17.53,30.36,17.53-30.36h-8.82V148.57H137.12l21-36.36,21,36.36H168.78V167.9h91.43c11.7,0,21-5.4,26.08-15.2a35.22,35.22,0,0,0-2.5-35.6c-8.4-12.06-23.51-17.36-42.51-14.93l-1.15.15v-1.17c.86-33.58-22.43-54.31-45.9-59.95-26.57-6.39-51.68,6.06-64,31.73l-.6,1.25-1-1a41.17,41.17,0,0,0-31.75-11.5C81.08,63,67.51,73.22,61.42,88.44l-.29.72-.77-.1c-17.07-2.25-32,3.8-40.94,16.58-8.5,12.15-9.81,28.05-3.32,40.51,7.3,14,23,21.75,44.27,21.75h69.77v20Z" transform="translate(0 0.01)"/><path class="cls-82" d="M138.8,222.27l-21-36.36h10.34v-16H60.37c-22,0-38.38-8.11-46-22.83C7.51,134,8.86,117.25,17.79,104.5,27,91.27,42.34,84.91,59.85,87c6.5-15.53,20.56-26,36.87-27.29a43.13,43.13,0,0,1,32.37,11.15c12.91-25.72,38.53-38.1,65.64-31.58a62.89,62.89,0,0,1,33.73,21A60.86,60.86,0,0,1,242.18,100c25.9-3,38.2,8.65,43.25,15.91,7.63,10.94,8.68,26.07,2.63,37.67-5.4,10.34-15.55,16.27-27.85,16.27H166.78V146.57h8.87l-17.53-30.36-17.53,30.36h8.92v39.34h10.33Zm-17.53-34.36,17.53,30.36,17.53-30.36h-8.82V148.57H137.12l21-36.36,21,36.36H168.78V167.9h91.43c11.7,0,21-5.4,26.08-15.2a35.22,35.22,0,0,0-2.5-35.6c-8.4-12.06-23.51-17.36-42.51-14.93l-1.15.15v-1.17c.86-33.58-22.43-54.31-45.9-59.95-26.57-6.39-51.68,6.06-64,31.73l-.6,1.25-1-1a41.17,41.17,0,0,0-31.75-11.5C81.08,63,67.51,73.22,61.42,88.44l-.29.72-.77-.1c-17.07-2.25-32,3.8-40.94,16.58-8.5,12.15-9.81,28.05-3.32,40.51,7.3,14,23,21.75,44.27,21.75h69.77v20Z" transform="translate(0 0.01)"/><path class="cls-83" d="M138.8,222.27l-21-36.36h10.34v-16H60.37c-22,0-38.38-8.11-46-22.83C7.51,134,8.86,117.25,17.79,104.5,27,91.27,42.34,84.91,59.85,87c6.5-15.53,20.56-26,36.87-27.29a43.13,43.13,0,0,1,32.37,11.15c12.91-25.72,38.53-38.1,65.64-31.58a62.89,62.89,0,0,1,33.73,21A60.86,60.86,0,0,1,242.18,100c25.9-3,38.2,8.65,43.25,15.91,7.63,10.94,8.68,26.07,2.63,37.67-5.4,10.34-15.55,16.27-27.85,16.27H166.78V146.57h8.87l-17.53-30.36-17.53,30.36h8.92v39.34h10.33Zm-17.53-34.36,17.53,30.36,17.53-30.36h-8.82V148.57H137.12l21-36.36,21,36.36H168.78V167.9h91.43c11.7,0,21-5.4,26.08-15.2a35.22,35.22,0,0,0-2.5-35.6c-8.4-12.06-23.51-17.36-42.51-14.93l-1.15.15v-1.17c.86-33.58-22.43-54.31-45.9-59.95-26.57-6.39-51.68,6.06-64,31.73l-.6,1.25-1-1a41.17,41.17,0,0,0-31.75-11.5C81.08,63,67.51,73.22,61.42,88.44l-.29.72-.77-.1c-17.07-2.25-32,3.8-40.94,16.58-8.5,12.15-9.81,28.05-3.32,40.51,7.3,14,23,21.75,44.27,21.75h69.77v20Z" transform="translate(0 0.01)"/><path class="cls-84" d="M138.8,222.27l-21-36.36h10.34v-16H60.37c-22,0-38.38-8.11-46-22.83C7.51,134,8.86,117.25,17.79,104.5,27,91.27,42.34,84.91,59.85,87c6.5-15.53,20.56-26,36.87-27.29a43.13,43.13,0,0,1,32.37,11.15c12.91-25.72,38.53-38.1,65.64-31.58a62.89,62.89,0,0,1,33.73,21A60.86,60.86,0,0,1,242.18,100c25.9-3,38.2,8.65,43.25,15.91,7.63,10.94,8.68,26.07,2.63,37.67-5.4,10.34-15.55,16.27-27.85,16.27H166.78V146.57h8.87l-17.53-30.36-17.53,30.36h8.92v39.34h10.33Zm-17.53-34.36,17.53,30.36,17.53-30.36h-8.82V148.57H137.12l21-36.36,21,36.36H168.78V167.9h91.43c11.7,0,21-5.4,26.08-15.2a35.22,35.22,0,0,0-2.5-35.6c-8.4-12.06-23.51-17.36-42.51-14.93l-1.15.15v-1.17c.86-33.58-22.43-54.31-45.9-59.95-26.57-6.39-51.68,6.06-64,31.73l-.6,1.25-1-1a41.17,41.17,0,0,0-31.75-11.5C81.08,63,67.51,73.22,61.42,88.44l-.29.72-.77-.1c-17.07-2.25-32,3.8-40.94,16.58-8.5,12.15-9.81,28.05-3.32,40.51,7.3,14,23,21.75,44.27,21.75h69.77v20Z" transform="translate(0 0.01)"/></g></g></svg>