<svg id="Layer_1" data-name="Layer 1" xmlns="http://www.w3.org/2000/svg" viewBox="0 0 1080.42 1917.08"><defs><style>.cls-1{opacity:0.6;}.cls-2{opacity:0.24;}.cls-3{fill:#9852f9;}.cls-4{opacity:0.5;}.cls-5{opacity:0.88;}.cls-6{opacity:0.58;}.cls-7{opacity:0.18;}.cls-8{opacity:0.7;}.cls-9{opacity:0.05;}.cls-10{opacity:0.34;}.cls-11{opacity:0.44;}.cls-12{opacity:0.87;}.cls-13{opacity:0.64;}.cls-14{opacity:0.65;}.cls-15{opacity:0.41;}.cls-16{opacity:0.19;}.cls-17{opacity:0.17;}.cls-18{opacity:0.92;}.cls-19{opacity:0.2;}.cls-20{opacity:0.27;}.cls-21{opacity:0.78;}.cls-22{opacity:0.94;}.cls-23{opacity:0.63;}.cls-24{opacity:0.76;}.cls-25{opacity:0.36;}.cls-26{opacity:0.06;}.cls-27{opacity:0.79;}.cls-28{opacity:0.4;}.cls-29{opacity:0.14;}.cls-30{opacity:0.3;}.cls-31{opacity:0.72;}.cls-32{opacity:0.59;}.cls-33{opacity:0.25;}.cls-34{opacity:0.77;}.cls-35{opacity:0.23;}.cls-36{opacity:0.13;}.cls-37{opacity:0.29;}.cls-38{opacity:0.32;}.cls-39{opacity:0.35;}.cls-40{opacity:0.8;}.cls-41{opacity:0.38;}.cls-42{opacity:0.93;}</style></defs><title>asset_pattern_16 9</title><g id="Layer_2" data-name="Layer 2"><g id="Layer_1-2" data-name="Layer 1-2"><g class="cls-1"><g id="triangle36" class="cls-2"><path class="cls-3" d="M810.68,1746.45l43.24-57.11,15.4,53.37Zm42.77-54.62-40.35,53.29,54.73-3.53Z" transform="translate(-3.36 -2.92)"/></g><g id="triangle36-2" class="cls-4"><path class="cls-3" d="M953.6,1823.48l90.9,8.06-.74.84L978.34,1907Zm88.55,9-87-7.65,23.7,79.87Z" transform="translate(-3.36 -2.92)"/></g><g class="cls-5"><path class="cls-3" d="M977.41,1906.3l66-75.3,40.37,78.42-47.8.84ZM1043.2,1833l-63.41,72.29,56.26,3.82,45.91-.81Z" transform="translate(-3.36 -2.92)"/></g><g id="triangle36-3" class="cls-6"><path class="cls-3" d="M844.29,1482.27l.56-1,37.56,17.94,3.39,9.75Zm37.2,17.77-29-13.83,31.1,20Z" transform="translate(-3.36 -2.92)"/></g><g id="triangle36-4" class="cls-7"><path class="cls-3" d="M894,1448.66l6.22-66.83,45.17,35.32Zm7.16-64.67-5.81,62.49,48-29.47Z" transform="translate(-3.36 -2.92)"/></g><g id="triangle36-5" class="cls-8"><path class="cls-3" d="M539.2,1723.38l.57-.63,39.1-43.22-5.43,56.58Zm38.2-40.53-36.2,40,31.26,11.63Z" transform="translate(-3.36 -2.92)"/></g><g id="triangle36-6" class="cls-9"><path class="cls-3" d="M867.75,1742.57,878,1720.39l.52.23,92.52,42.45Zm10.83-20.66-9.17,19.79L961.74,1760Z" transform="translate(-3.36 -2.92)"/></g><g id="triangle36-7" class="cls-10"><path class="cls-3" d="M956.11,1588.15l76.32,40-50.73,7.57-.18-.36Zm72.71,39.38-69.91-36.64,23.45,43.6Z" transform="translate(-3.36 -2.92)"/></g><g id="triangle36-8" class="cls-11"><path class="cls-3" d="M1029.83,1628.19l25.61-58.46,13.44,70.1Zm25.18-54.66-23.61,53.93,36,10.74Z" transform="translate(-3.36 -2.92)"/></g><g id="triangle36-9" class="cls-12"><path class="cls-3" d="M943.58,1417.55l16.33-53.79.64.44,99.17,68.1Zm16.95-52-15.5,51,110.12,14Z" transform="translate(-3.36 -2.92)"/></g><g id="triangle36-10" class="cls-13"><path class="cls-3" d="M537,1721.31l37.23,13.88-11,6.8Zm34.69,14.14-28.19-10.51,19.93,15.65Z" transform="translate(-3.36 -2.92)"/></g><g id="triangle36-11" class="cls-14"><path class="cls-3" d="M537.28,1876.76,557.51,1782l30.88,106.53Zm20.41-90.08-19,89.22L586.82,1887Z" transform="translate(-3.36 -2.92)"/></g><g id="triangle36-12" class="cls-15"><path class="cls-3" d="M559.69,1764.65l3.11-23.7,11.5-7.14Zm4.17-23-2.09,16,9.83-20.82Z" transform="translate(-3.36 -2.92)"/></g><g id="triangle36-13" class="cls-16"><path class="cls-3" d="M680.78,1703.83,739.71,1628l20.66,80Zm58.42-73.34L683,1702.83l75.84,4Z" transform="translate(-3.36 -2.92)"/></g><g class="cls-17"><path class="cls-3" d="M661.58,1904.35l38.82,11.83-33.52.59Zm31.6,10.81-29.55-9,4,9.45Z" transform="translate(-3.36 -2.92)"/></g><g class="cls-10"><path class="cls-3" d="M1054.63,1572l3.24-78.07,19.58,36.28.91,51.51Zm4.25-73.83-3,73.06,21.34,8.8-.88-49.63Z" transform="translate(-3.36 -2.92)"/></g><g id="triangle36-14" class="cls-18"><path class="cls-3" d="M880.8,1498.07l36.91,27.3-.61,1L884.26,1508Zm29,22.89-26.73-19.78,2.1,6Z" transform="translate(-3.36 -2.92)"/></g><g id="triangle36-15" class="cls-19"><path class="cls-3" d="M916.2,1525l53.48,10.35L957.78,1591Zm52.12,11.26-49.74-9.64L957.2,1588Z" transform="translate(-3.36 -2.92)"/></g><g id="triangle36-16" class="cls-20"><path class="cls-3" d="M955.66,1590.43l61.26-56.68,39.5,38.22Zm61.24-55.09-57.57,53.27,94.71-17.34Z" transform="translate(-3.36 -2.92)"/></g><g id="triangle36-17" class="cls-21"><path class="cls-3" d="M964.64,1760.72l85.09,12.74-5.94,59.74-.85-.77Zm83.88,13.71-80.35-12,74.71,68.4Z" transform="translate(-3.36 -2.92)"/></g><g class="cls-22"><path class="cls-3" d="M1047.37,1773.91l34.18-10.94.42,23.47Zm33.07-9.35-29.52,9.42,29.88,10.85Z" transform="translate(-3.36 -2.92)"/></g><g id="triangle36-18" class="cls-4"><path class="cls-3" d="M537.45,1881.42l-1.29-91.9,22.19-6Zm-.14-91,1.14,80.85,18.41-86.13Z" transform="translate(-3.36 -2.92)"/></g><g id="triangle36-19" class="cls-23"><path class="cls-3" d="M787.2,1458.74l58.28,22.79-30.55,43.3Zm56.5,23.32-54.37-21.23,25.87,61.63Z" transform="translate(-3.36 -2.92)"/></g><g id="triangle36-20" class="cls-24"><path class="cls-3" d="M813.29,1523.44l72-16.56.23,50.81Zm70.91-15.13-67.4,15.52,67.57,32.06Z" transform="translate(-3.36 -2.92)"/></g><g id="triangle36-21" class="cls-25"><path class="cls-3" d="M877,1721.17l105.69-52.12-15.81,93.35Zm104.23-50.11-101.56,50.07,86.33,39.6Z" transform="translate(-3.36 -2.92)"/></g><g id="triangle36-22" class="cls-26"><path class="cls-3" d="M869.14,1618.23l113.45,16.36-.11,36.36Zm112.32,17.35-104.77-15.1,104.65,48.68Z" transform="translate(-3.36 -2.92)"/></g><g id="triangle36-23" class="cls-1"><path class="cls-3" d="M758.14,1707.66l51.92-33.92-22.69,39.78Zm48.58-30.32-45.61,29.75,25.67,5.19Z" transform="translate(-3.36 -2.92)"/></g><g id="triangle36-24" class="cls-27"><path class="cls-3" d="M758.81,1708.58l11.73-60.22,38.87,27.23Zm12.52-58.3-10.89,55.86,46.93-30.61Z" transform="translate(-3.36 -2.92)"/></g><g id="triangle36-25" class="cls-28"><path class="cls-3" d="M784.2,1716.83,808.08,1675l16.4-1.29Zm24.57-40.77L790,1708.91l31.6-33.84Z" transform="translate(-3.36 -2.92)"/></g><g id="triangle36-26" class="cls-29"><path class="cls-3" d="M783.84,1611.83l40.22,63.07-16,1.29Zm38.23,62.09-33.29-52.22,20,53.24Z" transform="translate(-3.36 -2.92)"/></g><g class="cls-30"><path class="cls-3" d="M630.33,1917.42l.85-5.7,7.86,5.54Zm1.7-3.69-.37,2.51,3.85-.06Z" transform="translate(-3.36 -2.92)"/></g><g id="triangle36-27" class="cls-6"><path class="cls-3" d="M431.84,1836.26l58.63-16.35-21.33,38.38Zm56.28-14.51-53.37,14.89,34,20Z" transform="translate(-3.36 -2.92)"/></g><g id="triangle36-28" class="cls-31"><path class="cls-3" d="M572.29,1736.33l5.4-56.34,36.43,33.84Zm6.32-53.93-5,51.91,38.59-20.68Z" transform="translate(-3.36 -2.92)"/></g><g id="triangle36-29" class="cls-13"><path class="cls-3" d="M576.1,1680.08l32,8.23,6,27Zm31,9.19-26.91-7,32,29.71Z" transform="translate(-3.36 -2.92)"/></g><g class="cls-32"><path class="cls-3" d="M863.25,1913.31l2.59-14.86,23.08,14.41Zm3.42-13-2,11.81,20.42-.36Z" transform="translate(-3.36 -2.92)"/></g><g id="triangle36-30" class="cls-15"><path class="cls-3" d="M661.7,1907l19.39-110,38.11,50.44-.35.35Zm20.11-107.23L663.52,1903.5l54.19-56.16Z" transform="translate(-3.36 -2.92)"/></g><g id="triangle36-31" class="cls-22"><path class="cls-3" d="M778.36,1843l67.84-25.06-25.87,89.36Zm66.09-23.12-64.34,23.78,39.79,61Z" transform="translate(-3.36 -2.92)"/></g><g id="triangle36-32" class="cls-33"><path class="cls-3" d="M893.5,1447.58l51.11-31.36L974,1494.38ZM944,1417.92l-48.3,29.64,76.1,44.22Z" transform="translate(-3.36 -2.92)"/></g><g id="triangle36-33" class="cls-32"><path class="cls-3" d="M968.34,1536.67l4.13-44.82L1006,1523Zm5.06-42.38L969.64,1535l34.19-12.41Z" transform="translate(-3.36 -2.92)"/></g><g class="cls-34"><path class="cls-3" d="M1053.2,1334l20.5-19.12.23,13.2Z" transform="translate(-3.36 -2.92)"/></g><g id="triangle36-34" class="cls-35"><path class="cls-3" d="M556.92,1785.05l3.35-24.79,35.25,17.07Zm4.27-23.08-2.92,21.65,33.68-6.75Z" transform="translate(-3.36 -2.92)"/></g><g id="triangle36-35" class="cls-36"><path class="cls-3" d="M560,1761.39,573,1734l22,44.34Zm13-24.76-11.44,24.2,31,15Z" transform="translate(-3.36 -2.92)"/></g><g id="triangle36-36" class="cls-37"><path class="cls-3" d="M572.2,1735.08l41.9-22.55-20.23,66.11Zm40-20.25-38.48,20.68,19.9,40Z" transform="translate(-3.36 -2.92)"/></g><g id="triangle36-37" class="cls-27"><path class="cls-3" d="M590.2,1776.83l102.92-8.89L681.8,1799Zm101.23-7.59-94.16,8.13,83.83,20.32Z" transform="translate(-3.36 -2.92)"/></g><g class="cls-24"><path class="cls-3" d="M476.66,1865.53l1.13-.2,12.83,54.55-6.8.12Zm12.55,53.23-9.9-42.09,5.54,42.16Z" transform="translate(-3.36 -2.92)"/></g><g class="cls-38"><path class="cls-3" d="M582.65,1918.26l4.55-31.43L633.28,1913l-24.68,4.79Zm5.4-29.57L584,1917.12l24.45-.44,21.55-4.22Z" transform="translate(-3.36 -2.92)"/></g><g id="triangle36-38" class="cls-34"><path class="cls-3" d="M488.66,1821.92l2.55-57.15L537.86,1790Zm3.62-55.28-2.38,53L535.62,1790Z" transform="translate(-3.36 -2.92)"/></g><g id="triangle36-39" class="cls-27"><path class="cls-3" d="M491.35,1765.29,538.62,1720l2.35,3.23-48.84,42.92Zm47.12-43.58-27.27,26.12L539.46,1723Z" transform="translate(-3.36 -2.92)"/></g><g id="triangle36-40" class="cls-31"><path class="cls-3" d="M593.65,1678.36l22-20.82-7.72,32.29Zm20-17.36-18.23,17.28,11.78,9.55Z" transform="translate(-3.36 -2.92)"/></g><g class="cls-29"><path class="cls-3" d="M927.57,1874.47l52,31.27-7.14,5.64-14.82.27Zm50,31.35-45-27,25.57,31.7,13.9-.25Z" transform="translate(-3.36 -2.92)"/></g><g id="triangle36-41" class="cls-39"><path class="cls-3" d="M843.27,1482l52.61-36L877,1491.67Zm50.08-32.89-47.44,32.45,30.43,8.7Z" transform="translate(-3.36 -2.92)"/></g><g id="triangle36-42" class="cls-1"><path class="cls-3" d="M876.05,1491l18-43.68,1.08.36-13,53.39Zm16.25-36.34-15,36.27,4.38,7.22Z" transform="translate(-3.36 -2.92)"/></g><g id="triangle36-43" class="cls-40"><path class="cls-3" d="M981.33,1672.93l.12-39.09,11.93,10.3Zm1.26-36.6-.1,30.86,9.51-22.72Z" transform="translate(-3.36 -2.92)"/></g><g id="triangle36-44" class="cls-41"><path class="cls-3" d="M980.7,1634.73l54.12-8.1L992.58,1645Zm45.69-5.68-43.1,6.42,9.46,8.17Z" transform="translate(-3.36 -2.92)"/></g><g id="triangle36-45" class="cls-42"><path class="cls-3" d="M756.65,1706.18l33.22,6.7-16.67,3.64Zm27.65,6.74-21.75-4.34,10.81,6.75Z" transform="translate(-3.36 -2.92)"/></g><g id="triangle36-46" class="cls-22"><path class="cls-3" d="M691.89,1768.17l67.62-61.53,14.8,9.25-81.71,53.18Zm67.8-60.1-61.79,56.18,74.3-48.32Z" transform="translate(-3.36 -2.92)"/></g><g id="triangle36-47" class="cls-2"><path class="cls-3" d="M432.2,270.92l-69.56,89.52-23.28-84.7Zm-68.77,85.52,64.93-83.5-86.63,4.5Z" transform="translate(-3.36 -2.92)"/></g><g id="triangle36-48" class="cls-4"><path class="cls-3" d="M207.68,146.19,64,131.62l1.2-1.32,105-116.67Zm-139.95-16,137.49,13.94L169.36,17.24Z" transform="translate(-3.36 -2.92)"/></g><g class="cls-5"><path class="cls-3" d="M171.65,14.7l-106,117.8L3.36,7.63,79,7.25ZM66.08,129.35,167.85,16.21,79,9.06,6.3,9.44Z" transform="translate(-3.36 -2.92)"/></g><g id="triangle36-49" class="cls-6"><path class="cls-3" d="M373.73,688.18l-.87,1.57L313.8,660.61l-5.18-15.5Zm-58.52-28.86,45.52,22.43-48.8-32.26Z" transform="translate(-3.36 -2.92)"/></g><g id="triangle36-50" class="cls-7"><path class="cls-3" d="M294.52,740.36,283.36,846l-70.74-56.79ZM281.88,842.52l10.48-98.74-76.61,45.66Z" transform="translate(-3.36 -2.92)"/></g><g id="triangle36-51" class="cls-8"><path class="cls-3" d="M861.2,312.88l-.91,1-62.72,67.56L807.29,292ZM800,376.2l58.1-62.59-49.23-19Z" transform="translate(-3.36 -2.92)"/></g><g id="triangle36-52" class="cls-9"><path class="cls-3" d="M341.84,275.92l-16.7,34.88-.78-.36-145.54-69Zm-17.55,32.52,14.92-31.18-145.73-30.9Z" transform="translate(-3.36 -2.92)"/></g><g id="triangle36-53" class="cls-10"><path class="cls-3" d="M199,518.44,79,453.66l80.4-11,.29.56ZM84.74,454.7l109.88,59.35-36.26-69.41Z" transform="translate(-3.36 -2.92)"/></g><g id="triangle36-54" class="cls-11"><path class="cls-3" d="M83.14,453.62l-41.7,92L21.58,434.44Zm-40.94,86,38.45-84.88L23.93,437Z" transform="translate(-3.36 -2.92)"/></g><g id="triangle36-55" class="cls-12"><path class="cls-3" d="M215.36,788.58l-26.92,84.78-1-.71L31.94,763Zm-27.92,81.86L213,790.07,39.09,765.78Z" transform="translate(-3.36 -2.92)"/></g><g id="triangle36-56" class="cls-13"><path class="cls-3" d="M864.71,316.17,806,293.44l17.48-10.54Zm-54.6-23.05,44.44,17.2-31.19-25.16Z" transform="translate(-3.36 -2.92)"/></g><g id="triangle36-57" class="cls-14"><path class="cls-3" d="M867.36,70.25,833.43,219.77,786.65,50.61Zm-34.1,142.1,31.9-140.77-76-18.48Z" transform="translate(-3.36 -2.92)"/></g><g id="triangle36-58" class="cls-15"><path class="cls-3" d="M829.64,247.16l-5.39,37.43L805.9,295.67Zm-7.06,36.28,3.63-25.19-16,32.65Z" transform="translate(-3.36 -2.92)"/></g><g id="triangle36-59" class="cls-16"><path class="cls-3" d="M636.85,341,542.13,459.81,511,332.81ZM543,455.8l90.3-113.28-119.92-7.79Z" transform="translate(-3.36 -2.92)"/></g><g class="cls-17"><path class="cls-3" d="M671.24,24.12,610.08,4.62l53-.26ZM621.5,6.37l46.55,14.85-6.18-15Z" transform="translate(-3.36 -2.92)"/></g><g class="cls-10"><path class="cls-3" d="M42.76,542l-6.67,123.4L5.83,607.69l-.4-81.51ZM34.62,658.76l6.26-115.55L7.25,528.93l.39,78.51Z" transform="translate(-3.36 -2.92)"/></g><g id="triangle36-60" class="cls-18"><path class="cls-3" d="M316.29,662.44,258.44,618.5l1-1.5L311,646.68Zm-45.48-36.8,41.9,31.8-3.2-9.57Z" transform="translate(-3.36 -2.92)"/></g><g id="triangle36-61" class="cls-19"><path class="cls-3" d="M260.85,619.11l-84.39-17.46,19.9-87.77Zm-82.22-18.85,78.48,16.23-60-97.87Z" transform="translate(-3.36 -2.92)"/></g><g id="triangle36-62" class="cls-20"><path class="cls-3" d="M199.71,514.84l-98,88.47L39.93,542Zm-98,86,92.15-83.12L43.71,543.2Z" transform="translate(-3.36 -2.92)"/></g><g id="triangle36-63" class="cls-21"><path class="cls-3" d="M188.93,245.26,54.5,223.44,65.17,129l1.31,1.23ZM56.49,221.89l126.87,20.63L66.59,132.76Z" transform="translate(-3.36 -2.92)"/></g><g class="cls-22"><path class="cls-3" d="M58.36,222.74,4,239.31l-.18-37.1ZM5.83,236.87l46.86-14.31-47-17.71Z" transform="translate(-3.36 -2.92)"/></g><g id="triangle36-64" class="cls-4"><path class="cls-3" d="M867.16,62.88l.2,145.41-35.23,9Zm-1.6,144L865.36,79l-30.8,135.87Z" transform="translate(-3.36 -2.92)"/></g><g id="triangle36-65" class="cls-23"><path class="cls-3" d="M463.55,726.56l-91.73-37.22L421,621.44Zm-88.91-38,85.63,34.74-39.69-98.07Z" transform="translate(-3.36 -2.92)"/></g><g id="triangle36-66" class="cls-24"><path class="cls-3" d="M423.54,623.68,309.36,648.44,310,568ZM311.19,646.19,418.07,623,311.82,570.93Z" transform="translate(-3.36 -2.92)"/></g><g id="triangle36-67" class="cls-25"><path class="cls-3" d="M326.83,309.59,158.57,389.92l26.9-147.36ZM161,386.77,322.64,309.6,186.87,245.21Z" transform="translate(-3.36 -2.92)"/></g><g id="triangle36-68" class="cls-26"><path class="cls-3" d="M337.15,472.59,158,444.44l.91-57.51Zm-177.32-29.7,165.43,26L160.65,389.77Z" transform="translate(-3.36 -2.92)"/></g><g id="triangle36-69" class="cls-1"><path class="cls-3" d="M514.5,333.37l-82.81,52.54,36.67-62.47Zm-77.46,47,72.75-46.16-40.52-8.77Z" transform="translate(-3.36 -2.92)"/></g><g id="triangle36-70" class="cls-27"><path class="cls-3" d="M513.51,331.88l-19.79,95.05-60.93-43.86Zm-21,92,18.35-88.15L436,383.22Z" transform="translate(-3.36 -2.92)"/></g><g id="triangle36-71" class="cls-28"><path class="cls-3" d="M473.57,318.25,434.94,384l-26,1.68Zm-39.7,64,30.3-51.55-50.68,52.91Z" transform="translate(-3.36 -2.92)"/></g><g id="triangle36-72" class="cls-29"><path class="cls-3" d="M472,484.44l-62.35-100.6L435,382.2Zm-59.19-99,51.61,83.27-30.62-84.63Z" transform="translate(-3.36 -2.92)"/></g><g class="cls-30"><path class="cls-3" d="M721,4.07l-1.45,9L707.14,4.14Zm-2.77,5.8.64-4h-6.1Z" transform="translate(-3.36 -2.92)"/></g><g id="triangle36-73" class="cls-6"><path class="cls-3" d="M1033.36,136.44l-93,24.69,34.41-60.29ZM944,158.27l84.76-22.49-53.41-32.4Z" transform="translate(-3.36 -2.92)"/></g><g id="triangle36-74" class="cls-31"><path class="cls-3" d="M809.14,291.71l-9.68,89-57-54.25ZM798.06,376.9l8.92-82-61.39,32Z" transform="translate(-3.36 -2.92)"/></g><g id="triangle36-75" class="cls-13"><path class="cls-3" d="M802,380.63l-50.41-13.69-9-42.89Zm-48.86-15.19L795.55,377l-50-47.67Z" transform="translate(-3.36 -2.92)"/></g><g class="cls-32"><path class="cls-3" d="M352.36,5.9,348,29.35,311.76,6.1Zm-5.68,20.47,3.49-18.65-32.3.16Z" transform="translate(-3.36 -2.92)"/></g><g id="triangle36-76" class="cls-15"><path class="cls-3" d="M671.11,19.92l-32.9,173.67L579,113l.54-.55ZM637.2,189.17l31-163.73-86.86,87.74Z" transform="translate(-3.36 -2.92)"/></g><g id="triangle36-77" class="cls-22"><path class="cls-3" d="M485.26,118.91,377.48,157.19,420.2,16.35Zm-105,35.37L482.53,118,420.79,20.65Z" transform="translate(-3.36 -2.92)"/></g><g id="triangle36-78" class="cls-33"><path class="cls-3" d="M295.19,742.06l-81.5,48.58-45-124.2Zm-80.54,46,77-45.92-119.5-71.52Z" transform="translate(-3.36 -2.92)"/></g><g id="triangle36-79" class="cls-32"><path class="cls-3" d="M178.59,599.64l-7.49,70.8-52.41-49.92Zm-8.86,66.94,6.76-64.3-54.33,18.94Z" transform="translate(-3.36 -2.92)"/></g><g id="triangle36-80" class="cls-35"><path class="cls-3" d="M834.43,214.94l-5.83,39.15-55.43-27.71Zm-7.22,36.43,5.06-34.18-53.46,10Z" transform="translate(-3.36 -2.92)"/></g><g id="triangle36-81" class="cls-36"><path class="cls-3" d="M829.13,252.32l-21.08,43.05-34-70.59Zm-21.06,38.91,18.64-38.09L778,228.77Z" transform="translate(-3.36 -2.92)"/></g><g id="triangle36-82" class="cls-37"><path class="cls-3" d="M809.26,293.73l-66.75,34.82,33.34-104.17Zm-63.68,31.18,61.29-32-30.66-63.66Z" transform="translate(-3.36 -2.92)"/></g><g id="triangle36-83" class="cls-27"><path class="cls-3" d="M781.61,227.27l-163,12,18.54-49Zm-160.25,10,149.12-11L638.36,192.44Z" transform="translate(-3.36 -2.92)"/></g><g class="cls-24"><path class="cls-3" d="M963,89.23l-1.79.3L942,3l10.78-.05ZM944.3,4.77l14.82,66.79L951.2,4.74Z" transform="translate(-3.36 -2.92)"/></g><g class="cls-38"><path class="cls-3" d="M796.36,3.7l-7.75,49.6L716.27,11l39.17-7.09Zm-9.1,46.74,7-44.88-38.7.19-34.2,6.17Z" transform="translate(-3.36 -2.92)"/></g><g id="triangle36-84" class="cls-34"><path class="cls-3" d="M943.12,158l-5.19,90.37-73.28-40.72Zm-6.83,87.39,4.81-84-73,46.13Z" transform="translate(-3.36 -2.92)"/></g><g id="triangle36-85" class="cls-27"><path class="cls-3" d="M937.76,247.52,862,318.26l-3.65-5.2,78.22-66.88Zm-75.45,68L906,274.68l-45.2,38.76Z" transform="translate(-3.36 -2.92)"/></g><g id="triangle36-86" class="cls-31"><path class="cls-3" d="M774.18,383,739,415.5l12.81-50.92ZM742.26,410l29.2-27L752.9,367.77Z" transform="translate(-3.36 -2.92)"/></g><g class="cls-29"><path class="cls-3" d="M249.84,66l-81.68-50.5,11.43-8.77L203,6.66ZM171.36,15.38,242.1,59.12,202.16,8.44l-22,.11Z" transform="translate(-3.36 -2.92)"/></g><g id="triangle36-87" class="cls-39"><path class="cls-3" d="M375.36,688.63l-84,55.87,30.76-71.84Zm-79.89,51,75.67-50.38-48-14.39Z" transform="translate(-3.36 -2.92)"/></g><g id="triangle36-88" class="cls-1"><path class="cls-3" d="M323.66,673.7l-29.42,68.74-1.75-.58,21.64-84.21Zm-26.44,57.16,24.41-57-6.81-11.51Z" transform="translate(-3.36 -2.92)"/></g><g id="triangle36-89" class="cls-40"><path class="cls-3" d="M160.76,383.81l-1,61.85-18.65-16.54ZM158,441.68l.77-48.79L143.3,428.64Z" transform="translate(-3.36 -2.92)"/></g><g id="triangle36-90" class="cls-41"><path class="cls-3" d="M161,444.29,75.2,456l67.16-28.21Zm-72.4,8.07L156.83,443l-14.78-13.12Z" transform="translate(-3.36 -2.92)"/></g><g id="triangle36-91" class="cls-42"><path class="cls-3" d="M516.87,335.72l-52.41-11.28L490.92,319Zm-43.61-11.23,34.26,7.33-17-10.9Z" transform="translate(-3.36 -2.92)"/></g><g id="triangle36-92" class="cls-22"><path class="cls-3" d="M620.57,238.91l-108.29,96L489.05,320l130.39-82.44ZM512.14,332.67,611,245.06l-118.56,75Z" transform="translate(-3.36 -2.92)"/></g></g></g></g></svg>