<svg id="Layer_1" data-name="Layer 1" xmlns="http://www.w3.org/2000/svg" viewBox="0 0 1923.62 1087.69"><defs><style>.cls-1{opacity:0.6;}.cls-2{opacity:0.24;}.cls-3{fill:#9852f9;}.cls-4{opacity:0.5;}.cls-5{opacity:0.88;}.cls-6{opacity:0.58;}.cls-7{opacity:0.18;}.cls-8{opacity:0.7;}.cls-9{opacity:0.05;}.cls-10{opacity:0.34;}.cls-11{opacity:0.44;}.cls-12{opacity:0.87;}.cls-13{opacity:0.64;}.cls-14{opacity:0.65;}.cls-15{opacity:0.41;}.cls-16{opacity:0.19;}.cls-17{opacity:0.17;}.cls-18{opacity:0.92;}.cls-19{opacity:0.2;}.cls-20{opacity:0.27;}.cls-21{opacity:0.78;}.cls-22{opacity:0.94;}.cls-23{opacity:0.63;}.cls-24{opacity:0.76;}.cls-25{opacity:0.36;}.cls-26{opacity:0.06;}.cls-27{opacity:0.79;}.cls-28{opacity:0.4;}.cls-29{opacity:0.14;}.cls-30{opacity:0.3;}.cls-31{opacity:0.72;}.cls-32{opacity:0.59;}.cls-33{opacity:0.25;}.cls-34{opacity:0.77;}.cls-35{opacity:0.23;}.cls-36{opacity:0.13;}.cls-37{opacity:0.29;}.cls-38{opacity:0.32;}.cls-39{opacity:0.35;}.cls-40{opacity:0.8;}.cls-41{opacity:0.38;}.cls-42{opacity:0.93;}</style></defs><title>Asset 5event_variation</title><g id="Layer_2" data-name="Layer 2"><g id="Layer_1-2" data-name="Layer 1-2"><g class="cls-1"><g id="triangle36" class="cls-2"><path class="cls-3" d="M1650.48,912.62l43.24-57.11,15.4,53.37ZM1693.25,858l-40.35,53.29,54.73-3.53Z" transform="translate(0 1.52)"/></g><g id="triangle36-2" class="cls-4"><path class="cls-3" d="M1793.4,989.65l90.9,8.06-.74.84-65.42,74.58Zm88.55,9L1795,991l23.7,79.87Z" transform="translate(0 1.52)"/></g><g class="cls-5"><path class="cls-3" d="M1817.21,1072.47l66-75.3,40.37,78.42-47.8.84ZM1883,999.18l-63.41,72.29,56.26,3.82,45.91-.81Z" transform="translate(0 1.52)"/></g><g id="triangle36-3" class="cls-6"><path class="cls-3" d="M1684.09,648.44l.56-1,37.56,17.94,3.39,9.75Zm37.2,17.77-29-13.83,31.1,20Z" transform="translate(0 1.52)"/></g><g id="triangle36-4" class="cls-7"><path class="cls-3" d="M1733.78,614.83,1740,548l45.17,35.32Zm7.16-64.67-5.81,62.49,48-29.47Z" transform="translate(0 1.52)"/></g><g id="triangle36-5" class="cls-8"><path class="cls-3" d="M1379,889.55l.57-.63,39.1-43.22-5.43,56.58Zm38.2-40.53L1381,889l31.26,11.63Z" transform="translate(0 1.52)"/></g><g id="triangle36-6" class="cls-9"><path class="cls-3" d="M1707.55,908.74l10.27-22.18.52.23,92.52,42.45Zm10.83-20.66-9.17,19.79,92.33,18.33Z" transform="translate(0 1.52)"/></g><g id="triangle36-7" class="cls-10"><path class="cls-3" d="M1795.91,754.32l76.32,40-50.73,7.57-.18-.36Zm72.71,39.38-69.91-36.64,23.45,43.6Z" transform="translate(0 1.52)"/></g><g id="triangle36-8" class="cls-11"><path class="cls-3" d="M1869.63,794.36l25.61-58.46L1908.68,806Zm25.18-54.66-23.61,53.93,36,10.74Z" transform="translate(0 1.52)"/></g><g id="triangle36-9" class="cls-12"><path class="cls-3" d="M1783.38,583.72l16.33-53.79.64.44,99.17,68.1Zm16.95-52-15.5,51,110.12,14Z" transform="translate(0 1.52)"/></g><g id="triangle36-10" class="cls-13"><path class="cls-3" d="M1376.77,887.48,1414,901.36l-11,6.8Zm34.69,14.14-28.19-10.51,19.93,15.65Z" transform="translate(0 1.52)"/></g><g id="triangle36-11" class="cls-14"><path class="cls-3" d="M1377.08,1042.93l20.23-94.77,30.88,106.53Zm20.41-90.08-19,89.22,48.13,11.07Z" transform="translate(0 1.52)"/></g><g id="triangle36-12" class="cls-15"><path class="cls-3" d="M1399.49,930.82l3.11-23.7,11.5-7.14Zm4.17-23-2.09,16L1411.4,903Z" transform="translate(0 1.52)"/></g><g id="triangle36-13" class="cls-16"><path class="cls-3" d="M1520.58,870l58.93-75.85,20.66,80ZM1579,796.66,1522.83,869l75.84,4Z" transform="translate(0 1.52)"/></g><g class="cls-17"><path class="cls-3" d="M1501.38,1070.52l38.82,11.83-33.52.59Zm31.6,10.81-29.55-9,4,9.45Z" transform="translate(0 1.52)"/></g><g class="cls-10"><path class="cls-3" d="M1894.43,738.15l3.24-78.07,19.58,36.28.91,51.51Zm4.25-73.83-3,73.06,21.34,8.8-.88-49.63Z" transform="translate(0 1.52)"/></g><g id="triangle36-14" class="cls-18"><path class="cls-3" d="M1720.6,664.24l36.91,27.3-.61,1-32.84-18.34Zm29,22.89-26.73-19.78,2.1,6Z" transform="translate(0 1.52)"/></g><g id="triangle36-15" class="cls-19"><path class="cls-3" d="M1756,691.19l53.48,10.35-11.9,55.64Zm52.12,11.26-49.74-9.64L1797,754.19Z" transform="translate(0 1.52)"/></g><g id="triangle36-16" class="cls-20"><path class="cls-3" d="M1795.46,756.6l61.26-56.68,39.5,38.22Zm61.24-55.09-57.57,53.27,94.71-17.34Z" transform="translate(0 1.52)"/></g><g id="triangle36-17" class="cls-21"><path class="cls-3" d="M1804.44,926.89l85.09,12.74-5.94,59.74-.85-.77Zm83.88,13.71-80.35-12L1882.68,997Z" transform="translate(0 1.52)"/></g><g class="cls-22"><path class="cls-3" d="M1887.17,940.08l34.18-10.94.42,23.47Zm33.07-9.35-29.52,9.42L1920.6,951Z" transform="translate(0 1.52)"/></g><g id="triangle36-18" class="cls-4"><path class="cls-3" d="M1377.25,1047.59l-1.29-91.9,22.19-6Zm-.14-91,1.14,80.85,18.41-86.13Z" transform="translate(0 1.52)"/></g><g id="triangle36-19" class="cls-23"><path class="cls-3" d="M1627,624.91l58.28,22.79L1654.73,691Zm56.5,23.32L1629.13,627,1655,688.63Z" transform="translate(0 1.52)"/></g><g id="triangle36-20" class="cls-24"><path class="cls-3" d="M1653.09,689.61l72-16.56.23,50.81ZM1724,674.48,1656.6,690l67.57,32.06Z" transform="translate(0 1.52)"/></g><g id="triangle36-21" class="cls-25"><path class="cls-3" d="M1716.77,887.34l105.69-52.12-15.81,93.35ZM1821,837.23,1719.44,887.3l86.33,39.6Z" transform="translate(0 1.52)"/></g><g id="triangle36-22" class="cls-26"><path class="cls-3" d="M1708.94,784.4l113.45,16.36-.11,36.36Zm112.32,17.35-104.77-15.1,104.65,48.68Z" transform="translate(0 1.52)"/></g><g id="triangle36-23" class="cls-1"><path class="cls-3" d="M1597.94,873.83l51.92-33.92-22.69,39.78Zm48.58-30.32-45.61,29.75,25.67,5.19Z" transform="translate(0 1.52)"/></g><g id="triangle36-24" class="cls-27"><path class="cls-3" d="M1598.61,874.75l11.73-60.22,38.87,27.23Zm12.52-58.3-10.89,55.86,46.93-30.61Z" transform="translate(0 1.52)"/></g><g id="triangle36-25" class="cls-28"><path class="cls-3" d="M1624,883l23.88-41.86,16.4-1.29Zm24.57-40.77-18.73,32.85,31.6-33.84Z" transform="translate(0 1.52)"/></g><g id="triangle36-26" class="cls-29"><path class="cls-3" d="M1623.64,778l40.22,63.07-16,1.29Zm38.23,62.09-33.29-52.22,20,53.24Z" transform="translate(0 1.52)"/></g><g class="cls-30"><path class="cls-3" d="M1470.13,1083.59l.85-5.7,7.86,5.54Zm1.7-3.69-.37,2.51,3.85-.06Z" transform="translate(0 1.52)"/></g><g id="triangle36-27" class="cls-6"><path class="cls-3" d="M1271.64,1002.43l58.63-16.35-21.33,38.38Zm56.28-14.51-53.37,14.89,34,20.05Z" transform="translate(0 1.52)"/></g><g id="triangle36-28" class="cls-31"><path class="cls-3" d="M1412.09,902.5l5.4-56.34L1453.92,880Zm6.32-53.93-5,51.91L1452,879.8Z" transform="translate(0 1.52)"/></g><g id="triangle36-29" class="cls-13"><path class="cls-3" d="M1415.9,846.25l32,8.23,6,27Zm31,9.19-26.91-7,32,29.71Z" transform="translate(0 1.52)"/></g><g class="cls-32"><path class="cls-3" d="M1703.05,1079.48l2.59-14.86,23.08,14.41Zm3.42-13-2,11.81,20.42-.36Z" transform="translate(0 1.52)"/></g><g id="triangle36-30" class="cls-15"><path class="cls-3" d="M1501.5,1073.16l19.39-110L1559,1013.6l-.35.35Zm20.11-107.23-18.29,103.74,54.19-56.16Z" transform="translate(0 1.52)"/></g><g id="triangle36-31" class="cls-22"><path class="cls-3" d="M1618.16,1009.12,1686,984.06l-25.87,89.36ZM1684.25,986l-64.34,23.78,39.79,61Z" transform="translate(0 1.52)"/></g><g id="triangle36-32" class="cls-33"><path class="cls-3" d="M1733.3,613.75l51.11-31.36,29.38,78.16Zm50.49-29.66-48.3,29.64,76.1,44.22Z" transform="translate(0 1.52)"/></g><g id="triangle36-33" class="cls-32"><path class="cls-3" d="M1808.14,702.84l4.13-44.82,33.55,31.12Zm5.06-42.38-3.76,40.68,34.19-12.41Z" transform="translate(0 1.52)"/></g><g class="cls-34"><path class="cls-3" d="M1893,500.12l20.5-19.12.23,13.2Z" transform="translate(0 1.52)"/></g><g id="triangle36-34" class="cls-35"><path class="cls-3" d="M1396.72,951.22l3.35-24.79,35.25,17.07Zm4.27-23.08-2.92,21.65,33.68-6.75Z" transform="translate(0 1.52)"/></g><g id="triangle36-35" class="cls-36"><path class="cls-3" d="M1399.77,927.56l13-27.38,22,44.34Zm13-24.76L1401.33,927l31,15Z" transform="translate(0 1.52)"/></g><g id="triangle36-36" class="cls-37"><path class="cls-3" d="M1412,901.25l41.9-22.55-20.23,66.11ZM1452,881l-38.48,20.68,19.9,40Z" transform="translate(0 1.52)"/></g><g id="triangle36-37" class="cls-27"><path class="cls-3" d="M1430,943l102.92-8.89-11.32,31.08Zm101.23-7.59-94.16,8.13,83.83,20.32Z" transform="translate(0 1.52)"/></g><g class="cls-24"><path class="cls-3" d="M1316.46,1031.7l1.13-.2,12.83,54.55-6.8.12Zm12.55,53.23-9.9-42.09,5.54,42.16Z" transform="translate(0 1.52)"/></g><g class="cls-38"><path class="cls-3" d="M1422.45,1084.43,1427,1053l46.08,26.15-24.68,4.79Zm5.4-29.57-4.07,28.43,24.45-.44,21.55-4.22Z" transform="translate(0 1.52)"/></g><g id="triangle36-38" class="cls-34"><path class="cls-3" d="M1328.46,988.09l2.55-57.15,46.65,25.18Zm3.62-55.28-2.38,53.05,45.72-29.73Z" transform="translate(0 1.52)"/></g><g id="triangle36-39" class="cls-27"><path class="cls-3" d="M1331.15,931.46l47.27-45.31,2.35,3.23-48.84,42.92Zm47.12-43.58L1351,914l28.26-24.83Z" transform="translate(0 1.52)"/></g><g id="triangle36-40" class="cls-31"><path class="cls-3" d="M1433.45,844.53l22-20.82L1447.73,856Zm20-17.36-18.23,17.28L1447,854Z" transform="translate(0 1.52)"/></g><g class="cls-29"><path class="cls-3" d="M1767.37,1040.64l52,31.27-7.14,5.64-14.82.27Zm50,31.35-45-27,25.57,31.7,13.9-.25Z" transform="translate(0 1.52)"/></g><g id="triangle36-41" class="cls-39"><path class="cls-3" d="M1683.07,648.18l52.61-36-18.86,45.66Zm50.08-32.89-47.44,32.45,30.43,8.7Z" transform="translate(0 1.52)"/></g><g id="triangle36-42" class="cls-1"><path class="cls-3" d="M1715.85,657.2l18-43.68,1.08.36-13,53.39Zm16.25-36.34-15,36.27,4.38,7.22Z" transform="translate(0 1.52)"/></g><g id="triangle36-43" class="cls-40"><path class="cls-3" d="M1821.13,839.1l.12-39.09,11.93,10.3Zm1.26-36.6-.1,30.86,9.51-22.72Z" transform="translate(0 1.52)"/></g><g id="triangle36-44" class="cls-41"><path class="cls-3" d="M1820.5,800.9l54.12-8.1-42.24,18.37Zm45.69-5.68-43.1,6.42,9.46,8.17Z" transform="translate(0 1.52)"/></g><g id="triangle36-45" class="cls-42"><path class="cls-3" d="M1596.45,872.35l33.22,6.7L1613,882.69Zm27.65,6.74-21.75-4.34,10.81,6.75Z" transform="translate(0 1.52)"/></g><g id="triangle36-46" class="cls-22"><path class="cls-3" d="M1531.69,934.34l67.62-61.53,14.8,9.25-81.71,53.18Zm67.8-60.1-61.79,56.18L1612,882.1Z" transform="translate(0 1.52)"/></g><g id="triangle36-47" class="cls-2"><path class="cls-3" d="M428.84,266.48,359.28,356,336,271.3ZM360.07,352,425,268.5,338.37,273Z" transform="translate(0 1.52)"/></g><g id="triangle36-48" class="cls-4"><path class="cls-3" d="M204.32,141.75,60.61,127.18l1.2-1.32,105-116.67Zm-139.95-16,137.49,13.94L166,12.8Z" transform="translate(0 1.52)"/></g><g class="cls-5"><path class="cls-3" d="M168.29,10.26l-106,117.8L0,3.19l75.68-.38ZM62.72,124.91,164.49,11.77,75.6,4.62,2.94,5Z" transform="translate(0 1.52)"/></g><g id="triangle36-49" class="cls-6"><path class="cls-3" d="M370.37,683.74l-.87,1.57-59.06-29.14-5.18-15.5Zm-58.52-28.86,45.52,22.43-48.8-32.26Z" transform="translate(0 1.52)"/></g><g id="triangle36-50" class="cls-7"><path class="cls-3" d="M291.16,735.92,280,841.57l-70.74-56.79ZM278.52,838.08,289,739.34,212.39,785Z" transform="translate(0 1.52)"/></g><g id="triangle36-51" class="cls-8"><path class="cls-3" d="M857.84,308.44l-.91,1L794.21,377l9.72-89.43ZM796.6,371.76l58.1-62.59-49.23-19Z" transform="translate(0 1.52)"/></g><g id="triangle36-52" class="cls-9"><path class="cls-3" d="M338.48,271.48l-16.7,34.88L321,306,175.46,237ZM320.93,304l14.92-31.18L190.12,241.92Z" transform="translate(0 1.52)"/></g><g id="triangle36-53" class="cls-10"><path class="cls-3" d="M195.6,514,75.66,449.22l80.4-11,.29.56ZM81.38,450.26l109.88,59.35L155,440.2Z" transform="translate(0 1.52)"/></g><g id="triangle36-54" class="cls-11"><path class="cls-3" d="M79.78,449.18l-41.7,92L18.22,430Zm-40.94,86L77.29,450.3,20.57,432.56Z" transform="translate(0 1.52)"/></g><g id="triangle36-55" class="cls-12"><path class="cls-3" d="M212,784.14l-26.92,84.78-1-.71L28.58,758.51ZM184.08,866l25.52-80.37L35.73,761.34Z" transform="translate(0 1.52)"/></g><g id="triangle36-56" class="cls-13"><path class="cls-3" d="M861.35,311.73,802.65,289l17.48-10.54Zm-54.6-23.05,44.44,17.2L820,280.72Z" transform="translate(0 1.52)"/></g><g id="triangle36-57" class="cls-14"><path class="cls-3" d="M864,65.81,830.07,215.33,783.29,46.17ZM829.9,207.91,861.8,67.14l-76-18.48Z" transform="translate(0 1.52)"/></g><g id="triangle36-58" class="cls-15"><path class="cls-3" d="M826.28,242.72l-5.39,37.43-18.35,11.08ZM819.22,279l3.63-25.19-16,32.65Z" transform="translate(0 1.52)"/></g><g id="triangle36-59" class="cls-16"><path class="cls-3" d="M633.49,336.54,538.77,455.37l-31.12-127ZM539.62,451.36l90.3-113.28L510,330.29Z" transform="translate(0 1.52)"/></g><g class="cls-17"><path class="cls-3" d="M667.88,19.68,606.72.18l53-.26ZM618.14,1.93l46.55,14.85-6.18-15Z" transform="translate(0 1.52)"/></g><g class="cls-10"><path class="cls-3" d="M39.4,537.6,32.73,661,2.47,603.25l-.4-81.51ZM31.26,654.32l6.26-115.55L3.89,524.49,4.28,603Z" transform="translate(0 1.52)"/></g><g id="triangle36-60" class="cls-18"><path class="cls-3" d="M312.93,658l-57.85-43.94,1-1.5,51.55,29.68Zm-45.48-36.8L309.35,653l-3.2-9.57Z" transform="translate(0 1.52)"/></g><g id="triangle36-61" class="cls-19"><path class="cls-3" d="M257.49,614.67,173.1,597.21,193,509.44Zm-82.22-18.85,78.48,16.23L193.8,514.18Z" transform="translate(0 1.52)"/></g><g id="triangle36-62" class="cls-20"><path class="cls-3" d="M196.35,510.4l-98,88.47L36.57,537.6Zm-98,86,92.15-83.12L40.35,538.76Z" transform="translate(0 1.52)"/></g><g id="triangle36-63" class="cls-21"><path class="cls-3" d="M185.57,240.82,51.14,219l10.67-94.4,1.31,1.23ZM53.13,217.45,180,238.08,63.23,128.32Z" transform="translate(0 1.52)"/></g><g class="cls-22"><path class="cls-3" d="M55,218.3.67,234.87l-.18-37.1ZM2.47,232.43l46.86-14.31-47-17.71Z" transform="translate(0 1.52)"/></g><g id="triangle36-64" class="cls-4"><path class="cls-3" d="M863.8,58.44,864,203.85l-35.23,9Zm-1.6,144L862,74.51,831.2,210.38Z" transform="translate(0 1.52)"/></g><g id="triangle36-65" class="cls-23"><path class="cls-3" d="M460.19,722.12,368.46,684.9,417.67,617Zm-88.91-38,85.63,34.74-39.69-98.07Z" transform="translate(0 1.52)"/></g><g id="triangle36-66" class="cls-24"><path class="cls-3" d="M420.18,619.24,306,644l.65-80.42ZM307.83,641.75l106.88-23.18L308.46,566.49Z" transform="translate(0 1.52)"/></g><g id="triangle36-67" class="cls-25"><path class="cls-3" d="M323.47,305.15,155.21,385.48l26.9-147.36ZM157.63,382.33l161.65-77.17L183.51,240.77Z" transform="translate(0 1.52)"/></g><g id="triangle36-68" class="cls-26"><path class="cls-3" d="M333.79,468.15,154.63,440l.91-57.51Zm-177.32-29.7,165.43,26L157.29,385.33Z" transform="translate(0 1.52)"/></g><g id="triangle36-69" class="cls-1"><path class="cls-3" d="M511.14,328.93l-82.81,52.54L465,319Zm-77.46,47,72.75-46.16L465.91,321Z" transform="translate(0 1.52)"/></g><g id="triangle36-70" class="cls-27"><path class="cls-3" d="M510.15,327.44l-19.79,95.05-60.93-43.86Zm-21,92,18.35-88.15-74.85,47.49Z" transform="translate(0 1.52)"/></g><g id="triangle36-71" class="cls-28"><path class="cls-3" d="M470.21,313.81l-38.63,65.76-26,1.68Zm-39.7,64,30.3-51.55-50.68,52.91Z" transform="translate(0 1.52)"/></g><g id="triangle36-72" class="cls-29"><path class="cls-3" d="M468.66,480l-62.35-100.6,25.36-1.64Zm-59.19-99,51.61,83.27-30.62-84.63Z" transform="translate(0 1.52)"/></g><g class="cls-30"><path class="cls-3" d="M717.59-.37l-1.45,9L703.78-.3Zm-2.77,5.8.64-4-6.1,0Z" transform="translate(0 1.52)"/></g><g id="triangle36-73" class="cls-6"><path class="cls-3" d="M1030,132l-93.05,24.69L971.36,96.4Zm-89.35,21.83,84.76-22.49L972,98.94Z" transform="translate(0 1.52)"/></g><g id="triangle36-74" class="cls-31"><path class="cls-3" d="M805.78,287.27l-9.68,89-57-54.25ZM794.7,372.46l8.92-82-61.39,32Z" transform="translate(0 1.52)"/></g><g id="triangle36-75" class="cls-13"><path class="cls-3" d="M798.62,376.19,748.21,362.5l-9-42.89ZM749.76,361l42.43,11.54-50-47.67Z" transform="translate(0 1.52)"/></g><g class="cls-32"><path class="cls-3" d="M349,1.46l-4.4,23.45L308.4,1.66Zm-5.68,20.47,3.49-18.65-32.3.16Z" transform="translate(0 1.52)"/></g><g id="triangle36-76" class="cls-15"><path class="cls-3" d="M667.75,15.48l-32.9,173.67-59.2-80.58.54-.55ZM633.84,184.73,664.86,21,578,108.74Z" transform="translate(0 1.52)"/></g><g id="triangle36-77" class="cls-22"><path class="cls-3" d="M481.9,114.47,374.12,152.75,416.84,11.91Zm-105,35.37,102.27-36.32L417.43,16.21Z" transform="translate(0 1.52)"/></g><g id="triangle36-78" class="cls-33"><path class="cls-3" d="M291.83,737.62l-81.5,48.58L165.36,662Zm-80.54,46,77-45.92L168.79,666.18Z" transform="translate(0 1.52)"/></g><g id="triangle36-79" class="cls-32"><path class="cls-3" d="M175.23,595.2,167.74,666l-52.41-49.92Zm-8.86,66.94,6.76-64.3L118.8,616.78Z" transform="translate(0 1.52)"/></g><g class="cls-34"><path class="cls-3" d="M1881.61,34.06,1919.45,0V24Z" transform="translate(0 1.52)"/></g><g id="triangle36-80" class="cls-35"><path class="cls-3" d="M831.07,210.5l-5.83,39.15-55.43-27.71Zm-7.22,36.43,5.06-34.18-53.46,10Z" transform="translate(0 1.52)"/></g><g id="triangle36-81" class="cls-36"><path class="cls-3" d="M825.77,247.88l-21.08,43.05-34-70.59Zm-21.06,38.91,18.64-38.09-48.73-24.37Z" transform="translate(0 1.52)"/></g><g id="triangle36-82" class="cls-37"><path class="cls-3" d="M805.9,289.29l-66.75,34.82,33.34-104.17Zm-63.68,31.18,61.29-32-30.66-63.66Z" transform="translate(0 1.52)"/></g><g id="triangle36-83" class="cls-27"><path class="cls-3" d="M778.25,222.83l-163,12,18.54-49ZM618,232.82l149.12-11L635,188Z" transform="translate(0 1.52)"/></g><g class="cls-24"><path class="cls-3" d="M959.66,84.79l-1.79.3L938.66-1.47l10.78-.05ZM940.94.33l14.82,66.79L947.84.3Z" transform="translate(0 1.52)"/></g><g class="cls-38"><path class="cls-3" d="M793-.74l-7.75,49.6L712.91,6.53,752.08-.56ZM783.9,46l7-44.88-38.7.19L718,7.48Z" transform="translate(0 1.52)"/></g><g id="triangle36-84" class="cls-34"><path class="cls-3" d="M939.76,153.54l-5.19,90.37-73.28-40.72Zm-6.83,87.39,4.81-84-73,46.13Z" transform="translate(0 1.52)"/></g><g id="triangle36-85" class="cls-27"><path class="cls-3" d="M934.4,243.08l-75.74,70.74-3.65-5.2,78.22-66.88Zm-75.45,68,43.7-40.84L857.45,309Z" transform="translate(0 1.52)"/></g><g id="triangle36-86" class="cls-31"><path class="cls-3" d="M770.82,378.55l-35.18,32.51,12.81-50.92ZM738.9,405.6l29.2-27-18.56-15.27Z" transform="translate(0 1.52)"/></g><g class="cls-29"><path class="cls-3" d="M246.48,61.6,164.8,11.1l11.43-8.77,23.45-.11ZM168,10.94l70.74,43.74L198.8,4l-22,.11Z" transform="translate(0 1.52)"/></g><g id="triangle36-87" class="cls-39"><path class="cls-3" d="M372,684.19,288,740.06l30.76-71.84Zm-79.89,51,75.67-50.38-48-14.39Z" transform="translate(0 1.52)"/></g><g id="triangle36-88" class="cls-1"><path class="cls-3" d="M320.3,669.26,290.88,738l-1.75-.58,21.64-84.21Zm-26.44,57.16,24.41-57-6.81-11.51Z" transform="translate(0 1.52)"/></g><g id="triangle36-89" class="cls-40"><path class="cls-3" d="M157.4,379.37l-1,61.85-18.65-16.54Zm-2.72,57.87.77-48.79L139.94,424.2Z" transform="translate(0 1.52)"/></g><g id="triangle36-90" class="cls-41"><path class="cls-3" d="M157.63,439.85,71.84,451.6,139,423.39Zm-72.4,8.07,68.24-9.33-14.78-13.12Z" transform="translate(0 1.52)"/></g><g id="triangle36-91" class="cls-42"><path class="cls-3" d="M513.51,331.28,461.1,320l26.46-5.41ZM469.9,320.05l34.26,7.33-17-10.9Z" transform="translate(0 1.52)"/></g><g id="triangle36-92" class="cls-22"><path class="cls-3" d="M617.21,234.47l-108.29,96-23.23-14.94,130.39-82.44ZM508.78,328.23l98.87-87.61-118.56,75Z" transform="translate(0 1.52)"/></g></g></g></g></svg>