<svg id="Layer_1" data-name="Layer 1" xmlns="http://www.w3.org/2000/svg" viewBox="0 0 1082.4 1914.93"><defs><style>.cls-1{opacity:0.24;}.cls-2{fill:#9852f9;}.cls-3{opacity:0.5;}.cls-4{opacity:0.88;}.cls-5{opacity:0.58;}.cls-6{opacity:0.18;}.cls-7{opacity:0.7;}.cls-8{opacity:0.05;}.cls-9{opacity:0.34;}.cls-10{opacity:0.44;}.cls-11{opacity:0.87;}.cls-12{opacity:0.64;}.cls-13{opacity:0.65;}.cls-14{opacity:0.41;}.cls-15{opacity:0.19;}.cls-16{opacity:0.17;}.cls-17{opacity:0.92;}.cls-18{opacity:0.2;}.cls-19{opacity:0.27;}.cls-20{opacity:0.78;}.cls-21{opacity:0.94;}.cls-22{opacity:0.63;}.cls-23{opacity:0.76;}.cls-24{opacity:0.36;}.cls-25{opacity:0.06;}.cls-26{opacity:0.6;}.cls-27{opacity:0.79;}.cls-28{opacity:0.4;}.cls-29{opacity:0.14;}.cls-30{opacity:0.3;}.cls-31{opacity:0.72;}.cls-32{opacity:0.59;}.cls-33{opacity:0.25;}.cls-34{opacity:0.77;}.cls-35{opacity:0.23;}.cls-36{opacity:0.13;}.cls-37{opacity:0.29;}.cls-38{opacity:0.32;}.cls-39{opacity:0.35;}.cls-40{opacity:0.8;}.cls-41{opacity:0.38;}.cls-42{opacity:0.93;}</style></defs><title>asset_pattern_16 9_variation</title><g id="triangle36" class="cls-1"><path class="cls-2" d="M270.87,171.45l-44.2,56.3-14.5-53.6Zm-43.7,53.8,41.3-52.6-54.8,2.6Z" transform="translate(-0.37 -3.55)"/></g><g id="triangle36-2" class="cls-3"><path class="cls-2" d="M129.37,92l-90.7-9.7.8-.8,66.7-73.4ZM41,81.35l86.9,9.2-22.3-80.3Z" transform="translate(-0.37 -3.55)"/></g><g class="cls-4"><path class="cls-2" d="M107.07,8.65l-67.4,74.2L.67,3.65h47.8ZM40,80.75l64.7-71.2-56.2-4.7H2.57Z" transform="translate(-0.37 -3.55)"/></g><g id="triangle36-3" class="cls-5"><path class="cls-2" d="M232.67,435l-.6,1-37.2-18.6-3.2-9.8Zm-36.9-18.4,28.7,14.3-30.7-20.5Z" transform="translate(-0.37 -3.55)"/></g><g id="triangle36-4" class="cls-6"><path class="cls-2" d="M182.37,467.75l-7.4,66.7-44.5-36.1Zm-8.3,64.5,6.9-62.4-48.5,28.6Z" transform="translate(-0.37 -3.55)"/></g><g id="triangle36-5" class="cls-7"><path class="cls-2" d="M542,199.25l-.6.6-39.9,42.5,6.4-56.5Zm-39,39.9,36.9-39.4-31-12.2Z" transform="translate(-0.37 -3.55)"/></g><g id="triangle36-6" class="cls-8"><path class="cls-2" d="M213.77,174.35l-10.7,22-.5-.2-91.8-44.1Zm-11.2,20.4,9.5-19.6-92-19.9Z" transform="translate(-0.37 -3.55)"/></g><g id="triangle36-7" class="cls-9"><path class="cls-2" d="M122.67,327.15l-75.6-41.3,50.8-6.7.2.4Zm-72-40.6,69.3,37.9-22.7-44Z" transform="translate(-0.37 -3.55)"/></g><g id="triangle36-8" class="cls-10"><path class="cls-2" d="M49.67,285.85l-26.6,58-12.2-70.4Zm-26.1,54.2,24.6-53.5-35.8-11.4Z" transform="translate(-0.37 -3.55)"/></g><g id="triangle36-9" class="cls-11"><path class="cls-2" d="M132.27,498,115,551.45l-.6-.5-98-69.8Zm-17.9,51.7,16.4-50.7L20.87,483Z" transform="translate(-0.37 -3.55)"/></g><g id="triangle36-10" class="cls-12"><path class="cls-2" d="M544.17,201.45l-37-14.5,11.1-6.6Zm-34.5-14.8,28,11-19.7-16Z" transform="translate(-0.37 -3.55)"/></g><g id="triangle36-11" class="cls-13"><path class="cls-2" d="M546.57,46l-21.9,94.4-29-107.1Zm-22,89.7,20.6-88.9-47.9-11.9Z" transform="translate(-0.37 -3.55)"/></g><g id="triangle36-12" class="cls-14"><path class="cls-2" d="M522.17,157.65l-3.5,23.6-11.6,6.9Zm-4.6,23,2.41-15.9-10.21,20.6Z" transform="translate(-0.37 -3.55)"/></g><g id="triangle36-13" class="cls-15"><path class="cls-2" d="M400.07,216.35l-60.3,74.8-19.3-80.4Zm-59.7,72.3,57.4-71.3-75.8-5.3Z" transform="translate(-0.37 -3.55)"/></g><g class="cls-16"><path class="cls-2" d="M422.77,16.25l-38.6-12.6h33.5Zm-31.4-11.4,29.4,9.5-3.9-9.5Z" transform="translate(-0.37 -3.55)"/></g><g class="cls-9"><path class="cls-2" d="M23.87,341.55l-4.6,78L.37,383v-51.5Zm-5.5,73.8,4.3-73-21.2-9.2v49.6Z" transform="translate(-0.37 -3.55)"/></g><g id="triangle36-14" class="cls-17"><path class="cls-2" d="M196.47,418.55l-36.4-28,.6-1,32.5,18.9Zm-28.7-23.4,26.4,20.3-2-6Z" transform="translate(-0.37 -3.55)"/></g><g id="triangle36-15" class="cls-18"><path class="cls-2" d="M161.47,391l-53.3-11.3,12.9-55.4Zm-51.9-12.2,49.6,10.5-37.6-62Z" transform="translate(-0.37 -3.55)"/></g><g id="triangle36-16" class="cls-19"><path class="cls-2" d="M123.17,324.85l-62.3,55.6-38.8-38.9Zm-62.2,54,58.5-52.3-95,15.7Z" transform="translate(-0.37 -3.55)"/></g><g id="triangle36-17" class="cls-20"><path class="cls-2" d="M117.27,154.45l-84.9-14.2,7-59.6.8.8Zm-83.7-15.2,80.1,13.4L40.27,83Z" transform="translate(-0.37 -3.55)"/></g><g class="cls-21"><path class="cls-2" d="M34.77,139.85.37,150.15v-23.5Zm-33.3,8.7,29.7-8.9-29.7-11.3Z" transform="translate(-0.37 -3.55)"/></g><g id="triangle36-18" class="cls-3"><path class="cls-2" d="M546.47,41.35l-.3,91.9-22.3,5.6Zm-1.5,91,.3-80.9-19.9,85.8Z" transform="translate(-0.37 -3.55)"/></g><g id="triangle36-19" class="cls-22"><path class="cls-2" d="M289.27,459.55l-57.9-23.8,31.3-42.7Zm-56.1-24.3,54,22.2-24.8-62.1Z" transform="translate(-0.37 -3.55)"/></g><g id="triangle36-20" class="cls-23"><path class="cls-2" d="M264.37,394.35l-72.2,15.3.7-50.8Zm-71.1,13.9,67.6-14.3-67-33.3Z" transform="translate(-0.37 -3.55)"/></g><g id="triangle36-21" class="cls-24"><path class="cls-2" d="M204.17,195.55l-106.6,50.2,17.5-93.1Zm-105,48.3,102.4-48.3L116,154.45Z" transform="translate(-0.37 -3.55)"/></g><g id="triangle36-22" class="cls-25"><path class="cls-2" d="M210.17,298.65l-113.1-18.4.8-36.4Zm-112-19.4,104.5,17-103.8-50.5Z" transform="translate(-0.37 -3.55)"/></g><g id="triangle36-23" class="cls-26"><path class="cls-2" d="M322.77,211.15l-52.5,33,23.4-39.4Zm-49.1,29.5,46.1-28.9-25.6-5.6Z" transform="translate(-0.37 -3.55)"/></g><g id="triangle36-24" class="cls-27"><path class="cls-2" d="M322.07,210.25l-12.8,60-38.39-27.9Zm-13.5,58,11.9-55.7L273,242.35Z" transform="translate(-0.37 -3.55)"/></g><g id="triangle36-25" class="cls-28"><path class="cls-2" d="M296.87,201.45l-24.6,41.4-16.4,1Zm-25.2,40.4,19.3-32.5-32.2,33.3Z" transform="translate(-0.37 -3.55)"/></g><g id="triangle36-26" class="cls-29"><path class="cls-2" d="M295.37,306.55l-39.1-63.8,16-1Zm-37.1-62.8,32.4,52.8L271.57,243Z" transform="translate(-0.37 -3.55)"/></g><g class="cls-30"><path class="cls-2" d="M454.27,3.65l-1,5.7-7.8-5.7Zm-1.8,3.7.4-2.5H449Z" transform="translate(-0.37 -3.55)"/></g><g id="triangle36-27" class="cls-5"><path class="cls-2" d="M651.27,88.35l-58.9,15.3,22-38Zm-56.5,13.5L648.37,88l-33.6-20.7Z" transform="translate(-0.37 -3.55)"/></g><g id="triangle36-28" class="cls-31"><path class="cls-2" d="M509.07,185.75l-6.4,56.2-35.79-34.5Zm-7.2,53.8,5.9-51.8-38.9,20Z" transform="translate(-0.37 -3.55)"/></g><g id="triangle36-29" class="cls-12"><path class="cls-2" d="M504.27,242l-31.8-8.8-5.6-27.1Zm-30.8-9.8,26.8,7.4-31.5-30.3Z" transform="translate(-0.37 -3.55)"/></g><g class="cls-32"><path class="cls-2" d="M221.27,3.65l-2.9,14.8-22.7-14.8Zm-3.6,12.9L220,4.75h-20.4Z" transform="translate(-0.37 -3.55)"/></g><g id="triangle36-30" class="cls-14"><path class="cls-2" d="M422.67,13.55l-21.3,109.7-37.2-51.1.4-.3Zm-22,106.9,20.1-103.4-55.2,55.2Z" transform="translate(-0.37 -3.55)"/></g><g id="triangle36-31" class="cls-21"><path class="cls-2" d="M305,75.55l-68.3,23.9,27.4-88.9Zm-66.5,22L303.27,75l-38.7-61.7Z" transform="translate(-0.37 -3.55)"/></g><g id="triangle36-32" class="cls-33"><path class="cls-2" d="M182.87,468.75l-51.7,30.5-28-78.7Zm-51,28.8,48.8-28.8-75.3-45.5Z" transform="translate(-0.37 -3.55)"/></g><g id="triangle36-33" class="cls-32"><path class="cls-2" d="M109.57,378.45l-4.9,44.7-33-31.7Zm-5.8,42.2,4.5-40.6-34.4,11.8Z" transform="translate(-0.37 -3.55)"/></g><g class="cls-34"><path class="cls-2" d="M21.17,579.65.37,598.35v-13.2Zm-19.7,6.4v9.8" transform="translate(-0.37 -3.55)"/></g><g id="triangle36-34" class="cls-35"><path class="cls-2" d="M525.27,137.35l-3.79,24.7-35-17.7Zm-4.6,23,3.3-21.6-33.8,6.1Z" transform="translate(-0.37 -3.55)"/></g><g id="triangle36-35" class="cls-36"><path class="cls-2" d="M521.87,161l-13.5,27.1-21.3-44.7Zm-13.5,24.5,11.9-24-30.7-15.6Z" transform="translate(-0.37 -3.55)"/></g><g id="triangle36-36" class="cls-37"><path class="cls-2" d="M509.17,187.05l-42.3,21.8,21.4-65.7Zm-40.4,19.5,38.8-20-19.1-40.4Z" transform="translate(-0.37 -3.55)"/></g><g id="triangle36-37" class="cls-27"><path class="cls-2" d="M491.87,145l-103.1,7.1,11.9-30.9Zm-101.3,5.8,94.3-6.5-83.5-21.8Z" transform="translate(-0.37 -3.55)"/></g><g class="cls-23"><path class="cls-2" d="M607,58.25l-1.1.2L594,3.65h6.8Zm-11.6-53.4,9.2,42.3-4.8-42.3Z" transform="translate(-0.37 -3.55)"/></g><g class="cls-38"><path class="cls-2" d="M502,3.65,496.87,35,451.27,8l24.8-4.4Zm-6,29.5,4.6-28.4h-24.5l-21.6,3.8Z" transform="translate(-0.37 -3.55)"/></g><g id="triangle36-38" class="cls-34"><path class="cls-2" d="M594.17,101.65l-3.6,57.1-46.2-26Zm-4.5,55.2,3.3-53-46.2,28.9Z" transform="translate(-0.37 -3.55)"/></g><g id="triangle36-39" class="cls-27"><path class="cls-2" d="M590.57,158.25l-48.09,44.5-2.3-3.3,49.59-42.1ZM542.67,201l27.7-25.7-28.7,24.3Z" transform="translate(-0.37 -3.55)"/></g><g id="triangle36-40" class="cls-31"><path class="cls-2" d="M486.67,243.35l-22.3,20.4,8.3-32.1Zm-20.2,17,18.5-16.9-11.7-9.7Z" transform="translate(-0.37 -3.55)"/></g><g class="cls-29"><path class="cls-2" d="M156.27,41.35l-51.4-32.1,7.2-5.5h14.8Zm-49.4-32.2L151.37,37l-25-32.1h-13.9Z" transform="translate(-0.37 -3.55)"/></g><g id="triangle36-41" class="cls-39"><path class="cls-2" d="M233.67,435.25l-53.2,35.1,19.7-45.3Zm-50.7,32,48-31.6-30.3-9.2Z" transform="translate(-0.37 -3.55)"/></g><g id="triangle36-42" class="cls-26"><path class="cls-2" d="M201.07,425.65l-18.8,43.4-1.1-.4,13.9-53.1Zm-16.9,36.1,15.6-36-4.3-7.3Z" transform="translate(-0.37 -3.55)"/></g><g id="triangle36-43" class="cls-40"><path class="cls-2" d="M99,242l-.8,39.1-11.7-10.5Zm-1.9,36.6.6-30.9-9.9,22.5Z" transform="translate(-0.37 -3.55)"/></g><g id="triangle36-44" class="cls-41"><path class="cls-2" d="M99,280.15l-54.3,7.1,42.6-17.6Zm-45.8,4.9,43.2-5.7-9.3-8.3Z" transform="translate(-0.37 -3.55)"/></g><g id="triangle36-45" class="cls-42"><path class="cls-2" d="M324.27,212.65l-33.1-7.3,16.7-3.3Zm-27.6-7.2,21.7,4.7-10.7-6.9Z" transform="translate(-0.37 -3.55)"/></g><g id="triangle36-46" class="cls-21"><path class="cls-2" d="M390.07,151.85l-68.7,60.3-14.6-9.5,82.6-51.7Zm-68.8,58.9,62.8-55.1-75.2,47Z" transform="translate(-0.37 -3.55)"/></g><g id="Layer_2" data-name="Layer 2"><g id="Layer_1-2" data-name="Layer 1-2"><g class="cls-26"><g id="triangle36-47" class="cls-1"><path class="cls-2" d="M673.27,1664.47l67-85.25,21.92,81.08Zm66.17-81.42-62.51,79.59,82.92-3.84Z" transform="translate(-0.37 -3.55)"/></g><g id="triangle36-48" class="cls-3"><path class="cls-2" d="M887.44,1784.89l137.42,14.58-1.17,1.25-101,111.09Zm133.83,16-131.42-14,33.76,121.5Z" transform="translate(-0.37 -3.55)"/></g><g class="cls-4"><path class="cls-2" d="M921.27,1910.81l101.92-112.17,59,119.75h-72.33Zm101.59-109.17-97.92,107.75,85,7.25h69.5Z" transform="translate(-0.37 -3.55)"/></g><g id="triangle36-49" class="cls-5"><path class="cls-2" d="M731.19,1265.63l.83-1.5,56.33,28.17,4.92,14.83ZM787,1293.55l-43.42-21.67L790.1,1303Z" transform="translate(-0.37 -3.55)"/></g><g id="triangle36-50" class="cls-6"><path class="cls-2" d="M807.19,1216.13l11.16-101,67.42,54.66Zm12.58-97.67-10.5,94.42,73.5-43.34Z" transform="translate(-0.37 -3.55)"/></g><g id="triangle36-51" class="cls-7"><path class="cls-2" d="M263.09,1622.3l.84-.91,60.33-64.34-9.67,85.5ZM322,1562.05l-55.83,59.59,47,18.41Z" transform="translate(-0.37 -3.55)"/></g><g id="triangle36-52" class="cls-8"><path class="cls-2" d="M759.77,1660.14l16.17-33.25.75.33,138.83,66.67Zm16.92-31-14.42,29.75,139.25,30.16Z" transform="translate(-0.37 -3.55)"/></g><g id="triangle36-53" class="cls-9"><path class="cls-2" d="M897.61,1428.8,1012,1491.38l-76.91,10.17-.25-.58Zm108.91,61.5-104.83-57.25L936,1499.63Z" transform="translate(-0.37 -3.55)"/></g><g id="triangle36-54" class="cls-10"><path class="cls-2" d="M1008,1491.38l40.34-87.83,18.5,106.5Zm39.59-82.08-37.17,81,54.17,17.25Z" transform="translate(-0.37 -3.55)"/></g><g id="triangle36-55" class="cls-11"><path class="cls-2" d="M883.19,1170.38l26.17-81,1,.66,148.16,105.67Zm27.08-78.25-24.83,76.75L1051.61,1193Z" transform="translate(-0.37 -3.55)"/></g><g id="triangle36-56" class="cls-12"><path class="cls-2" d="M259.76,1619.14l56.08,22-16.75,10Zm52.17,22.33-42.42-16.67,29.75,24.25Z" transform="translate(-0.37 -3.55)"/></g><g id="triangle36-57" class="cls-13"><path class="cls-2" d="M256.09,1854.39l33.17-142.84,43.92,162Zm33.25-135.75-31.16,134.5,72.58,18.08Z" transform="translate(-0.37 -3.55)"/></g><g id="triangle36-58" class="cls-14"><path class="cls-2" d="M293,1685.3l5.33-35.75,17.59-10.5Zm6.92-34.66-3.59,24.08,15.42-31.17Z" transform="translate(-0.37 -3.55)"/></g><g id="triangle36-59" class="cls-15"><path class="cls-2" d="M477.85,1596.55,569,1483.3,598.18,1605Zm90.33-109.42-86.92,107.92,114.67,8Z" transform="translate(-0.37 -3.55)"/></g><g class="cls-16"><path class="cls-2" d="M443.43,1899.47l58.42,18.92H451.1Zm47.5,17.17-44.42-14.42,5.84,14.42Z" transform="translate(-0.37 -3.55)"/></g><g class="cls-9"><path class="cls-2" d="M1047.11,1407l7-118,28.67,55.34v78Zm8.33-111.59-6.5,110.5,32.08,13.84v-75.09Z" transform="translate(-0.37 -3.55)"/></g><g id="triangle36-60" class="cls-17"><path class="cls-2" d="M786,1290.46l55.17,42.34-1,1.41L791,1305.55Zm43.33,35.5-39.91-30.66,3,9.16Z" transform="translate(-0.37 -3.55)"/></g><g id="triangle36-61" class="cls-18"><path class="cls-2" d="M838.85,1332.21l80.67,17.09L900,1433.13Zm78.59,18.42-75-15.92,56.92,93.92Z" transform="translate(-0.37 -3.55)"/></g><g id="triangle36-62" class="cls-19"><path class="cls-2" d="M896.85,1432.3l94.26-84.17,58.75,58.92ZM991,1350.55l-88.58,79.08,143.75-23.75Z" transform="translate(-0.37 -3.55)"/></g><g id="triangle36-63" class="cls-20"><path class="cls-2" d="M905.86,1690.22l128.5,21.5L1023.69,1802l-1.25-1.16Zm126.58,23-121.25-20.33,111.17,105.5Z" transform="translate(-0.37 -3.55)"/></g><g class="cls-21"><path class="cls-2" d="M1030.69,1712.39l52-15.59v35.5Zm50.25-13.25L1036,1712.55l44.92,17.17Z" transform="translate(-0.37 -3.55)"/></g><g id="triangle36-64" class="cls-3"><path class="cls-2" d="M256.26,1861.47l.5-139.08,33.75-8.5Zm2.17-137.75L258,1846.14l30.17-129.84Z" transform="translate(-0.37 -3.55)"/></g><g id="triangle36-65" class="cls-22"><path class="cls-2" d="M645.43,1228.46l87.59,36-47.42,64.67Zm84.92,36.84-81.75-33.67,37.5,94Z" transform="translate(-0.37 -3.55)"/></g><g id="triangle36-66" class="cls-23"><path class="cls-2" d="M683.27,1327.13,792.6,1304l-1,76.92Zm107.58-21L688.52,1327.8l101.42,50.33Z" transform="translate(-0.37 -3.55)"/></g><g id="triangle36-67" class="cls-24"><path class="cls-2" d="M774.27,1628l161.34-76.09-26.42,140.84Zm159-73-155,73.08,129.59,62.25Z" transform="translate(-0.37 -3.55)"/></g><g id="triangle36-68" class="cls-25"><path class="cls-2" d="M765.19,1472.05l171.25,27.75-1.17,55Zm169.42,29.25-158.09-25.67,157.09,76.5Z" transform="translate(-0.37 -3.55)"/></g><g id="triangle36-69" class="cls-26"><path class="cls-2" d="M594.85,1604.39l79.5-49.84-35.42,59.59Zm74.33-44.59-69.83,43.84,38.75,8.58Z" transform="translate(-0.37 -3.55)"/></g><g id="triangle36-70" class="cls-27"><path class="cls-2" d="M595.77,1605.8,615.18,1515l58.09,42.25Zm20.5-87.92-18,84.26,71.83-45.09Z" transform="translate(-0.37 -3.55)"/></g><g id="triangle36-71" class="cls-28"><path class="cls-2" d="M633.93,1619.05l37.25-62.75,24.84-1.5ZM672.18,1558l-29.25,49.17,48.75-50.42Z" transform="translate(-0.37 -3.55)"/></g><g id="triangle36-72" class="cls-29"><path class="cls-2" d="M636.18,1460.05l59.17,96.5L671.1,1558Zm56.17,95-49-79.92,28.92,81.09Z" transform="translate(-0.37 -3.55)"/></g><g class="cls-30"><path class="cls-2" d="M395.85,1918.39l1.41-8.58,11.75,8.58Zm2.66-5.5-.66,3.83h5.83Z" transform="translate(-0.37 -3.55)"/></g><g id="triangle36-73" class="cls-5"><path class="cls-2" d="M97.59,1790.31l89.09-23.17-33.26,57.5Zm85.59-20.5L102,1790.89l50.91,31.25Z" transform="translate(-0.37 -3.55)"/></g><g id="triangle36-74" class="cls-31"><path class="cls-2" d="M312.76,1642.8l9.67-85.08,54.25,52.17Zm11.08-81.42-9,78.42,58.84-30.33Z" transform="translate(-0.37 -3.55)"/></g><g id="triangle36-75" class="cls-12"><path class="cls-2" d="M320.09,1557.8l48.17,13.34,8.42,41.08Zm46.67,14.75-40.5-11.25,47.59,45.84Z" transform="translate(-0.37 -3.55)"/></g><g class="cls-32"><path class="cls-2" d="M748.35,1918.39l4.34-22.42,34.5,22.42Zm5.59-19.58-3.42,17.83h30.92Z" transform="translate(-0.37 -3.55)"/></g><g id="triangle36-76" class="cls-14"><path class="cls-2" d="M443.51,1903.47l32.34-166,56.25,77.34-.5.5Zm33.25-161.75-30.41,156.5,83.5-83.58Z" transform="translate(-0.37 -3.55)"/></g><g id="triangle36-77" class="cls-21"><path class="cls-2" d="M621.77,1809.64,725,1773.56l-41.5,134.5Zm100.67-33.33-98,34.25L683,1904Z" transform="translate(-0.37 -3.55)"/></g><g id="triangle36-78" class="cls-33"><path class="cls-2" d="M806.6,1214.46l78.17-46.08,42.42,119.08Zm77.25-43.58-73.91,43.58,114,68.92Z" transform="translate(-0.37 -3.55)"/></g><g id="triangle36-79" class="cls-32"><path class="cls-2" d="M917.44,1351.3l7.5-67.67,49.92,48Zm8.83-64-6.75,61.5,52-17.92Z" transform="translate(-0.37 -3.55)"/></g><g class="cls-34"><path class="cls-2" d="M1051.19,1046.79l31.5-28.42v20Zm29.84-24.5-23.26,21,23.26-6.16Z" transform="translate(-0.37 -3.55)"/></g><g id="triangle36-80" class="cls-35"><path class="cls-2" d="M288.26,1716.14l5.75-37.42,52.92,26.75Zm7.08-34.84-5,32.67,51.17-9.25Z" transform="translate(-0.37 -3.55)"/></g><g id="triangle36-81" class="cls-36"><path class="cls-2" d="M293.51,1680.39l20.33-41.09L346,1707Zm20.33-37.09-18,36.34,46.5,23.58Z" transform="translate(-0.37 -3.55)"/></g><g id="triangle36-82" class="cls-37"><path class="cls-2" d="M312.68,1640.89l64-33-32.42,99.5Zm61.08-29.5L315,1641.72l29,61.08Z" transform="translate(-0.37 -3.55)"/></g><g id="triangle36-83" class="cls-27"><path class="cls-2" d="M338.84,1704.64l156-10.75-18,46.75Zm153.34-8.84-142.67,9.84,126.25,33Z" transform="translate(-0.37 -3.55)"/></g><g class="cls-23"><path class="cls-2" d="M164.67,1835.81l1.67-.25,18,82.91H174Zm17.51,80.83-13.84-64,7.25,64Z" transform="translate(-0.37 -3.55)"/></g><g class="cls-38"><path class="cls-2" d="M323.59,1918.39l7.67-47.42,69,40.84-37.5,6.58Zm9-44.67-6.91,42.92h37l32.75-5.75Z" transform="translate(-0.37 -3.55)"/></g><g id="triangle36-84" class="cls-34"><path class="cls-2" d="M184,1770.14l5.42-86.42,69.91,39.33Zm6.92-83.59-5,80.34,70-43.75Z" transform="translate(-0.37 -3.55)"/></g><g id="triangle36-85" class="cls-27"><path class="cls-2" d="M189.59,1684.47l72.75-67.33,3.5,5-75.16,63.66Zm72.5-64.67-42,38.84,43.42-36.84Z" transform="translate(-0.37 -3.55)"/></g><g id="triangle36-86" class="cls-31"><path class="cls-2" d="M346.68,1555.63l33.83-30.91L368,1573.39ZM377.35,1530l-28.09,25.66,17.67,14.67Z" transform="translate(-0.37 -3.55)"/></g><g class="cls-29"><path class="cls-2" d="M846.77,1861.31,924.69,1910l-11,8.34H891.27Zm74.84,48.91-67.42-42.16,37.91,48.66h21Z" transform="translate(-0.37 -3.55)"/></g><g id="triangle36-87" class="cls-39"><path class="cls-2" d="M729.69,1265.21l80.58-53.08-29.75,68.58Zm76.66-48.41-72.66,47.83,45.83,14Z" transform="translate(-0.37 -3.55)"/></g><g id="triangle36-88" class="cls-26"><path class="cls-2" d="M779,1279.71l28.5-65.58,1.67.58-21.09,80.42Zm25.58-54.58L781,1279.55l6.5,11.08Z" transform="translate(-0.37 -3.55)"/></g><g id="triangle36-89" class="cls-40"><path class="cls-2" d="M933.44,1557.8l1.25-59.17,17.75,15.92Zm2.92-55.33-1,46.66,15-34.16Z" transform="translate(-0.37 -3.55)"/></g><g id="triangle36-90" class="cls-41"><path class="cls-2" d="M933.52,1500l82.09-10.84-64.42,26.67Zm69.34-7.42-65.34,8.58,14.09,12.59Z" transform="translate(-0.37 -3.55)"/></g><g id="triangle36-91" class="cls-42"><path class="cls-2" d="M592.6,1602.14l50.08,11-25.33,5.08Zm41.67,10.91-32.75-7.16,16.16,10.5Z" transform="translate(-0.37 -3.55)"/></g><g id="triangle36-92" class="cls-21"><path class="cls-2" d="M492.93,1694.22l104-91.25,22.17,14.42L494,1695.55Zm104.17-89.17-95,83.34,113.75-71.17Z" transform="translate(-0.37 -3.55)"/></g></g></g></g></svg>