<svg id="Layer_1" data-name="Layer 1" xmlns="http://www.w3.org/2000/svg" viewBox="0 0 442.36 533.66"><defs><style>.cls-1,.cls-7,.cls-9{fill:#fff;}.cls-2,.cls-3,.cls-4,.cls-6{fill:none;}.cls-2,.cls-3,.cls-9{stroke:#fff;}.cls-2,.cls-3,.cls-4,.cls-9{stroke-miterlimit:10;}.cls-3{stroke-width:0.5px;}.cls-4{stroke:#fbfbfb;}.cls-5{fill:#fbfbfb;}.cls-7{font-size:36px;}.cls-7,.cls-9{font-family:BankGothic;}.cls-8{letter-spacing:0.05em;}.cls-9{font-size:25px;}</style></defs><title>abacus logo website</title><path class="cls-1" d="M417.66,311.66c-.08-.86-.21-1.73-.22-2.6,0-5.51,0-11,0-16.53-.9-.58-1.72-1.06-2.5-1.61-3.4-2.39-2.54-6.5-.76-8.43a5.82,5.82,0,0,1,8.54,0,5.54,5.54,0,0,1-.65,8.25c-.74.6-1.58,1.08-2.43,1.65v19.33c.94.07,1.78.15,2.63.19,22.63,1.16,42.87,8.58,60.07,23.45s28.45,33.12,32.9,55.47a107.92,107.92,0,0,1,1.9,21q0,32.16,0,64.31v3.21a12,12,0,0,0,1.76.29c4.4,0,8.8,0,13.2,0a2.16,2.16,0,0,0,2.32-1.23c2.58-5.15,10.58-5.28,13.27.22a7.44,7.44,0,0,0,.63.9h16.23V340.53c0-7.51,0-15,0-22.55a16.28,16.28,0,0,1,13.57-16.48,16,16,0,0,1,3.09-.29c14,0,28-.11,42,0,9.41.09,17.53,3.49,23.77,10.67,7.72,8.88,9.28,18.87,4.6,29.69-2.57,5.94-5.36,11.79-8.05,17.68q-22.95,50.28-45.91,100.57c-.37.79-.69,1.6-1.11,2.58l3.26,2.14c3.68-2.41,7.26-4.81,10.9-7.12a1.9,1.9,0,0,0,.79-2.27q-.87-5.44-1.73-10.89c-.15-.95-.26-1.9-.41-3.06a84.46,84.46,0,0,1,16.1-6.21l8.65,13,14-2.29c1.37-5.05,2.73-10,4.12-15.14a87.54,87.54,0,0,1,17,.79c.94,5.51,1.87,10.93,2.82,16.51l13.77,3.64c3.5-4.33,7-8.6,10.49-12.94a85.65,85.65,0,0,1,14.55,7.29c-.1.67-.15,1.29-.3,1.88-1.07,4.19-2.1,8.38-3.26,12.53a2.49,2.49,0,0,0,1,3.09c3.23,2.48,6.38,5.06,9.72,7.73l14.65-7.44c2.47,1.82,8.3,8.84,10.56,12.73l-10.35,13,6.52,12.66,16.71-.8a84.61,84.61,0,0,1,4.37,16.77l-14.2,7.42c.11,2.32.2,4.55.32,6.77.05,1,.15,2.08.21,3.12.33,5.12-.71,4,4.42,6,3.48,1.35,7,2.67,10.61,4a80.68,80.68,0,0,1-2.62,16.84l-16.09,1-2.5,6.53c-.63,1.64-1.18,3.33-1.92,4.91a2.6,2.6,0,0,0,.75,3.38c2.72,2.59,5.34,5.29,8,7.91a19.94,19.94,0,0,0,2,1.54A102.83,102.83,0,0,1,740,602.11l-15.09-5.59c-.61.64-1.22,1.25-1.8,1.89-14,15.3-31.23,25-51.71,28.62a89.81,89.81,0,0,1-26,.83,91,91,0,0,1-77.24-65.22,88.11,88.11,0,0,1-3.43-24.14c-.07-17-.07-33.92-.1-50.88,0-.94,0-1.87,0-2.93H548.15a9.29,9.29,0,0,1-4,4.27c-.43.23-.64,1-.83,1.57a3.94,3.94,0,0,0,0,1.19V634.54H744.91v55.89c-1.92.49-278,.55-280.33.06V634.61h73.77V489.22a8.9,8.9,0,0,1-4.31-4,1.83,1.83,0,0,0-1.39-.65c-5,0-10,0-15.35,0-.06,1.26-.16,2.26-.16,3.26q0,45.12,0,90.23c0,1.6-.06,3.2-.17,4.8a47.83,47.83,0,0,1-39,43.45,63.46,63.46,0,0,1-9.54.85c-6,.13-12,0-18,0h-2.91c0,1.08-.08,2-.08,2.93v51.6c0,.8,0,1.6,0,2.4a7,7,0,0,1-6.68,6.88c-.63,0-1.28,0-1.92,0H398.49c-.64,0-1.29,0-1.92,0a6.92,6.92,0,0,1-6.73-6.32,25,25,0,0,1-.12-3.35q0-25.56,0-51.12v-2.9c-1,0-1.82-.12-2.66-.12-6.4,0-12.8.09-19.2,0-17-.31-30.35-7.44-40-21.35A44.11,44.11,0,0,1,320,584.12c-.31-3.58-.54-7.18-.54-10.77,0-53.76-.14-107.51,0-161.27.09-26.33,8.75-49.59,26.88-68.93,15.75-16.81,35.18-26.85,58-30.24,3.71-.55,7.48-.67,11.23-1,.7-.06,1.4-.2,2.1-.29-.07,1.11-.2,2.23-.2,3.34q0,28.2,0,56.4v3.05c-8.76.74-16,4.12-21.51,10.91s-6.93,14.89-6.14,23.43c2.35.59,25.76.51,27.45-.07v-5.46c-3.84-1-6.17-3.29-6.35-7.26a81,81,0,0,1,0-8.39,7,7,0,0,1,5-6.65c.5-.19,1-.46,1.62-.76V374.8l1.94.23v5.18c.26.2.32.26.39.3a3.83,3.83,0,0,0,.65.3c3.47,1.11,5.27,3.45,5.3,7.11,0,2.32,0,4.64.06,7,.12,4.23-1.74,7-5.86,8.22-.14,0-.24.19-.39.31v5.67c9.21.24,18.28.19,27.69,0-.17-3.19-.24-6.05-.49-8.89a28.46,28.46,0,0,0-24.8-25.42c-.85-.1-1.7-.23-2.73-.37v-62Zm49.85,376c2.84.52,272.65.41,274.4-.07V637.8H467.51ZM389.86,411.42c-.06.82-.17,1.51-.17,2.21,0,7.52,0,15,0,22.55a59.25,59.25,0,0,0,.42,7.89,28.7,28.7,0,0,0,57.05-4.21c.11-8.72,0-17.43.05-26.15,0-.76-.11-1.53-.17-2.29ZM447,580.2c-19.14-.11-38.11-.12-57.11,0v46.48c2.91.56,55.38.42,57.11-.14ZM641,477c-15.63,4-27.93,12.67-37.2,26.21l17.76,10.23a2.5,2.5,0,0,0,.47-.29c.52-.61,1-1.23,1.54-1.84,10.71-12.7,24.41-17.29,40.59-14.51,9.69,1.66,17.44,6.87,23.74,14.33l2,2.36,17.71-10.27c-6.69-11.88-24.49-24.35-36.87-26C663.4,489.68,647.23,488.55,641,477Zm69.76,31.11L692.93,518.4c11.74,25.62-5.07,56-33.91,59.2v20.55a62.39,62.39,0,0,0,41-19c-3.32-5.89-3.87-11.59-.58-17.37s8.62-8.27,15.35-8.22A61.82,61.82,0,0,0,710.72,508.11Zm-58.18,90.15c.56-2.16.55-18.64,0-20.76-13.85-1.82-24.72-8.41-31.82-20.74s-7.11-25.08-1.82-38.13l-17.74-10.22c-7.56,13.42-8.53,33.11-4,45.16,6.52-.05,11.76,2.41,15.09,8.3s2.6,11.64-.61,17.31C623.06,590.7,636.6,597,652.54,598.26ZM389.79,577.38c.34.17.48.3.62.3l54.91.07c.48,0,.95-.07,1.43-.11.07,0,.13-.09.19-.14l.22-.26a31.67,31.67,0,0,0-1.8-9.27,24,24,0,0,0-4.93-8.43c-2.18-2.31-4.6-4.39-7.05-6.69l2.18-3.8,2.15-3.74c1.61-2.79,1.61-2.79,1.44-4.23l-6.83,11.61c-9.4-4.73-18.64-4.65-27.89,0-.88-1.47-1.65-2.77-2.41-4.07s-1.39-2.52-2.18-3.72-1.12-2.74-2.64-3.42c1.76,4,4.26,7.7,6.31,11.8a29.41,29.41,0,0,0-10,10.31A26.37,26.37,0,0,0,389.79,577.38ZM632.13,537.2c.09.83.2,2.26.42,3.68a23.67,23.67,0,0,0,25,19.91c14.39-1,24.25-13.52,22.06-27.8a22.65,22.65,0,0,0-8.34-14.41c-2-1.64-3.87-1.55-5.27.14s-1.12,3.58.66,5.29c.23.22.49.42.72.64a16.38,16.38,0,0,1,5.06,15.7,16.69,16.69,0,0,1-31,4.65c-3.72-7.22-2.44-14.77,3.44-20.38.47-.44,1-.85,1.4-1.32a3.2,3.2,0,0,0,.75-2.9c-.53-2.85-3.53-3.89-5.91-1.91A23.43,23.43,0,0,0,632.13,537.2Zm35.06-67.31a11.35,11.35,0,0,0-22.7-.06,11.35,11.35,0,1,0,22.7.06Zm46.33,88.6a11.35,11.35,0,1,0,11.41,11.41A11.38,11.38,0,0,0,713.52,558.49Zm-115.46,22.7a11.35,11.35,0,1,0-11.32-11.48A11.3,11.3,0,0,0,598.06,581.19Zm-201,78v9.48h16.06v-9.48Zm43.92.17H424.71v9.41c5.47.09,10.82.21,16.22-.08Zm211.8-138.66c0,1.12,0,2.23,0,3.35,0,2-.06,4,0,6a3.13,3.13,0,0,0,6.25.22,11.68,11.68,0,0,0,.08-1.67q0-8,0-16a8.41,8.41,0,0,0-.19-2.13,3.07,3.07,0,0,0-5.69-.61,5.75,5.75,0,0,0-.46,2.29C652.7,514.93,652.73,517.8,652.73,520.66ZM422.27,391.84c0-1.36.05-2.71,0-4.06a3.83,3.83,0,0,0-3.65-4,3.73,3.73,0,0,0-4,3.84c-.11,2.78-.1,5.58,0,8.37a3.75,3.75,0,0,0,3.76,3.84,3.82,3.82,0,0,0,3.89-4C422.32,394.55,422.27,393.19,422.27,391.84Zm198-67.84h7.24V310.12a15.32,15.32,0,0,0-7.24.17Zm-23.57.05a21.3,21.3,0,0,0,7.24-.19V310h-7.24ZM608.56,310c0,4.85,0,9.42,0,14h7.28V310Zm-16.8,14a132.64,132.64,0,0,0,0-14h-7c-.43,3-.33,12.14.15,14Zm40.68,0h7.24c0-2.85.19-5.56,0-8.23a6.51,6.51,0,0,0-7.38-5.56A97.85,97.85,0,0,0,632.44,324Zm-52.73-14c-4.15,0-7.13,2.65-7.34,6.49-.11,2.07,0,4.15,0,6.22a5.66,5.66,0,0,0,.3,1.26h7.05ZM404.17,323.94a2.37,2.37,0,0,0,2.47-2.34,2.51,2.51,0,0,0-2.38-2.49,2.57,2.57,0,0,0-2.49,2.39A2.42,2.42,0,0,0,404.17,323.94Zm29.19-2a2.21,2.21,0,1,0-4.4-.4,2.21,2.21,0,0,0,4.4.4Zm-9-3.17c.48-.64,1-1.06,1-1.42s-.63-.72-1-1.08c-.34.35-.93.68-1,1.06S423.87,318.13,424.33,318.78Z" transform="translate(-319.41 -269.45)"/><path class="cls-1" d="M449.09,286.66a31.93,31.93,0,0,1-4,14.47c-.19.35-.38.71-.6,1-.9,1.3-2,1.64-3,1s-1.18-1.66-.6-3c.23-.51.55-1,.8-1.48,4.08-8,4.22-16,.16-24.12a18.36,18.36,0,0,1-1.17-2.35,2,2,0,0,1,1.14-2.59c1-.46,1.63.07,2.22.83a19.45,19.45,0,0,1,3.68,7.71C448.31,281,448.64,283.84,449.09,286.66Z" transform="translate(-319.41 -269.45)"/><path class="cls-1" d="M388,286.64a31,31,0,0,1,3.4-14.05,20.59,20.59,0,0,1,1.42-2.2,1.68,1.68,0,0,1,2.26-.76,2.11,2.11,0,0,1,1,2.62,12.37,12.37,0,0,1-.83,1.72c-4.29,8.16-4.38,16.33-.08,24.51a15.7,15.7,0,0,1,1,2.16,1.89,1.89,0,0,1-1,2.43,1.85,1.85,0,0,1-2.55-.58,10.77,10.77,0,0,1-1-1.64A30.3,30.3,0,0,1,388,286.64Z" transform="translate(-319.41 -269.45)"/><path class="cls-1" d="M399.24,286.53c.52-2.38,1.07-5,1.7-7.63a2.71,2.71,0,0,1,.95-1.6,3,3,0,0,1,2.16-.34c.5.17.93,1,1.05,1.65a4,4,0,0,1-.41,1.83,17.56,17.56,0,0,0-.13,11.94,9.08,9.08,0,0,1,.45,1.85c.12.92,0,1.8-1.07,2.13a1.93,1.93,0,0,1-2.44-1,8.8,8.8,0,0,1-.88-2.21C400.13,291.09,399.74,289,399.24,286.53Z" transform="translate(-319.41 -269.45)"/><path class="cls-1" d="M437.46,286.61a20.45,20.45,0,0,1-1.55,7.51,5.26,5.26,0,0,1-1,1.64,1.51,1.51,0,0,1-2.16.28,2.88,2.88,0,0,1-1-1.69,5.16,5.16,0,0,1,.53-2.06,16.83,16.83,0,0,0,.08-11.29c-.15-.45-.33-.9-.45-1.36-.39-1.58-.1-2.45.93-2.86,1.23-.48,2.29.08,2.94,1.66a13.18,13.18,0,0,1,.88,2.73C437,283,437.21,284.79,437.46,286.61Z" transform="translate(-319.41 -269.45)"/><path class="cls-2" d="M467.51,687.69V637.8h274.4v49.82C740.16,688.1,470.35,688.21,467.51,687.69Zm110.76-3.8h64.29c.72,0,1.44,0,2.16,0a4.11,4.11,0,0,0,4.25-4.25q.15-4.56,0-9.12c-.08-2.57-1.62-4.09-4.21-4.33-1-.1-2.08-.06-3.12-.06H515c-.8,0-1.6,0-2.4,0-3.41.12-5,1.63-5,5-.07,2.4,0,4.8,0,7.2.05,4.06,1.48,5.48,5.5,5.52h65.26Zm89.44,0c2.4,0,4.8.06,7.19,0,2.82-.08,4.49-1.67,4.6-4.47s.09-5.75,0-8.62-1.66-4.53-4.48-4.59q-7.07-.16-14.14,0c-2.84.06-4.35,1.45-4.51,4.24a83.71,83.71,0,0,0,0,9.1c.16,2.93,1.7,4.28,4.64,4.35C663.24,683.93,665.48,683.88,667.71,683.88Zm54.88-1c2.16,0,4.31.06,6.46,0a3.7,3.7,0,0,0,4-3.89q.12-3.71,0-7.41c-.07-2.57-1.47-4-4-4q-6.11-.09-12.21,0c-2.74,0-4.12,1.42-4.18,4.13-.05,2.31,0,4.62,0,6.94,0,2.86,1.4,4.21,4.27,4.28C718.77,682.92,720.68,682.89,722.59,682.88Zm-25.71.15h0c2.15,0,4.31.06,6.46,0a3.59,3.59,0,0,0,3.83-3.72c.11-2.55.09-5.1,0-7.65-.07-2.33-1.36-3.82-3.69-3.9q-6.57-.22-13.15,0c-2.3.09-3.55,1.63-3.61,4s-.05,4.79,0,7.18c.06,2.72,1.4,4.05,4.17,4.12C692.89,683.07,694.89,683,696.88,683Zm0-38.22c-2.07,0-4.15,0-6.22,0-2.71.08-4.09,1.42-4.2,4.17q-.13,3.46,0,6.93c.1,2.69,1.51,4.17,4.2,4.23,4.06.1,8.14.1,12.2,0,2.71-.06,4.09-1.53,4.15-4.22.06-2.31.05-4.63,0-6.94-.06-2.74-1.4-4.09-4.14-4.17C700.89,644.76,698.9,644.81,696.9,644.81ZM490.66,683.22c2,0,4,.06,6,0,2.85-.1,4.24-1.51,4.3-4.35.05-2.23.06-4.46,0-6.7-.07-2.83-1.45-4.25-4.31-4.29q-6-.09-12,0c-2.88,0-4.23,1.44-4.28,4.29,0,2.24,0,4.47,0,6.71.05,2.84,1.42,4.24,4.28,4.34C486.67,683.27,488.67,683.22,490.66,683.22Zm231.75-38.41h0c-2.15,0-4.3-.06-6.46,0-2.48.09-3.85,1.42-3.93,3.88s-.08,4.94,0,7.41,1.4,3.93,3.85,4q6.33.18,12.68,0c2.55-.07,3.87-1.59,3.93-4.17q.07-3.47,0-6.93c-.05-2.85-1.4-4.16-4.32-4.22C726.24,644.77,724.33,644.81,722.41,644.81ZM534,651.65c.22-.37.34-.58.47-.78,3-4.86.48-9.78-5.16-10-3.27-.16-6.55-.09-9.83,0-1.85,0-2.19.44-2.2,2.35q0,8.51,0,17c0,1.94.19,2.16,2.25,2.2,3.51.07,7,.15,10.54,0a6,6,0,0,0,5-9C534.77,652.83,534.4,652.31,534,651.65ZM665.5,662.39h5.27a6,6,0,0,0,5.81-6.12,6.08,6.08,0,0,0-5.83-6.14c-1,0-1.92,0-2.87,0a37.52,37.52,0,0,1-3.83-.11,3,3,0,0,1-2.88-3,3.05,3.05,0,0,1,3.07-3c.8-.06,1.6,0,2.4,0,2.72,0,5.43,0,8.15,0a1.51,1.51,0,0,0,1.67-1.63c0-.93-.7-1.39-1.58-1.51a9.55,9.55,0,0,0-1.2-.05c-3,0-6.07,0-9.11,0a8.4,8.4,0,0,0-2.12.29A6,6,0,0,0,658,647.6a5.86,5.86,0,0,0,5.59,5.54c1.76.11,3.52,0,5.28.08a9.29,9.29,0,0,1,2.36.27,2.84,2.84,0,0,1,2.08,2.88,2.9,2.9,0,0,1-2.23,2.77,9.57,9.57,0,0,1-2.14.17c-3,0-6.08,0-9.11,0-1,0-1.74.41-1.78,1.51s.72,1.52,1.71,1.53C661.67,662.4,663.58,662.39,665.5,662.39Zm-174.78,0v.08c2,0,4,0,6,0,3.37,0,3.77-.61,2.52-3.64-2.25-5.46-4.52-10.9-6.78-16.36-.35-.84-.84-1.76-1.83-1.55A2.75,2.75,0,0,0,489,642.4q-3.68,8.57-7.19,17.22c-.81,2-.37,2.66,1.75,2.76C485.93,662.49,488.33,662.41,490.72,662.41Zm71.43.06v-.08c2.47,0,4.94.08,7.41,0,2-.08,2.36-.8,1.68-2.65-.61-1.65-1.33-3.25-2-4.87l-5.14-12.36c-.35-.85-.85-1.77-1.83-1.57a2.73,2.73,0,0,0-1.65,1.48q-3.69,8.55-7.21,17.2c-.79,1.95-.09,2.85,2,2.86S559.91,662.47,562.15,662.47Zm75.35-14.19h-.09c0,1.84,0,3.68,0,5.51a5.44,5.44,0,0,1-2.72,4.55,6,6,0,0,1-9.31-4.81c-.15-3.2,0-6.4,0-9.6a8.56,8.56,0,0,0-.13-1.9,1.32,1.32,0,0,0-1.61-1.09,2.46,2.46,0,0,0-1.3,1.17,3.87,3.87,0,0,0-.14,1.65q0,4.68,0,9.36a9.18,9.18,0,0,0,9,9.36,9.08,9.08,0,0,0,9.61-8.68c.16-3.6.07-7.2,0-10.8,0-1.45-.7-2.24-1.71-2.1-1.21.15-1.5,1.05-1.5,2.1ZM599.14,662.6v-.24c1.43,0,2.87,0,4.3,0a1.3,1.3,0,0,0,1.34-1.39,1.41,1.41,0,0,0-1.22-1.54,10.33,10.33,0,0,0-1.67-.09c-1.76,0-3.53.09-5.27-.07a7.63,7.63,0,0,1,.48-15.24c2-.06,4,.05,6-.06,1.41-.07,2.2-1.31,1.47-2.25a2.64,2.64,0,0,0-1.82-.88,56.1,56.1,0,0,0-7.89.3c-4.88.7-8.37,5.13-8.51,10.41a10.57,10.57,0,0,0,7.79,10.53A41.31,41.31,0,0,0,599.14,662.6Z" transform="translate(-319.41 -269.45)"/><path class="cls-2" d="M389.86,411.42h57.2c.06.76.17,1.53.17,2.29,0,8.72.06,17.43-.05,26.15a28.7,28.7,0,0,1-57.05,4.21,59.25,59.25,0,0,1-.42-7.89c-.06-7.51,0-15,0-22.55C389.69,412.93,389.8,412.24,389.86,411.42Z" transform="translate(-319.41 -269.45)"/><path class="cls-2" d="M447,580.2v46.39c-1.73.56-54.2.7-57.11.14V580.25C408.85,580.08,427.82,580.09,447,580.2Z" transform="translate(-319.41 -269.45)"/><path class="cls-2" d="M641,477c6.27,11.55,22.44,12.68,29.73.22,12.38,1.65,30.18,14.12,36.87,26l-17.71,10.27-2-2.36c-6.3-7.46-14.05-12.67-23.74-14.33-16.18-2.78-29.88,1.81-40.59,14.51-.52.61-1,1.23-1.54,1.84a2.5,2.5,0,0,1-.47.29l-17.76-10.23C613,489.67,625.33,481,641,477Z" transform="translate(-319.41 -269.45)"/><path class="cls-2" d="M710.72,508.11a61.82,61.82,0,0,1,4.08,45.44c-6.73,0-12,2.36-15.35,8.22s-2.74,11.48.58,17.37a62.39,62.39,0,0,1-41,19V577.6c28.84-3.18,45.65-33.58,33.91-59.2Z" transform="translate(-319.41 -269.45)"/><path class="cls-2" d="M652.54,598.26c-15.94-1.22-29.48-7.56-40.87-19.08,3.21-5.67,3.93-11.45.61-17.31s-8.57-8.35-15.09-8.3c-4.57-12.05-3.6-31.74,4-45.16l17.74,10.22c-5.29,13-5.29,25.79,1.82,38.13s18,18.92,31.82,20.74C653.09,579.62,653.1,596.1,652.54,598.26Z" transform="translate(-319.41 -269.45)"/><path class="cls-2" d="M417.66,311.66l1.67.76v62c1,.14,1.88.27,2.73.37a28.46,28.46,0,0,1,24.8,25.42c.25,2.84.32,5.7.49,8.89-9.41.21-18.48.26-27.69,0v-5.67c.15-.12.25-.27.39-.31,4.12-1.2,6-4,5.86-8.22-.06-2.32-.05-4.64-.06-7,0-3.66-1.83-6-5.3-7.11a3.83,3.83,0,0,1-.65-.3c-.07,0-.13-.1-.39-.3V375l-1.94-.23v5.36c-.65.3-1.12.57-1.62.76a7,7,0,0,0-5,6.65,81,81,0,0,0,0,8.39c.18,4,2.51,6.24,6.35,7.26v5.46c-1.69.58-25.1.66-27.45.07-.79-8.54.57-16.53,6.14-23.43s12.75-10.17,21.51-10.91v-3.05q0-28.2,0-56.4c0-1.11.13-2.23.2-3.34Z" transform="translate(-319.41 -269.45)"/><path class="cls-3" d="M389.79,577.38a26.37,26.37,0,0,1,3.73-13.76,29.41,29.41,0,0,1,10-10.31c-2.05-4.1-4.55-7.75-6.31-11.8,1.52.68,1.86,2.22,2.64,3.42s1.45,2.48,2.18,3.72,1.53,2.6,2.41,4.07c9.25-4.68,18.49-4.76,27.89,0l6.83-11.61c.17,1.44.17,1.44-1.44,4.23l-2.15,3.74-2.18,3.8c2.45,2.3,4.87,4.38,7.05,6.69a24,24,0,0,1,4.93,8.43,31.67,31.67,0,0,1,1.8,9.27l-.22.26c-.06,0-.12.13-.19.14-.48,0-.95.11-1.43.11l-54.91-.07C390.27,577.68,390.13,577.55,389.79,577.38Zm45.91-12.79a2.23,2.23,0,0,0-2.14-2.1,2.11,2.11,0,0,0,0,4.22A2.19,2.19,0,0,0,435.7,564.59Zm-30.35,0a2.2,2.2,0,0,0-2.09-2.14,2.13,2.13,0,0,0-2.12,2.09,2.08,2.08,0,0,0,2.06,2.12A2.16,2.16,0,0,0,405.35,564.63Z" transform="translate(-319.41 -269.45)"/><path class="cls-2" d="M632.13,537.2a23.43,23.43,0,0,1,8.92-18.71c2.38-2,5.38-.94,5.91,1.91a3.2,3.2,0,0,1-.75,2.9c-.43.47-.93.88-1.4,1.32-5.88,5.61-7.16,13.16-3.44,20.38a16.69,16.69,0,0,0,31-4.65,16.38,16.38,0,0,0-5.06-15.7c-.23-.22-.49-.42-.72-.64-1.78-1.71-2-3.66-.66-5.29s3.28-1.78,5.27-.14A22.65,22.65,0,0,1,679.56,533c2.19,14.28-7.67,26.82-22.06,27.8a23.67,23.67,0,0,1-25-19.91C632.33,539.46,632.22,538,632.13,537.2Z" transform="translate(-319.41 -269.45)"/><path class="cls-2" d="M667.19,469.89a11.35,11.35,0,1,1-22.7-.06,11.35,11.35,0,0,1,22.7.06Z" transform="translate(-319.41 -269.45)"/><path class="cls-2" d="M713.52,558.49a11.35,11.35,0,1,1-11.38,11.44A11.35,11.35,0,0,1,713.52,558.49Z" transform="translate(-319.41 -269.45)"/><path class="cls-2" d="M598.06,581.19a11.35,11.35,0,1,1,11.45-11.33A11.34,11.34,0,0,1,598.06,581.19Z" transform="translate(-319.41 -269.45)"/><path class="cls-2" d="M397,659.15h16.06v9.48H397Z" transform="translate(-319.41 -269.45)"/><path class="cls-2" d="M440.93,659.32v9.33c-5.4.29-10.75.17-16.22.08v-9.41Z" transform="translate(-319.41 -269.45)"/><path class="cls-2" d="M652.73,520.66c0-2.86,0-5.73,0-8.6a5.75,5.75,0,0,1,.46-2.29,3.07,3.07,0,0,1,5.69.61,8.41,8.41,0,0,1,.19,2.13q0,8,0,16a11.68,11.68,0,0,1-.08,1.67,3.13,3.13,0,0,1-6.25-.22c-.09-2,0-4,0-6C652.72,522.89,652.73,521.78,652.73,520.66Z" transform="translate(-319.41 -269.45)"/><path class="cls-2" d="M422.27,391.84c0,1.35.05,2.71,0,4.06a3.82,3.82,0,0,1-3.89,4,3.75,3.75,0,0,1-3.76-3.84c-.09-2.79-.1-5.59,0-8.37a3.73,3.73,0,0,1,4-3.84,3.83,3.83,0,0,1,3.65,4C422.32,389.13,422.27,390.48,422.27,391.84Z" transform="translate(-319.41 -269.45)"/><path class="cls-2" d="M620.28,324V310.29a15.32,15.32,0,0,1,7.24-.17V324Z" transform="translate(-319.41 -269.45)"/><path class="cls-2" d="M596.71,324.05V310H604v13.84A21.3,21.3,0,0,1,596.71,324.05Z" transform="translate(-319.41 -269.45)"/><path class="cls-2" d="M608.56,310h7.27v14h-7.28C608.51,319.39,608.51,314.82,608.56,310Z" transform="translate(-319.41 -269.45)"/><path class="cls-2" d="M591.76,324h-6.94c-.48-1.83-.58-11-.15-14h7A132.64,132.64,0,0,1,591.76,324Z" transform="translate(-319.41 -269.45)"/><path class="cls-2" d="M632.44,324a97.85,97.85,0,0,1-.19-13.79,6.51,6.51,0,0,1,7.38,5.56c.24,2.67,0,5.38,0,8.23Z" transform="translate(-319.41 -269.45)"/><path class="cls-2" d="M579.71,310v14h-7.05a5.66,5.66,0,0,1-.3-1.26c0-2.07-.1-4.15,0-6.22C572.58,312.66,575.56,310,579.71,310Z" transform="translate(-319.41 -269.45)"/><path class="cls-2" d="M404.17,323.94a2.42,2.42,0,0,1-2.4-2.44,2.57,2.57,0,0,1,2.49-2.39,2.51,2.51,0,0,1,2.38,2.49A2.37,2.37,0,0,1,404.17,323.94Z" transform="translate(-319.41 -269.45)"/><path class="cls-2" d="M433.36,322a2.21,2.21,0,0,1-4.4-.4,2.21,2.21,0,1,1,4.4.4Z" transform="translate(-319.41 -269.45)"/><path class="cls-1" d="M424.33,318.78c-.46-.65-1-1.07-.95-1.44s.63-.71,1-1.06c.35.36.94.69,1,1.08S424.81,318.14,424.33,318.78Z" transform="translate(-319.41 -269.45)"/><path class="cls-1" d="M578.27,683.89H513c-4,0-5.45-1.46-5.5-5.52,0-2.4-.05-4.8,0-7.2.09-3.42,1.63-4.93,5-5,.8,0,1.6,0,2.4,0H641.65c1,0,2.08,0,3.12.06,2.59.24,4.13,1.76,4.21,4.33q.13,4.56,0,9.12a4.11,4.11,0,0,1-4.25,4.25c-.72,0-1.44,0-2.16,0Zm51.17-6-.15-.7c-.92,0-1.83-.09-2.75-.09H528.9a15.66,15.66,0,0,0-1.68,0,11.16,11.16,0,0,0-1.54.48c.49.46.71.85,1,.9a12.9,12.9,0,0,0,2.15.1h97.89a11,11,0,0,0,1.91-.07C628.92,678.42,629.17,678.06,629.44,677.84Z" transform="translate(-319.41 -269.45)"/><path class="cls-1" d="M667.71,683.88c-2.23,0-4.47,0-6.71,0-2.94-.07-4.48-1.42-4.64-4.35a83.71,83.71,0,0,1,0-9.1c.16-2.79,1.67-4.18,4.51-4.24q7.08-.15,14.14,0c2.82.06,4.39,1.74,4.48,4.59s.1,5.75,0,8.62-1.78,4.39-4.6,4.47C672.51,683.94,670.11,683.88,667.71,683.88Z" transform="translate(-319.41 -269.45)"/><path class="cls-4" d="M722.59,682.88c-1.91,0-3.82,0-5.74,0-2.87-.07-4.22-1.42-4.27-4.28,0-2.32-.05-4.63,0-6.94.06-2.71,1.44-4.09,4.18-4.13q6.11-.09,12.21,0c2.57.05,4,1.47,4,4s.07,4.94,0,7.41a3.7,3.7,0,0,1-4,3.89C726.9,682.94,724.75,682.88,722.59,682.88Zm-1.1-11.08-.15.36,1.71,1.19c0,1.2-.07,2.4,0,3.58s-.42,2.28.8,3.14a39.12,39.12,0,0,0,.27-8.27Z" transform="translate(-319.41 -269.45)"/><path class="cls-4" d="M696.88,683c-2,0-4,0-6,0-2.77-.07-4.11-1.4-4.17-4.12-.05-2.39-.06-4.79,0-7.18s1.31-3.88,3.61-4q6.57-.24,13.15,0c2.33.08,3.62,1.57,3.69,3.9.08,2.55.1,5.1,0,7.65a3.59,3.59,0,0,1-3.83,3.72c-2.15.07-4.31,0-6.46,0Zm-3-11.87c0,.19,0,.37-.05.56a6.38,6.38,0,0,0,1.44.42c1,.07,2.07,0,3.11,0,.88,0,1.69.26,1.64,1.29s-.82,1.28-1.71,1.26h-1.2c-3.13.07-4.11,1.59-3,4.93,1.11,0,2.3.06,3.48,0s2.44.41,3.46-.4l0-.61-6-.19c0-2.28.05-2.4,1.75-2.52a22.93,22.93,0,0,0,2.62-.2,2.13,2.13,0,0,0,1.78-2,2.08,2.08,0,0,0-1.21-2.38C698,670.57,695.88,670.86,693.84,671.16Z" transform="translate(-319.41 -269.45)"/><path class="cls-4" d="M696.9,644.81c2,0,4,0,6,0,2.74.08,4.08,1.43,4.14,4.17.05,2.31.06,4.63,0,6.94-.06,2.69-1.44,4.16-4.15,4.22-4.06.1-8.14.1-12.2,0-2.69-.06-4.1-1.54-4.2-4.23q-.13-3.46,0-6.93c.11-2.75,1.49-4.09,4.2-4.17C692.75,644.76,694.83,644.81,696.9,644.81Zm-2.08,10.67c0-2.22.09-2.38,1.74-2.5.64,0,1.28,0,1.91,0a2.48,2.48,0,1,0,.1-5,34.37,34.37,0,0,0-4.06,0c-.31,0-.6.34-.9.53a3.9,3.9,0,0,0,2.24.67c1,.05,1.92,0,2.87.09a1,1,0,0,1,1,1.31,1.76,1.76,0,0,1-1,1.06,15.63,15.63,0,0,1-2.38.1c-2,.16-2.83,1.07-2.86,3.08a13.2,13.2,0,0,0,.16,1.58c2.86.76,6.13.57,7.53-.72Z" transform="translate(-319.41 -269.45)"/><path class="cls-5" d="M490.66,683.22c-2,0-4,0-6,0-2.86-.1-4.23-1.5-4.28-4.34,0-2.24,0-4.47,0-6.71.05-2.85,1.4-4.25,4.28-4.29q6-.09,12,0c2.86,0,4.24,1.46,4.31,4.29.05,2.24,0,4.47,0,6.7-.06,2.84-1.45,4.25-4.3,4.35C494.66,683.28,492.66,683.22,490.66,683.22Zm-.69-4.06,4.35.42v-3.74H490Zm0-4.07h4.25V671.3L490,672Zm-.58,4c-.07-1.32-.13-2.32-.18-3.28H486v2.68Zm-3.53-6.62v2.62h3.55c-.07-1.07-.13-2-.2-3Z" transform="translate(-319.41 -269.45)"/><path class="cls-4" d="M722.41,644.81c1.92,0,3.83,0,5.74,0,2.92.06,4.27,1.37,4.32,4.22q.07,3.47,0,6.93c-.06,2.58-1.38,4.1-3.93,4.17q-6.35.17-12.68,0c-2.45-.08-3.77-1.55-3.85-4s-.08-5,0-7.41,1.45-3.79,3.93-3.88c2.16-.07,4.31,0,6.46,0ZM727,652.2a4.51,4.51,0,0,0-4.56-4.3,4.45,4.45,0,0,0-4.4,4.42,4.4,4.4,0,0,0,4.52,4.28A4.46,4.46,0,0,0,727,652.2Z" transform="translate(-319.41 -269.45)"/><path class="cls-5" d="M534,651.65c.39.66.76,1.18,1,1.74a6,6,0,0,1-5,9c-3.5.18-7,.1-10.54,0-2.06,0-2.24-.26-2.25-2.2q0-8.5,0-17c0-1.91.35-2.31,2.2-2.35,3.28-.07,6.56-.14,9.83,0,5.64.26,8.12,5.18,5.16,10C534.35,651.07,534.23,651.28,534,651.65Zm-13.5-1.6c3.31,0,6.25.09,9.17,0a2.92,2.92,0,0,0,2.88-2.94,3,3,0,0,0-3-3c-2.14-.09-4.29,0-6.44,0-.83,0-1.67.08-2.57.13Zm0,9.25c3.18,0,6,.11,8.89,0,2.65-.13,4-2.76,2.56-4.73a3.45,3.45,0,0,0-2.94-1.32c-2.31,0-4.61,0-6.92,0a10.42,10.42,0,0,0-1.59.28Z" transform="translate(-319.41 -269.45)"/><path class="cls-5" d="M665.5,662.39c-1.92,0-3.83,0-5.75,0-1,0-1.75-.38-1.71-1.53s.79-1.51,1.78-1.51c3,0,6.07,0,9.11,0a9.57,9.57,0,0,0,2.14-.17,2.9,2.9,0,0,0,2.23-2.77,2.84,2.84,0,0,0-2.08-2.88,9.29,9.29,0,0,0-2.36-.27c-1.76-.05-3.52,0-5.28-.08A5.86,5.86,0,0,1,658,647.6a6,6,0,0,1,4.46-6.52,8.4,8.4,0,0,1,2.12-.29c3,0,6.08,0,9.11,0a9.55,9.55,0,0,1,1.2.05c.88.12,1.57.58,1.58,1.51a1.51,1.51,0,0,1-1.67,1.63c-2.72,0-5.43,0-8.15,0-.8,0-1.6,0-2.4,0a3.05,3.05,0,0,0-3.07,3,3,3,0,0,0,2.88,3,37.52,37.52,0,0,0,3.83.11c1,0,1.91,0,2.87,0a6.08,6.08,0,0,1,5.83,6.14,6,6,0,0,1-5.81,6.12Z" transform="translate(-319.41 -269.45)"/><path class="cls-5" d="M490.72,662.41c-2.39,0-4.79.08-7.18,0-2.12-.1-2.56-.8-1.75-2.76Q485.3,651,489,642.4a2.75,2.75,0,0,1,1.64-1.47c1-.21,1.48.71,1.83,1.55,2.26,5.46,4.53,10.9,6.78,16.36,1.25,3,.85,3.6-2.52,3.64-2,0-4,0-6,0Zm-5.26-3.28h10.42c-1.73-4.18-3.37-8.11-5.21-12.57C488.81,651,487.18,655,485.46,659.13Z" transform="translate(-319.41 -269.45)"/><path class="cls-5" d="M562.15,662.47c-2.24,0-4.47,0-6.7,0s-2.83-.91-2-2.86q3.51-8.64,7.21-17.2a2.73,2.73,0,0,1,1.65-1.48c1-.2,1.48.72,1.83,1.57l5.14,12.36c.67,1.62,1.39,3.22,2,4.87.68,1.85.27,2.57-1.68,2.65-2.47.1-4.94,0-7.41,0Zm.39-15.26-.51,0c-1.62,3.92-3.24,7.84-4.91,11.86h10.39C565.77,655,564.16,651.08,562.54,647.21Z" transform="translate(-319.41 -269.45)"/><path class="cls-5" d="M637.5,648.28V643c0-1,.29-2,1.5-2.1,1-.14,1.69.65,1.71,2.1,0,3.6.12,7.2,0,10.8a9.08,9.08,0,0,1-9.61,8.68,9.18,9.18,0,0,1-9-9.36q0-4.68,0-9.36a3.87,3.87,0,0,1,.14-1.65,2.46,2.46,0,0,1,1.3-1.17,1.32,1.32,0,0,1,1.61,1.09,8.56,8.56,0,0,1,.13,1.9c0,3.2-.1,6.4,0,9.6a6,6,0,0,0,9.31,4.81,5.44,5.44,0,0,0,2.72-4.55c.05-1.83,0-3.67,0-5.51Z" transform="translate(-319.41 -269.45)"/><path class="cls-5" d="M599.14,662.6a41.31,41.31,0,0,1-5-.53,10.57,10.57,0,0,1-7.79-10.53c.14-5.28,3.63-9.71,8.51-10.41a56.1,56.1,0,0,1,7.89-.3,2.64,2.64,0,0,1,1.82.88c.73.94-.06,2.18-1.47,2.25-2,.11-4,0-6,.06a7.63,7.63,0,0,0-.48,15.24c1.74.16,3.51,0,5.27.07a10.33,10.33,0,0,1,1.67.09,1.41,1.41,0,0,1,1.22,1.54,1.3,1.3,0,0,1-1.34,1.39c-1.43,0-2.87,0-4.3,0Z" transform="translate(-319.41 -269.45)"/><path class="cls-1" d="M435.7,564.59a2.19,2.19,0,0,1-2.12,2.12,2.11,2.11,0,0,1,0-4.22A2.23,2.23,0,0,1,435.7,564.59Z" transform="translate(-319.41 -269.45)"/><path class="cls-1" d="M405.35,564.63a2.16,2.16,0,0,1-2.15,2.07,2.08,2.08,0,0,1-2.06-2.12,2.13,2.13,0,0,1,2.12-2.09A2.2,2.2,0,0,1,405.35,564.63Z" transform="translate(-319.41 -269.45)"/><path class="cls-2" d="M629.44,677.84c-.27.22-.52.58-.82.64a11,11,0,0,1-1.91.07H528.82a12.9,12.9,0,0,1-2.15-.1c-.28-.05-.5-.44-1-.9a11.16,11.16,0,0,1,1.54-.48,15.66,15.66,0,0,1,1.68,0h97.64c.92,0,1.83.06,2.75.09Z" transform="translate(-319.41 -269.45)"/><path class="cls-1" d="M721.49,671.8h2.65a39.12,39.12,0,0,1-.27,8.27c-1.22-.86-.72-2.08-.8-3.14s0-2.38,0-3.58l-1.71-1.19Z" transform="translate(-319.41 -269.45)"/><path class="cls-1" d="M693.84,671.16c2-.3,4.11-.59,6.14.19a2.08,2.08,0,0,1,1.21,2.38,2.13,2.13,0,0,1-1.78,2,22.93,22.93,0,0,1-2.62.2c-1.7.12-1.79.24-1.75,2.52l6,.19,0,.61c-1,.81-2.31.32-3.46.4s-2.37,0-3.48,0c-1.13-3.34-.15-4.86,3-4.93h1.2c.89,0,1.67-.28,1.71-1.26s-.76-1.28-1.64-1.29c-1,0-2.08,0-3.11,0a6.38,6.38,0,0,1-1.44-.42C693.81,671.53,693.83,671.35,693.84,671.16Z" transform="translate(-319.41 -269.45)"/><path class="cls-1" d="M694.82,655.48l6.33.2c-1.4,1.29-4.67,1.48-7.53.72a13.2,13.2,0,0,1-.16-1.58c0-2,.88-2.92,2.86-3.08a15.63,15.63,0,0,0,2.38-.1,1.76,1.76,0,0,0,1-1.06,1,1,0,0,0-1-1.31c-1-.09-1.91,0-2.87-.09a3.9,3.9,0,0,1-2.24-.67c.3-.19.59-.51.9-.53a34.37,34.37,0,0,1,4.06,0,2.48,2.48,0,1,1-.1,5c-.63.06-1.27,0-1.91,0C694.91,653.1,694.8,653.26,694.82,655.48Z" transform="translate(-319.41 -269.45)"/><path class="cls-6" d="M490,679.16v-3.32h4.35v3.74Z" transform="translate(-319.41 -269.45)"/><path class="cls-6" d="M490,675.09V672l4.25-.67v3.79Z" transform="translate(-319.41 -269.45)"/><path class="cls-6" d="M489.43,679.11l-3.48-.6v-2.68h3.3C489.3,676.79,489.36,677.79,489.43,679.11Z" transform="translate(-319.41 -269.45)"/><path class="cls-6" d="M485.9,672.49l3.35-.35c.07,1,.13,1.9.2,3H485.9Z" transform="translate(-319.41 -269.45)"/><path class="cls-2" d="M727,652.2a4.46,4.46,0,0,1-4.44,4.4,4.4,4.4,0,0,1-4.52-4.28,4.45,4.45,0,0,1,4.4-4.42A4.51,4.51,0,0,1,727,652.2Zm-4.49-3.06a3.08,3.08,0,0,0-3.22,3.08,3.18,3.18,0,0,0,3.1,3.25,3.22,3.22,0,0,0,3.34-3.25A3.07,3.07,0,0,0,722.49,649.14Z" transform="translate(-319.41 -269.45)"/><path class="cls-2" d="M520.51,650.05v-5.91c.9,0,1.74-.12,2.57-.13,2.15,0,4.3-.06,6.44,0a3,3,0,0,1,3,3,2.92,2.92,0,0,1-2.88,2.94C526.76,650.14,523.82,650.05,520.51,650.05Z" transform="translate(-319.41 -269.45)"/><path class="cls-2" d="M520.54,659.3v-5.8a10.42,10.42,0,0,1,1.59-.28c2.31,0,4.61,0,6.92,0a3.45,3.45,0,0,1,2.94,1.32c1.44,2,.09,4.6-2.56,4.73C526.58,659.41,523.72,659.3,520.54,659.3Z" transform="translate(-319.41 -269.45)"/><path class="cls-2" d="M485.46,659.13c1.72-4.16,3.35-8.1,5.21-12.57,1.84,4.46,3.48,8.39,5.21,12.57Z" transform="translate(-319.41 -269.45)"/><path class="cls-2" d="M562.54,647.21c1.62,3.87,3.23,7.74,5,11.89H557.12c1.67-4,3.29-7.94,4.91-11.86Z" transform="translate(-319.41 -269.45)"/><path class="cls-2" d="M722.49,649.14a3.07,3.07,0,0,1,3.22,3.08,3.22,3.22,0,0,1-3.34,3.25,3.18,3.18,0,0,1-3.1-3.25A3.08,3.08,0,0,1,722.49,649.14Z" transform="translate(-319.41 -269.45)"/><text class="cls-7" transform="translate(121.2 459.01)">powe<tspan class="cls-8" x="94.07" y="0">r</tspan><tspan x="117.83" y="0">ed by</tspan></text><rect class="cls-1" x="298.86" y="474.34" width="90.72" height="8.08"/><rect class="cls-1" x="298.86" y="522.46" width="90.72" height="8.08"/><path class="cls-1" d="M712.12,741.61v-.93h-97v.93h0v60.56h0v.94h97v-.94h0V741.61Zm-.94,60.56h-95.1V741.61h95.1Z" transform="translate(-319.41 -269.45)"/><path class="cls-1" d="M654.58,760.8,645.21,783H639.1l-4.61-17.75a2.44,2.44,0,0,0-1.38-1.95,23.94,23.94,0,0,0-5.7-1.9l.13-.64h9.85a2.68,2.68,0,0,1,2.66,2.26l2.44,12.87,6-15.13Zm24,15c0-5.87-8.16-6.2-8.1-8.82,0-.8.78-1.65,2.45-1.86a11,11,0,0,1,5.7,1l1-4.72a15.67,15.67,0,0,0-5.41-1c-5.72,0-9.74,3-9.78,7.35,0,3.2,2.88,5,5.07,6.06s3,1.79,3,2.76c0,1.49-1.8,2.15-3.46,2.18a12.21,12.21,0,0,1-5.94-1.41L662,782.21a17.84,17.84,0,0,0,6.43,1.18c6.08,0,10-3,10.07-7.61m15.1,7.26H699l-4.67-22.24h-4.94a2.62,2.62,0,0,0-2.46,1.63L678.24,783h6.07l1.21-3.32h7.42Zm-6.46-7.88,3.05-8.35,1.75,8.35ZM662.85,760.8,658.07,783h-5.79l4.79-22.24Z" transform="translate(-319.41 -269.45)"/><path class="cls-1" d="M388,755.27l-7.32,17.28c-.21.5-.43,1.07-.63,1.61-.2-.55-.42-1.11-.63-1.62l-7.32-17.27H366l-2.65,32.8h6.36l1.52-19.82,6.29,14.29h5.16l6.3-14.21,1.55,19.74h6.32l-2.65-32.8Z" transform="translate(-319.41 -269.45)"/><polygon class="cls-1" points="119.31 491.6 129.86 491.6 129.86 518.62 136.21 518.62 136.21 491.6 146.75 491.6 146.75 485.82 119.31 485.82 119.31 491.6"/><path class="cls-1" d="M526.45,774.11a9.57,9.57,0,0,0,5-8.8c0-4.37-2.24-7.93-5.85-9.28-1.27-.47-2.73-.76-6.1-.76H509.1v32.8h6.36V775.83h4.94l6.5,12.24h7.21l-7.37-13.46Zm-11-13.06h3.94a7.78,7.78,0,0,1,3.74.57,4,4,0,0,1,1.91,3.86c0,2.9-1.61,4.56-4.43,4.56h-5.16Z" transform="translate(-319.41 -269.45)"/><path class="cls-1" d="M568,781.55a17.1,17.1,0,0,0,3.27-10,16.7,16.7,0,1,0-7.17,14.11l3.69,3.69,3.94-4.2ZM556,777.85l3.44,3.36a10.25,10.25,0,0,1-5.07,1.38c-5.88,0-10.31-4.77-10.31-11.09,0-6.16,4.43-10.8,10.31-10.8s10.36,4.64,10.36,10.8a11.63,11.63,0,0,1-1.42,5.56L560,773.65Z" transform="translate(-319.41 -269.45)"/><path class="cls-1" d="M436.94,774.06a18.8,18.8,0,0,0,.18-2.39,17.54,17.54,0,0,0-.17-2.3l-3.64-1.25a14.13,14.13,0,0,0-1.55-3.78l1.69-3.46a17.83,17.83,0,0,0-3.3-3.31l-3.45,1.69a14.07,14.07,0,0,0-3.81-1.58L421.64,754a16.05,16.05,0,0,0-4.66,0l-1.25,3.64a14.2,14.2,0,0,0-3.81,1.58l-3.45-1.69a17.83,17.83,0,0,0-3.3,3.31l1.69,3.46a14.13,14.13,0,0,0-1.55,3.78l-3.64,1.25a17.54,17.54,0,0,0-.17,2.3,18.8,18.8,0,0,0,.18,2.39l3.65,1.25a14.27,14.27,0,0,0,1.55,3.73l-1.68,3.46a17.74,17.74,0,0,0,3.33,3.32l3.46-1.69a14.23,14.23,0,0,0,3.71,1.53l1.25,3.65a16.47,16.47,0,0,0,4.72,0l1.25-3.65a14.23,14.23,0,0,0,3.71-1.53l3.46,1.69a18.1,18.1,0,0,0,3.34-3.32L431.74,779a14.27,14.27,0,0,0,1.55-3.73Zm-17.63,6.09a8.48,8.48,0,1,1,8.48-8.48A8.48,8.48,0,0,1,419.31,780.15Z" transform="translate(-319.41 -269.45)"/><path class="cls-1" d="M503.11,774.06a18.8,18.8,0,0,0,.18-2.39,17.54,17.54,0,0,0-.17-2.3l-3.63-1.25a14.48,14.48,0,0,0-1.56-3.78l1.69-3.46a17.83,17.83,0,0,0-3.3-3.31l-3.45,1.69a14.07,14.07,0,0,0-3.81-1.58L487.81,754a16.05,16.05,0,0,0-4.66,0l-1.25,3.64a14.2,14.2,0,0,0-3.81,1.58l-3.45-1.69a17.83,17.83,0,0,0-3.3,3.31l1.69,3.46a14.13,14.13,0,0,0-1.55,3.78l-3.64,1.25a17.54,17.54,0,0,0-.17,2.3,18.8,18.8,0,0,0,.18,2.39l3.65,1.25a14.27,14.27,0,0,0,1.55,3.73l-1.68,3.46a17.74,17.74,0,0,0,3.33,3.32l3.46-1.69a14.23,14.23,0,0,0,3.71,1.53l1.25,3.65a16.47,16.47,0,0,0,4.72,0l1.25-3.65a14.23,14.23,0,0,0,3.71-1.53l3.46,1.69a17.5,17.5,0,0,0,3.34-3.32L497.91,779a14.27,14.27,0,0,0,1.55-3.73Zm-17.63,6.09a8.48,8.48,0,1,1,8.48-8.48A8.48,8.48,0,0,1,485.48,780.15Z" transform="translate(-319.41 -269.45)"/><text class="cls-9" transform="translate(264.38 509.58)">&amp;</text></svg>