<svg id="Layer_1" data-name="Layer 1" xmlns="http://www.w3.org/2000/svg" viewBox="0 0 776.24 132.67"><defs><style>.cls-1{fill:#fff;}</style></defs><title>motorq</title><path class="cls-1" d="M99.72,9.82,72.43,74.18c-.77,1.88-1.58,4-2.34,6-.76-2-1.57-4.16-2.35-6.06L40.46,9.82H17.57L7.7,132H31.4L37,58.16l23.44,53.23H79.7l23.47-52.93L109,132h23.52L122.62,9.82Z" transform="translate(-7.7 -4.59)"/><polygon class="cls-1" points="280.87 26.77 320.16 26.77 320.16 127.42 343.81 127.42 343.81 26.77 383.1 26.77 383.1 5.22 280.87 5.22 280.87 26.77"/><path class="cls-1" d="M615.39,80c11.55-5.77,18.79-18.15,18.79-32.8,0-16.27-8.35-29.52-21.79-34.56-4.72-1.75-10.18-2.83-22.75-2.83H550.78V132h23.66V86.39h18.44L617.07,132h26.86L616.48,81.87C616.09,81.18,615.72,80.56,615.39,80ZM574.44,31.36h14.71c8.23,0,11.45.83,13.91,2.12,4.74,2.63,7.14,7.47,7.14,14.38,0,10.8-6,17-16.5,17H574.44Z" transform="translate(-7.7 -4.59)"/><path class="cls-1" d="M770.07,107.7a63.52,63.52,0,0,0,12.17-37.44c0-35-27.55-62.39-62.72-62.39S657,35.27,657,70.26C657,106,684.44,134,719.52,134a61.51,61.51,0,0,0,36-11.12l13.74,13.75L784,120.92ZM725.58,93.92l12.84,12.53a38.43,38.43,0,0,1-18.9,5.15c-21.9,0-38.42-17.77-38.42-41.34,0-22.91,16.52-40.2,38.42-40.2s38.58,17.29,38.58,40.2A43.49,43.49,0,0,1,752.81,91L740.23,78.27Z" transform="translate(-7.7 -4.59)"/><path class="cls-1" d="M282,79.81a66.91,66.91,0,0,0,.66-8.89,65.48,65.48,0,0,0-.62-8.57l-13.55-4.66a53.76,53.76,0,0,0-5.79-14.1l6.29-12.88a66.58,66.58,0,0,0-12.27-12.32L243.8,24.67a53.31,53.31,0,0,0-14.19-5.89L225,5.22a60,60,0,0,0-17.35,0l-4.66,13.56a53.31,53.31,0,0,0-14.19,5.89l-12.87-6.28a66.58,66.58,0,0,0-12.27,12.32l6.29,12.88a54.13,54.13,0,0,0-5.8,14.1l-13.54,4.66a65.48,65.48,0,0,0-.62,8.57,66.91,66.91,0,0,0,.66,8.89l13.59,4.67A53.26,53.26,0,0,0,170,98.38l-6.29,12.88a66.49,66.49,0,0,0,12.43,12.37L189,117.34a53.69,53.69,0,0,0,13.82,5.7l4.66,13.57a59.69,59.69,0,0,0,17.57,0L229.72,123a53.69,53.69,0,0,0,13.82-5.7l12.89,6.29a66.79,66.79,0,0,0,12.43-12.37l-6.29-12.88a53.26,53.26,0,0,0,5.79-13.9ZM216.27,102.5a31.58,31.58,0,1,1,31.58-31.58A31.58,31.58,0,0,1,216.27,102.5Z" transform="translate(-7.7 -4.59)"/><path class="cls-1" d="M528.45,79.81a66.91,66.91,0,0,0,.66-8.89,67.26,67.26,0,0,0-.61-8.57L515,57.69a53.45,53.45,0,0,0-5.8-14.1l6.29-12.88a66.58,66.58,0,0,0-12.27-12.32L490.3,24.67a53.38,53.38,0,0,0-14.18-5.89L471.45,5.22a60,60,0,0,0-17.35,0l-4.66,13.56a53.31,53.31,0,0,0-14.19,5.89l-12.86-6.28a66.32,66.32,0,0,0-12.28,12.32l6.3,12.88a53.45,53.45,0,0,0-5.8,14.1l-13.55,4.66a65.48,65.48,0,0,0-.62,8.57,66.91,66.91,0,0,0,.66,8.89l13.59,4.67a53.26,53.26,0,0,0,5.79,13.9l-6.28,12.88a66.43,66.43,0,0,0,12.42,12.37l12.89-6.29a53.84,53.84,0,0,0,13.82,5.7L454,136.61a59.69,59.69,0,0,0,17.57,0L476.22,123a53.69,53.69,0,0,0,13.82-5.7l12.9,6.29a66.73,66.73,0,0,0,12.42-12.37l-6.29-12.88a53.63,53.63,0,0,0,5.8-13.9ZM462.78,102.5a31.58,31.58,0,1,1,31.58-31.58A31.58,31.58,0,0,1,462.78,102.5Z" transform="translate(-7.7 -4.59)"/></svg>