<svg xmlns="http://www.w3.org/2000/svg" viewBox="0 0 1919.45 1080"><defs><style>.cls-1{isolation:isolate;}.cls-2{opacity:0.24;}.cls-10,.cls-11,.cls-12,.cls-13,.cls-14,.cls-15,.cls-16,.cls-17,.cls-18,.cls-19,.cls-2,.cls-20,.cls-21,.cls-22,.cls-23,.cls-24,.cls-25,.cls-26,.cls-27,.cls-28,.cls-29,.cls-30,.cls-31,.cls-32,.cls-33,.cls-34,.cls-35,.cls-36,.cls-37,.cls-38,.cls-39,.cls-4,.cls-40,.cls-41,.cls-42,.cls-43,.cls-44,.cls-45,.cls-46,.cls-47,.cls-48,.cls-49,.cls-5,.cls-50,.cls-51,.cls-52,.cls-53,.cls-54,.cls-55,.cls-56,.cls-57,.cls-58,.cls-6,.cls-7,.cls-8,.cls-9{mix-blend-mode:color-dodge;}.cls-3{fill:#27a0db;}.cls-4{opacity:0.5;}.cls-5{opacity:0.88;}.cls-6{opacity:0.58;}.cls-7{opacity:0.18;}.cls-8{opacity:0.7;}.cls-9{opacity:0.05;}.cls-10{opacity:0.34;}.cls-11{opacity:0.44;}.cls-12{opacity:0.87;}.cls-13{opacity:0.64;}.cls-14{opacity:0.65;}.cls-15{opacity:0.41;}.cls-16{opacity:0.19;}.cls-17{opacity:0.17;}.cls-18{opacity:0.34;}.cls-19{opacity:0.92;}.cls-20{opacity:0.2;}.cls-21{opacity:0.27;}.cls-22{opacity:0.78;}.cls-23{opacity:0.94;}.cls-24{opacity:0.5;}.cls-25{opacity:0.63;}.cls-26{opacity:0.76;}.cls-27{opacity:0.36;}.cls-28{opacity:0.06;}.cls-29{opacity:0.6;}.cls-30{opacity:0.79;}.cls-31{opacity:0.4;}.cls-32{opacity:0.14;}.cls-33{opacity:0.3;}.cls-34{opacity:0.58;}.cls-35{opacity:0.72;}.cls-36{opacity:0.64;}.cls-37{opacity:0.59;}.cls-38{opacity:0.41;}.cls-39{opacity:0.94;}.cls-40{opacity:0.25;}.cls-41{opacity:0.59;}.cls-42{opacity:0.77;}.cls-43{opacity:0.23;}.cls-44{opacity:0.13;}.cls-45{opacity:0.29;}.cls-46{opacity:0.79;}.cls-47{opacity:0.76;}.cls-48{opacity:0.32;}.cls-49{opacity:0.77;}.cls-50{opacity:0.79;}.cls-51{opacity:0.72;}.cls-52{opacity:0.14;}.cls-53{opacity:0.35;}.cls-54{opacity:0.6;}.cls-55{opacity:0.8;}.cls-56{opacity:0.38;}.cls-57{opacity:0.93;}.cls-58{opacity:0.94;}.cls-59{opacity:0.75;font-size:110px;stroke-width:2px;font-family:NasalizationRg-Regular, Nasalization;}.cls-59,.cls-64{fill:none;stroke:#27a0db;stroke-miterlimit:10;}.cls-60{letter-spacing:-0.02em;}.cls-61{letter-spacing:-0.04em;}.cls-62{letter-spacing:0em;}.cls-63{opacity:0.76;}.cls-64{font-size:100px;stroke-width:1.5px;font-family:TechnoHideo, Techno Hideo;letter-spacing:0.03em;}</style></defs><title>Asset 5WORK</title><g class="cls-1"><g id="Layer_2" data-name="Layer 2"><g id="Layer_1-2" data-name="Layer 1"><g id="triangle36" class="cls-2"><path class="cls-3" d="M270.54,169.29,226.3,225.63,211.84,172Zm-43.73,53.83,41.29-52.57-54.79,2.56Z"/></g><g id="triangle36-2" data-name="triangle36" class="cls-4"><path class="cls-3" d="M129,89.75,38.26,80.09l.75-.83L105.74,5.85ZM40.62,79.2l86.85,9.23L105.19,8.15Z"/></g><g class="cls-5"><path class="cls-3" d="M106.66,6.53,39.3,80.65.32,1.53H48.13ZM39.58,78.64,104.26,7.48,48.08,2.67H2.16Z"/></g><g id="triangle36-3" data-name="triangle36" class="cls-6"><path class="cls-3" d="M232.28,432.84l-.58,1-37.24-18.6-3.22-9.81ZM195.4,414.41l28.7,14.34L193.36,408.2Z"/></g><g id="triangle36-4" data-name="triangle36" class="cls-7"><path class="cls-3" d="M182,465.57l-7.39,66.74-44.54-36.12Zm-8.3,64.53,6.91-62.38-48.54,28.62Z"/></g><g id="triangle36-5" data-name="triangle36" class="cls-8"><path class="cls-3" d="M541.56,197.15l-.58.62-39.86,42.52,6.43-56.48ZM502.65,237l36.92-39.38-31.05-12.18Z"/></g><g id="triangle36-6" data-name="triangle36" class="cls-9"><path class="cls-3" d="M213.41,172.16l-10.66,22-.51-.24-91.76-44.07Zm-11.19,20.47L211.74,173l-92-19.95Z"/></g><g id="triangle36-7" data-name="triangle36" class="cls-10"><path class="cls-3" d="M122.34,325l-75.6-41.33L97.59,277l.18.36Zm-72-40.65,69.25,37.86-22.68-44Z"/></g><g id="triangle36-8" data-name="triangle36" class="cls-11"><path class="cls-3" d="M49.34,283.67l-26.64,58L10.5,271.32ZM23.2,337.88l24.56-53.51L12,273Z"/></g><g id="triangle36-9" data-name="triangle36" class="cls-12"><path class="cls-3" d="M131.86,495.8l-17.28,53.49-.63-.45L16,479ZM114,547.45l16.39-50.72L20.54,480.83Z"/></g><g id="triangle36-10" data-name="triangle36" class="cls-13"><path class="cls-3" d="M543.77,199.25l-37-14.53,11.08-6.61Zm-34.44-14.74,28,11-19.65-16Z"/></g><g id="triangle36-11" data-name="triangle36" class="cls-14"><path class="cls-3" d="M546.2,43.82l-21.9,94.4-29-107.06Zm-22,89.71,20.62-88.87L496.89,32.74Z"/></g><g id="triangle36-12" data-name="triangle36" class="cls-15"><path class="cls-3" d="M521.81,155.52l-3.52,23.64-11.63,6.94Zm-4.57,22.94,2.37-15.92-10.2,20.59Z"/></g><g id="triangle36-13" data-name="triangle36" class="cls-16"><path class="cls-3" d="M399.67,214.21,339.41,289l-19.25-80.37ZM340,286.49,397.4,215.2l-75.76-5.3Z"/></g><g class="cls-17"><path class="cls-3" d="M422.4,14.05,383.8,1.53h33.52ZM391,2.68l29.38,9.52-3.87-9.52Z"/></g><g class="cls-18"><path class="cls-3" d="M23.55,339.43l-4.61,78L0,380.81V329.29ZM18,413.18l4.32-73L1.14,331v49.64Z"/></g><g id="triangle36-14" data-name="triangle36" class="cls-19"><path class="cls-3" d="M196.05,416.4l-36.42-27.95.63-.95,32.51,18.92ZM167.43,393l26.38,20.25-2-6.05Z"/></g><g id="triangle36-15" data-name="triangle36" class="cls-20"><path class="cls-3" d="M161.15,388.83l-53.29-11.3,12.88-55.42Zm-51.91-12.18,49.56,10.51-37.58-62.05Z"/></g><g id="triangle36-16" data-name="triangle36" class="cls-21"><path class="cls-3" d="M122.83,322.73,60.58,378.32,21.76,339.41Zm-62.2,54,58.5-52.25-95,15.67Z"/></g><g id="triangle36-17" data-name="triangle36" class="cls-22"><path class="cls-3" d="M116.86,152.31,32,138.07l7-59.63.83.79ZM33.23,137.12l80.13,13.44L39.87,80.84Z"/></g><g class="cls-23"><path class="cls-3" d="M34.37,137.66,0,148V124.52ZM1.14,146.43l29.68-8.9L1.14,126.19Z"/></g><g id="triangle36-18" data-name="triangle36" class="cls-24"><path class="cls-3" d="M546.11,39.16l-.33,91.91-22.29,5.59Zm-1.47,91,.29-80.86L525,135.09Z"/></g><g id="triangle36-19" data-name="triangle36" class="cls-25"><path class="cls-3" d="M288.93,457.37l-57.87-23.81,31.32-42.73Zm-56.08-24.31,54,22.22-24.78-62.11Z"/></g><g id="triangle36-20" data-name="triangle36" class="cls-26"><path class="cls-3" d="M264,392.22l-72.24,15.29.66-50.81ZM192.88,406.1l67.62-14.32-67-33.25Z"/></g><g id="triangle36-21" data-name="triangle36" class="cls-27"><path class="cls-3" d="M203.82,193.4,97.22,243.65l17.46-93.06ZM98.76,241.66l102.39-48.27-85.62-41.12Z"/></g><g id="triangle36-22" data-name="triangle36" class="cls-28"><path class="cls-3" d="M209.83,296.46,96.68,278.1l.76-36.35Zm-112-19.33,104.49,16.95L98.54,243.56Z"/></g><g id="triangle36-23" data-name="triangle36" class="cls-29"><path class="cls-3" d="M322.39,209,269.88,242l23.39-39.37Zm-49.11,29.46,46.13-28.94-25.58-5.64Z"/></g><g id="triangle36-24" data-name="triangle36" class="cls-30"><path class="cls-3" d="M321.74,208.07l-12.8,60-38.38-27.91Zm-13.55,58.07,11.87-55.66L272.6,240.26Z"/></g><g id="triangle36-25" data-name="triangle36" class="cls-31"><path class="cls-3" d="M296.54,199.34l-24.62,41.44-16.42,1Zm-25.29,40.33,19.31-32.51-32.2,33.28Z"/></g><g id="triangle36-26" data-name="triangle36" class="cls-32"><path class="cls-3" d="M295,304.36l-39.1-63.77,16-1Zm-37.13-62.75,32.37,52.8-19.09-53.59Z"/></g><g class="cls-33"><path class="cls-3" d="M453.88,1.53l-.95,5.68-7.76-5.68Zm-1.77,3.66.42-2.51h-3.85Z"/></g><g id="triangle36-27" data-name="triangle36" class="cls-34"><path class="cls-3" d="M650.91,86.18,592,101.49l22-38ZM594.38,99.69,648,85.75,614.37,65.1Z"/></g><g id="triangle36-28" data-name="triangle36" class="cls-35"><path class="cls-3" d="M508.72,183.61l-6.4,56.24L466.5,205.38Zm-7.27,53.81,5.89-51.81-38.9,20Z"/></g><g id="triangle36-29" data-name="triangle36" class="cls-36"><path class="cls-3" d="M503.91,239.79,472.1,231l-5.56-27.14Zm-30.83-9.74,26.78,7.43L468.4,207.21Z"/></g><g class="cls-37"><path class="cls-3" d="M220.92,1.53l-2.85,14.81L195.25,1.53Zm-3.65,12.92,2.26-11.77H199.11Z"/></g><g id="triangle36-30" data-name="triangle36" class="cls-38"><path class="cls-3" d="M422.33,11.4,401,121.06,363.82,69.94l.35-.34Zm-22,106.86,20.12-103.4-55.17,55.2Z"/></g><g id="triangle36-31" data-name="triangle36" class="cls-39"><path class="cls-3" d="M304.56,73.38,236.31,97.24,263.75,8.35Zm-66.49,22,64.75-22.64L264.11,11.08Z"/></g><g id="triangle36-32" data-name="triangle36" class="cls-40"><path class="cls-3" d="M182.46,466.65l-51.65,30.46-28-78.67Zm-51,28.77,48.81-28.78-75.31-45.56Z"/></g><g id="triangle36-33" data-name="triangle36" class="cls-41"><path class="cls-3" d="M109.21,376.26,104.29,421l-33-31.71Zm-5.81,42.28,4.48-40.61L73.47,389.74Z"/></g><g class="cls-42"><path class="cls-3" d="M20.83,577.45,0,596.21V583ZM1.14,593.64l15.4-13.86-15.4,4.11Z"/></g><g id="triangle36-34" data-name="triangle36" class="cls-43"><path class="cls-3" d="M524.94,135.17l-3.78,24.73-34.95-17.69Zm-4.67,23,3.3-21.59-33.8,6.15Z"/></g><g id="triangle36-35" data-name="triangle36" class="cls-44"><path class="cls-3" d="M521.48,158.78,508,185.92,486.75,141.2ZM508,183.3l11.91-24-30.73-15.56Z"/></g><g id="triangle36-36" data-name="triangle36" class="cls-45"><path class="cls-3" d="M508.78,184.87l-42.29,21.8,21.4-65.74Zm-40.34,19.51,38.84-20L488.09,144Z"/></g><g id="triangle36-37" data-name="triangle36" class="cls-46"><path class="cls-3" d="M491.52,142.8l-103.06,7.08L400.33,119Zm-101.35,5.81,94.29-6.47L401,120.34Z"/></g><g class="cls-47"><path class="cls-3" d="M606.61,56.12l-1.13.18L593.61,1.53h6.8ZM595,2.68l9.16,42.26-4.8-42.26Z"/></g><g class="cls-48"><path class="cls-3" d="M501.57,1.53l-5.06,31.33L450.9,5.9l24.76-4.36ZM495.65,31l4.57-28.35H475.76L454.14,6.49Z"/></g><g id="triangle36-38" data-name="triangle36" class="cls-49"><path class="cls-3" d="M593.84,99.51l-3.56,57.1-46.19-26Zm-4.59,55.21,3.31-53-46.23,28.92Z"/></g><g id="triangle36-39" data-name="triangle36" class="cls-50"><path class="cls-3" d="M590.15,156.09l-48.06,44.47-2.29-3.28,49.59-42.05Zm-47.88,42.74L570,173.15l-28.69,24.33Z"/></g><g id="triangle36-40" data-name="triangle36" class="cls-51"><path class="cls-3" d="M486.34,241.2,464,261.63l8.26-32.14Zm-20.28,17,18.54-16.95-11.68-9.71Z"/></g><g class="cls-52"><path class="cls-3" d="M155.93,39.23,104.46,7.05l7.24-5.52h14.82ZM106.47,7,151,34.82,126,2.68H112.09Z"/></g><g id="triangle36-41" data-name="triangle36" class="cls-53"><path class="cls-3" d="M233.29,433.12l-53.23,35.06,19.66-45.32Zm-50.65,32,48-31.61-30.27-9.24Z"/></g><g id="triangle36-42" data-name="triangle36" class="cls-54"><path class="cls-3" d="M200.68,423.52l-18.81,43.35-1.07-.38,13.93-53.15Zm-16.89,36.05,15.61-36-4.26-7.3Z"/></g><g id="triangle36-43" data-name="triangle36" class="cls-55"><path class="cls-3" d="M98.62,239.79l-.81,39.08L86.07,268.36Zm-1.9,36.57.64-30.85-9.91,22.55Z"/></g><g id="triangle36-44" data-name="triangle36" class="cls-56"><path class="cls-3" d="M98.58,278l-54.26,7.14,42.56-17.62Zm-45.79,4.87L96,277.21l-9.31-8.34Z"/></g><g id="triangle36-45" data-name="triangle36" class="cls-57"><path class="cls-3" d="M323.85,210.51l-33.09-7.29,16.74-3.34Zm-27.52-7.23L318,208l-10.69-6.94Z"/></g><g id="triangle36-46" data-name="triangle36" class="cls-58"><path class="cls-3" d="M389.7,149.67,321,210l-14.63-9.51L389,148.76Zm-68.85,58.89,62.77-55.08-75.17,47Z"/></g><g id="triangle36-47" data-name="triangle36" class="cls-2"><path class="cls-3" d="M1428.11,775.33,1508.47,673l26.25,97.33Zm79.43-97.76-75,95.47L1532,768.4Z"/></g><g id="triangle36-48" data-name="triangle36" class="cls-4"><path class="cls-3" d="M1685.12,919.79,1850,937.33l-1.38,1.51-121.17,133.32ZM1845.68,939l-157.74-16.78,40.47,145.8Z"/></g><g class="cls-5"><path class="cls-3" d="M1725.73,1070.92l122.35-134.61L1918.87,1080H1832Zm121.84-131L1730.1,1069.21l102,8.72h83.4Z"/></g><g id="triangle36-49" data-name="triangle36" class="cls-6"><path class="cls-3" d="M1497.61,296.7l1-1.79,67.63,33.78,5.86,17.82Zm67,33.46-52.12-26,55.83,37.31Z"/></g><g id="triangle36-50" data-name="triangle36" class="cls-7"><path class="cls-3" d="M1588.83,237.26l13.44-121.21,80.88,65.59Zm15.09-117.2-12.56,113.29,88.16-52Z"/></g><g id="triangle36-51" data-name="triangle36" class="cls-8"><path class="cls-3" d="M935.91,724.73l1.05-1.12,72.39-77.21L997.68,749Zm70.66-72.34-67.05,71.52L995.92,746Z"/></g><g id="triangle36-52" data-name="triangle36" class="cls-9"><path class="cls-3" d="M1531.87,770.11l19.36-39.94.93.44,166.64,80Zm20.32-37.17-17.3,35.7L1702,804.88Z"/></g><g id="triangle36-53" data-name="triangle36" class="cls-10"><path class="cls-3" d="M1697.25,492.53l137.31,75.05-92.35,12.15-.33-.65ZM1828,566.35,1702.21,497.6l41.18,79.88Z"/></g><g id="triangle36-54" data-name="triangle36" class="cls-11"><path class="cls-3" d="M1829.83,567.6l48.39-105.4L1900.38,590Zm47.48-98.45-44.61,97.18,65,20.69Z"/></g><g id="triangle36-55" data-name="triangle36" class="cls-12"><path class="cls-3" d="M1680,182.36l31.38-97.16,1.15.82,177.83,126.8Zm32.48-93.82-29.75,92.11,199.44,28.88Z"/></g><g id="triangle36-56" data-name="triangle36" class="cls-13"><path class="cls-3" d="M931.9,720.93l67.25,26.38-20.12,12Zm62.55,26.77-50.92-20,35.68,29.06Z"/></g><g id="triangle36-57" data-name="triangle36" class="cls-14"><path class="cls-3" d="M927.47,1003.2l39.79-171.44L1020,1026.2Zm39.94-162.92L930,1001.68l87.08,21.65Z"/></g><g id="triangle36-58" data-name="triangle36" class="cls-15"><path class="cls-3" d="M971.77,800.34l6.4-42.93L999.3,744.8Zm8.31-41.65-4.31,28.9L994.3,750.2Z"/></g><g id="triangle36-59" data-name="triangle36" class="cls-16"><path class="cls-3" d="M1193.6,693.75,1303,557.89l35,146ZM1302,562.48,1197.71,692l137.61,9.62Z"/></g><g class="cls-17"><path class="cls-3" d="M1152.32,1057.27l70.1,22.73h-60.88Zm57,20.65-53.35-17.3,7,17.3Z"/></g><g class="cls-18"><path class="cls-3" d="M1876.69,466.34l8.36-141.58,34.4,66.43v93.57Zm10-133.94L1878.85,465l38.52,16.59V391.44Z"/></g><g id="triangle36-60" data-name="triangle36" class="cls-19"><path class="cls-3" d="M1563.39,326.55l66.16,50.77-1.16,1.72-59-34.37Zm52,42.51-47.91-36.77,3.61,11Z"/></g><g id="triangle36-61" data-name="triangle36" class="cls-20"><path class="cls-3" d="M1626.78,376.63l96.78,20.52-23.39,100.64Zm94.28,22.11-90-19.08,68.26,112.68Z"/></g><g id="triangle36-62" data-name="triangle36" class="cls-21"><path class="cls-3" d="M1696.37,496.67l113.05-101,70.51,70.68Zm113-98.1-106.25,94.88L1875.6,465Z"/></g><g id="triangle36-63" data-name="triangle36" class="cls-22"><path class="cls-3" d="M1707.21,806.17,1861.4,832l-12.79,108.29-1.5-1.42Zm151.89,27.58-145.52-24.4L1847,936Z"/></g><g class="cls-23"><path class="cls-3" d="M1857,832.77l62.42-18.71v42.58Zm60.34-15.92L1863.47,833l53.9,20.6Z"/></g><g id="triangle36-64" data-name="triangle36" class="cls-24"><path class="cls-3" d="M927.65,1011.66l.59-166.91,40.49-10.16Zm2.66-165.29-.52,146.86,36.15-155.79Z"/></g><g id="triangle36-65" data-name="triangle36" class="cls-25"><path class="cls-3" d="M1394.72,252.14l105.08,43.24L1442.93,373Zm101.84,44.16-98.09-40.37,45,112.8Z"/></g><g id="triangle36-66" data-name="triangle36" class="cls-26"><path class="cls-3" d="M1440.06,370.46l131.2-27.77L1570.05,435Zm129.09-25.2-122.81,26L1568,431.64Z"/></g><g id="triangle36-67" data-name="triangle36" class="cls-27"><path class="cls-3" d="M1549.29,731.54l193.59-91.25-31.71,169Zm190.8-87.64-186,87.66,155.49,74.68Z"/></g><g id="triangle36-68" data-name="triangle36" class="cls-28"><path class="cls-3" d="M1538.37,544.38l205.49,33.34-1.37,66Zm203.37,35.1L1552,548.69l188.5,91.76Z"/></g><g id="triangle36-69" data-name="triangle36" class="cls-29"><path class="cls-3" d="M1334,703.18l95.36-59.84-42.47,71.5Zm89.18-53.51-83.77,52.57,46.46,10.25Z"/></g><g id="triangle36-70" data-name="triangle36" class="cls-30"><path class="cls-3" d="M1335.13,704.9l23.25-109,69.69,50.69Zm24.61-105.46-21.56,101.09,86.19-54.09Z"/></g><g id="triangle36-71" data-name="triangle36" class="cls-31"><path class="cls-3" d="M1380.9,720.77l44.71-75.27,29.82-1.78Zm45.93-73.26-35.07,59,58.47-60.45Z"/></g><g id="triangle36-72" data-name="triangle36" class="cls-32"><path class="cls-3" d="M1383.62,530l71,115.83-29.12,1.74ZM1451,644l-58.77-95.88,34.67,97.32Z"/></g><g class="cls-33"><path class="cls-3" d="M1095.15,1080l1.71-10.31L1111,1080Zm3.21-6.64-.76,4.56h7Z"/></g><g id="triangle36-73" data-name="triangle36" class="cls-34"><path class="cls-3" d="M737.32,926.28l106.94-27.81-39.86,69ZM840,901.73l-97.42,25.33,61.11,37.5Z"/></g><g id="triangle36-74" data-name="triangle36" class="cls-35"><path class="cls-3" d="M995.55,749.32l11.62-102.13,65.06,62.6Zm13.21-97.72-10.71,94.09,70.65-36.42Z"/></g><g id="triangle36-75" data-name="triangle36" class="cls-36"><path class="cls-3" d="M1004.28,647.3l57.78,16,10.09,49.28Zm56,17.68-48.64-13.49,57.14,55Z"/></g><g class="cls-37"><path class="cls-3" d="M1518.23,1080l5.18-26.89,41.45,26.89Zm6.63-23.47-4.11,21.39h37.08Z"/></g><g id="triangle36-76" data-name="triangle36" class="cls-38"><path class="cls-3" d="M1152.45,1062.09l38.75-199.16,67.5,92.83-.63.63ZM1192.33,868l-36.54,187.8L1256,955.55Z"/></g><g id="triangle36-77" data-name="triangle36" class="cls-39"><path class="cls-3" d="M1366.34,949.52l123.94-43.33-49.84,161.42Zm120.74-40-117.6,41.11,70.31,112.05Z"/></g><g id="triangle36-78" data-name="triangle36" class="cls-40"><path class="cls-3" d="M1588.07,235.3,1681.89,180l50.92,142.87ZM1680.78,183l-88.66,52.28,136.77,82.73Z"/></g><g id="triangle36-79" data-name="triangle36" class="cls-41"><path class="cls-3" d="M1721.1,399.45l9-81.22,59.87,57.6Zm10.55-76.79-8.13,73.77L1786,375Z"/></g><g class="cls-42"><path class="cls-3" d="M1881.61,34.06,1919.45,0V24Zm35.76-29.4-27.95,25.16,27.95-7.45Z"/></g><g id="triangle36-80" data-name="triangle36" class="cls-43"><path class="cls-3" d="M966.09,837.3,973,792.39l63.47,32.13Zm8.49-41.77-6,39.2L1030,823.58Z"/></g><g id="triangle36-81" data-name="triangle36" class="cls-44"><path class="cls-3" d="M972.38,794.42l24.44-49.29,38.63,81.22Zm24.4-44.54L975.16,793.5l55.8,28.25Z"/></g><g id="triangle36-82" data-name="triangle36" class="cls-45"><path class="cls-3" d="M995.43,747l76.81-39.59-38.86,119.39Zm73.27-35.43L998.17,748,1033,821.25Z"/></g><g id="triangle36-83" data-name="triangle36" class="cls-46"><path class="cls-3" d="M1026.79,823.45,1214,810.59l-21.55,56.12Zm184-10.56-171.23,11.75,151.52,39.59Z"/></g><g class="cls-47"><path class="cls-3" d="M817.77,980.87l2.05-.34L841.38,1080H829Zm21,97.05-16.63-76.75,8.71,76.75Z"/></g><g class="cls-48"><path class="cls-3" d="M1008.54,1080l9.18-56.9,82.84,49-45,7.92Zm10.75-53.56-8.31,51.48h44.43l39.26-6.93Z"/></g><g id="triangle36-84" data-name="triangle36" class="cls-49"><path class="cls-3" d="M841,902.06l6.47-103.7,83.88,47.16Zm8.34-100.27-6,96.36,84-52.54Z"/></g><g id="triangle36-85" data-name="triangle36" class="cls-50"><path class="cls-3" d="M847.66,799.31,935,718.54l4.16,6L849,800.86Zm87-77.62-50.4,46.63,52.11-44.18Z"/></g><g id="triangle36-86" data-name="triangle36" class="cls-51"><path class="cls-3" d="M1036.2,644.74l40.57-37.11-15,58.37ZM1073,613.88l-33.67,30.79,21.21,17.63Z"/></g><g class="cls-52"><path class="cls-3" d="M1636.27,1011.55l93.47,58.43-13.16,10h-26.92Zm89.82,58.6-80.95-50.61,45.54,58.38h25.2Z"/></g><g id="triangle36-87" data-name="triangle36" class="cls-53"><path class="cls-3" d="M1495.77,296.18l96.67-63.66-35.71,82.29Zm92-58.09-87.15,57.4,55,16.79Z"/></g><g id="triangle36-88" data-name="triangle36" class="cls-54"><path class="cls-3" d="M1555,313.61l34.16-78.72,2,.68-25.31,96.54Zm30.67-65.46-28.34,65.33,7.75,13.25Z"/></g><g id="triangle36-89" data-name="triangle36" class="cls-55"><path class="cls-3" d="M1740.34,647.3l1.47-71,21.32,19.1Zm3.45-66.42-1.16,56,18-40.95Z"/></g><g id="triangle36-90" data-name="triangle36" class="cls-56"><path class="cls-3" d="M1740.42,577.87l98.54-13-77.29,32Zm83.15-8.85-78.39,10.32,16.9,15.14Z"/></g><g id="triangle36-91" data-name="triangle36" class="cls-57"><path class="cls-3" d="M1331.29,700.47l60.1,13.24-30.4,6.06Zm50,13.14L1342,705l19.41,12.61Z"/></g><g id="triangle36-92" data-name="triangle36" class="cls-58"><path class="cls-3" d="M1211.71,811l124.85-109.55,26.58,17.28L1213,812.62Zm125-107-114,100,136.53-85.39Z"/></g><text class="cls-59" transform="translate(799.68 135.09)">A<tspan class="cls-60" x="86.24" y="0">B</tspan><tspan class="cls-61" x="162.8" y="0">A</tspan><tspan class="cls-62" x="244.64" y="0">CUS 21</tspan></text><g class="cls-63"><text class="cls-64" transform="translate(28.8 1025.21)">WORKSHOPS</text></g></g></g></g></svg>